<?xml version="1.0" encoding="UTF-8"?>
<svg width="60px" height="60px" viewBox="0 0 60 60" version="1.1" xmlns="http://www.w3.org/2000/svg" xmlns:xlink="http://www.w3.org/1999/xlink">
    <!-- Generator: sketchtool 53 (72520) - https://sketchapp.com -->
    <title>27521BFA-FA1E-48C8-A271-6136A38EC83D</title>
    <desc>Created with sketchtool.</desc>
    <defs>
        <path d="M57,30 C55.341,30 54,31.341 54,33 L54,34.566 L43.113,30.213 C42.246,29.865 41.259,29.94 40.455,30.429 L27.084,38.451 L19.665,33.504 C18.693,32.859 17.451,32.826 16.455,33.429 L6,39.699 L6,6 L27,6 C28.659,6 30,4.659 30,3 C30,1.341 28.659,0 27,0 L3,0 C1.341,0 0,1.341 0,3 L0,57 C0,58.659 1.341,60 3,60 L57,60 C58.659,60 60,58.659 60,57 L60,33 C60,31.341 58.659,30 57,30 L57,30 Z M39,15 L45,15 L45,21 C45,22.659 46.341,24 48,24 C49.659,24 51,22.659 51,21 L51,15 L57,15 C58.659,15 60,13.659 60,12 C60,10.341 58.659,9 57,9 L51,9 L51,3 C51,1.341 49.659,0 48,0 C46.341,0 45,1.341 45,3 L45,9 L39,9 C37.341,9 36,10.341 36,12 C36,13.659 37.341,15 39,15 M27,21 C27,22.656 25.656,24 24,24 C22.344,24 21,22.656 21,21 C21,19.344 22.344,18 24,18 C25.656,18 27,19.344 27,21 M15,21 C15,25.962 19.038,30 24,30 C28.962,30 33,25.962 33,21 C33,16.038 28.962,12 24,12 C19.038,12 15,16.038 15,21 M6,54.0000014 L6,46.6980014 L17.916,39.5490014 L25.335,44.4960014 C26.301,45.1350014 27.546,45.1710014 28.545,44.5710014 L42.267,36.3360014 L54,41.0310014 L54,54.0000014 L6,54.0000014 Z" id="path-1"></path>
    </defs>
    <g id="Login-&amp;-Onboarding" stroke="none" stroke-width="1" fill="none" fill-rule="evenodd">
        <g id="09.-SM---School-Photo" transform="translate(-807.000000, -279.000000)">
            <g id="Group" transform="translate(760.000000, 279.000000)">
                <g id="IconSet/Photo/Default" transform="translate(47.000000, 0.000000)">
                    <mask id="mask-2" fill="white">
                        <use xlink:href="#path-1"></use>
                    </mask>
                    <use id="Icon" fill="#8595A6" xlink:href="#path-1"></use>
                </g>
            </g>
        </g>
    </g>
</svg>