<?xml version="1.0" encoding="UTF-8"?>
<svg width="77px" height="72px" viewBox="0 0 77 72" version="1.1" xmlns="http://www.w3.org/2000/svg" xmlns:xlink="http://www.w3.org/1999/xlink">
    <!-- Generator: Sketch 62 (91390) - https://sketch.com -->
    <title>Define structure by yourself</title>
    <desc>Created with Sketch.</desc>
    <g id="Exam-Automation" stroke="none" stroke-width="1" fill="none" fill-rule="evenodd">
        <g id="04.2-ES---Worksheet-Settings---Options" transform="translate(-786.000000, -220.000000)" fill="#8595A6">
            <g id="Define-structure-by-yourself" transform="translate(786.000000, 220.000000)">
                <path d="M49.3691819,27.7441132 C50.2429224,26.6212751 51.703955,26.1305872 53.0783293,26.4983959 C54.4527036,26.8662047 55.4733627,28.0210405 55.6694933,29.4301965 C55.8014159,30.3381638 55.5636553,31.2611073 55.0094607,31.9923231 L55.0094607,31.9923231 L52.081316,35.8805153 C53.0206523,36.1638733 53.7995738,36.8255812 54.2310536,37.7067563 C54.6625334,38.5879315 54.7075985,39.6089825 54.3554284,40.5247448 C55.6800289,40.9103583 56.6607614,42.0291892 56.8695526,43.3928866 C56.9659194,44.0131713 56.8912344,44.6479937 56.6535419,45.2289773 C58.0616869,45.5616092 59.1273558,46.715095 59.3476751,48.1451214 C59.4906462,49.0640056 59.25463,50.0015745 58.6936428,50.7432498 L58.6936428,50.7432498 L54.895455,55.7894992 C54.8599546,55.8701175 54.8156857,55.946582 54.7634485,56.0175105 C54.4394325,56.4435316 54.1514183,56.8335508 53.8394029,57.2175698 L53.8394029,57.2175698 L53.7493984,57.3375757 L53.7073963,57.3795778 C51.7327258,59.7642512 49.5544123,61.9726796 47.1970746,63.979904 L47.1970746,63.979904 L47.2930793,64.0519076 C47.5486313,64.2419774 47.7181477,64.5258362 47.7642911,64.8409618 C47.8104345,65.1560874 47.7294199,65.4766312 47.5390915,65.7319906 L47.5390915,65.7319906 L43.2068774,71.5282771 C42.9442742,71.8701971 42.5192067,72.0460472 42.0917936,71.9895862 C41.6643805,71.9331252 41.2995561,71.6529309 41.1347463,71.2545499 C40.9699364,70.8561688 41.0301796,70.4001245 41.2927828,70.0582044 L41.2927828,70.0582044 L44.8929607,65.2219654 L30.3662428,54.4214316 L26.7660649,59.2576706 C26.3573645,59.7466156 25.6377725,59.8308504 25.1271978,59.449515 C24.6166232,59.0681795 24.4931419,58.3542744 24.84597,57.8235998 L24.84597,57.8235998 L29.1781841,52.0273133 C29.3682539,51.7717613 29.6521127,51.6022449 29.9672383,51.5561015 C30.2823639,51.5099581 30.6029077,51.5909727 30.8582671,51.7813011 L30.8582671,51.7813011 L31.2842882,52.0993169 L32.7423602,40.8547611 C32.8863673,37.39259 33.6844068,35.2624848 35.1424788,34.3384391 C35.8331712,33.8939551 36.6835808,33.7734073 37.4705939,34.0084228 C38.4088836,34.1905767 39.2323185,34.7474788 39.7507066,35.550499 C40.4045242,36.6946318 40.7343453,37.9952474 40.7047537,39.3126849 L40.7047537,39.3126849 Z M52.8553542,29.0401773 C52.3743119,28.6642929 51.6800224,28.7473932 51.3012774,29.2261864 L51.3012774,29.2261864 L40.0267202,44.2269278 L39.9787178,44.2809305 C39.7379639,44.5682386 39.3767896,44.7265484 39.0023613,44.7088867 C38.6279331,44.691225 38.2832642,44.4996207 38.0706235,44.190926 C37.7646084,43.6328984 37.9926197,42.9548649 38.0706235,42.3908371 C38.2382464,41.3997354 38.3185585,40.3958341 38.3106354,39.3906888 C38.3541824,38.5196249 38.1613678,37.6529958 37.7526078,36.8825648 C37.5005954,36.4985459 36.8285622,36.0785251 36.3845402,36.3965408 C36.1265275,36.58255 35.2744854,37.4585933 35.1064771,41.0227694 L35.1064771,41.0227694 L35.1064771,41.1187742 L33.4923973,53.7493984 L45.2589788,62.5038311 C47.7127977,60.4582975 49.9725009,58.1905598 52.0093124,55.7294963 L52.0093124,55.7294963 L56.8095496,49.3391804 C56.981289,49.111143 57.0527804,48.8230107 57.0075594,48.541141 C56.9664288,48.2306122 56.7993414,47.9506866 56.5455366,47.7671028 C56.0644943,47.3912184 55.3702048,47.4743187 54.9914598,47.9531119 L54.9914598,47.9531119 L51.3912819,52.7173474 C50.991781,53.2456048 50.2398505,53.350338 49.7111988,52.951359 C49.1445489,52.5322401 48.9978943,51.7465907 49.3751822,51.15127 L49.3751822,51.15127 L54.3194266,44.6049465 C54.4905303,44.3766069 54.5619543,44.0887467 54.5174364,43.806907 C54.4785894,43.4985474 54.316171,43.2191877 54.0674141,43.0328688 C53.610929,42.6776291 52.9581662,42.7324611 52.56734,43.158875 L52.56734,43.158875 L52.081316,43.806907 L47.5210906,49.8732068 C47.1143651,50.3777839 46.3804916,50.4682703 45.8633826,50.0776017 C45.3462735,49.6869331 45.2327703,48.9562656 45.606996,48.4271354 L45.606996,48.4271354 L50.5812418,41.8208089 L50.6952475,41.6888024 L51.9973118,39.960717 C52.3374559,39.4630488 52.2262255,38.7858954 51.7447545,38.4231873 C51.2632834,38.0604791 50.581725,38.1403982 50.1972229,38.6046499 L50.1972229,38.6046499 L43.8549094,47.0050651 C43.4605586,47.5667664 42.6855252,47.7024309 42.1238239,47.3080801 C41.5621225,46.9137293 41.4264581,46.1386959 41.8208089,45.5769945 L41.8208089,45.5769945 L53.1073667,30.5762532 C53.2749563,30.353148 53.3462635,30.0722408 53.3053765,29.7962146 C53.2619325,29.4943652 53.0999759,29.2222781 52.8553542,29.0401773 Z M30.2443543,59.2880236 C30.6408158,58.7569038 31.3927691,58.6477418 31.9238888,59.0442034 C32.4550086,59.4406649 32.5641706,60.1926182 32.1677091,60.7237379 C31.7712475,61.2548577 31.0192943,61.3640197 30.4881745,60.9675582 C29.9570547,60.5710966 29.8478927,59.8191434 30.2443543,59.2880236 Z M58.2076187,1.38555833e-13 C58.8834041,1.38555833e-13 59.5312876,0.269498668 60.0077077,0.748779059 L60.0077077,0.748779059 L76.0645012,16.8055726 C76.5437816,17.2819927 76.8132803,17.9298762 76.8132803,18.6056616 C76.8132803,19.2814469 76.5437816,19.9293304 76.0645012,20.4057505 L76.0645012,20.4057505 L60.0317089,36.4685444 C59.5552887,36.9478248 58.9074053,37.2173234 58.2316199,37.2173234 C57.5558346,37.2173234 56.9079511,36.9478248 56.431531,36.4685444 L56.431531,36.4685444 L56.1435167,36.1805301 C55.9673503,35.8917648 55.7665958,35.6187388 55.5434871,35.3644898 L55.5434871,35.3644898 L56.9115547,33.5644008 L58.111614,34.7644602 C58.1651278,34.816281 58.2501097,34.816281 58.3036235,34.7644602 L58.3036235,34.7644602 L74.3664173,18.7016663 C74.4182382,18.6481525 74.4182382,18.5631706 74.3664173,18.5096568 L74.3664173,18.5096568 L58.3036235,2.44686298 C58.2501097,2.39504211 58.1651278,2.39504211 58.111614,2.44686298 L58.111614,2.44686298 L42.0488202,18.5096568 C41.9969993,18.5631706 41.9969993,18.6481525 42.0488202,18.7016663 L42.0488202,18.7016663 L48.5771428,25.2059878 C48.1555739,25.5272213 47.7800561,25.9047579 47.4610876,26.3280432 L47.4610876,26.3280432 L46.9510624,27.0060767 L40.3507362,20.4057505 C39.8714558,19.9293304 39.6019572,19.2814469 39.6019572,18.6056616 C39.6019572,17.9298762 39.8714558,17.2819927 40.3507362,16.8055726 L40.3507362,16.8055726 L56.4075298,0.748779059 C56.8839499,0.269498668 57.5318334,1.38555833e-13 58.2076187,1.38555833e-13 Z M18.6056616,3.90798505e-14 C19.2814469,3.90798505e-14 19.9293304,0.269498668 20.4057505,0.748779059 L20.4057505,0.748779059 L36.4625441,16.8055726 C36.9418245,17.2819927 37.2113231,17.9298762 37.2113231,18.6056616 C37.2113231,19.2814469 36.9418245,19.9293304 36.4625441,20.4057505 L36.4625441,20.4057505 L20.4057505,36.4625441 C19.9293304,36.9418245 19.2814469,37.2113231 18.6056616,37.2113231 C17.9298762,37.2113231 17.2819927,36.9418245 16.8055726,36.4625441 L16.8055726,36.4625441 L0.748779059,20.4057505 C0.269498668,19.9293304 2.66453526e-13,19.2814469 2.66453526e-13,18.6056616 C2.66453526e-13,17.9298762 0.269498668,17.2819927 0.748779059,16.8055726 L0.748779059,16.8055726 L16.8055726,0.748779059 C17.2819927,0.269498668 17.9298762,3.90798505e-14 18.6056616,3.90798505e-14 Z M18.7016663,2.44686298 C18.6481525,2.39504211 18.5631706,2.39504211 18.5096568,2.44686298 L18.5096568,2.44686298 L2.44686298,18.5096568 C2.39504211,18.5631706 2.39504211,18.6481525 2.44686298,18.7016663 L2.44686298,18.7016663 L18.5096568,34.7644602 C18.5631706,34.816281 18.6481525,34.816281 18.7016663,34.7644602 L18.7016663,34.7644602 L34.7644602,18.7016663 C34.816281,18.6481525 34.816281,18.5631706 34.7644602,18.5096568 L34.7644602,18.5096568 Z M23.1598866,12.3533526 C23.4632201,12.0500191 23.9053383,11.9315538 24.3196995,12.0425816 C24.7340608,12.1536094 25.0577138,12.4772623 25.1687415,12.8916236 C25.2797693,13.3059848 25.1613041,13.748103 24.8579706,14.0514365 L24.8579706,14.0514365 L20.3037455,18.6056616 L24.8579706,23.1598866 C25.3268835,23.6287996 25.3268835,24.3890576 24.8579706,24.8579706 C24.3890576,25.3268835 23.6287996,25.3268835 23.1598866,24.8579706 L23.1598866,24.8579706 L18.6056616,20.3037455 L14.0574368,24.8519703 C13.8323438,25.0773139 13.5269017,25.2039316 13.2083948,25.2039316 C12.889888,25.2039316 12.5844459,25.0773139 12.3593529,24.8519703 C11.8923976,24.3855539 11.8897169,23.629603 12.3533526,23.1598866 L12.3533526,23.1598866 L16.9075776,18.6056616 L12.3533526,14.0514365 C11.8844397,13.5825236 11.8844397,12.8222655 12.3533526,12.3533526 C12.8222655,11.8844397 13.5825236,11.8844397 14.0514365,12.3533526 L14.0514365,12.3533526 L18.6056616,16.9075776 Z M63.9439022,13.5594122 C64.2461639,13.2550068 64.6878634,13.1349794 65.102617,13.244543 C65.5173705,13.3541066 65.8421672,13.6766159 65.9546591,14.0905848 C66.067151,14.5045537 65.9502481,14.9470905 65.6479864,15.2514958 L65.6479864,15.2514958 L57.3195748,23.651911 C57.0940859,23.8787458 56.7873753,24.0061819 56.4675327,24.0059288 L56.4675327,24.0059288 L56.3308069,23.9968726 C56.0599486,23.9633148 55.8070597,23.83812 55.6154906,23.6399104 L55.6154906,23.6399104 L51.9433091,19.8057209 C51.6230456,19.5015444 51.4957598,19.0460277 51.6119509,18.6198919 C51.7281421,18.1937561 52.0690263,17.8658917 52.4993617,17.7663752 C52.9296971,17.6668587 53.3799143,17.8117783 53.6713946,18.1436387 L53.6713946,18.1436387 L56.4915339,21.083784 Z" id="Combined-Shape"></path>
            </g>
        </g>
    </g>
</svg>