<?xml version="1.0" encoding="UTF-8"?>
<svg width="292px" height="300px" viewBox="0 0 292 300" version="1.1" xmlns="http://www.w3.org/2000/svg" xmlns:xlink="http://www.w3.org/1999/xlink">
    <!-- Generator: Sketch 54 (76480) - https://sketchapp.com -->
    <title>pattern/EmptyState-ExamSetup</title>
    <desc>Created with Sketch.</desc>
    <g id="pattern/EmptyState-ExamSetup" stroke="none" stroke-width="1" fill="none" fill-rule="evenodd">
        <g transform="translate(0.000000, 0.000000)" fill-rule="nonzero">
            <path d="M256.219071,233.27824 C302.339692,179.596591 298.282621,99.1839686 246.993141,50.4169679 C195.703662,1.64996722 115.188758,1.64996722 63.8992791,50.4169679 C12.6097997,99.1839686 8.55272856,179.596591 54.6733496,233.27824 L256.219071,233.27824 Z" id="Path_1" fill="#E2E6EE"></path>
            <g id="Group_2" transform="translate(49.089242, 264.316137)" fill="#E2E6EE">
                <g id="Group_1">
                    <ellipse id="Ellipse_1" cx="27.6396088" cy="8.33545232" rx="27.2237164" ry="6.1797066"></ellipse>
                    <path d="M200.611247,14.3699267 C194.939853,14.3699267 189.535452,14.5378973 184.610024,14.8408313 C188.047188,13.8828851 190.001222,12.7870416 190.001222,11.6178484 C190.001222,7.89022005 170.090465,4.86968215 145.52934,4.86968215 C120.968215,4.86968215 101.056724,7.89168704 101.056724,11.6178484 C101.056724,15.3440098 120.967482,18.3660147 145.52934,18.3660147 C151.833007,18.3660147 157.825672,18.1657702 163.25868,17.8070905 C160.563081,18.6190709 159.044743,19.5315403 159.044743,20.4968215 C159.044743,23.8811736 177.655012,26.6244499 200.611247,26.6244499 C223.567482,26.6244499 242.178484,23.8811736 242.178484,20.4968215 C242.178484,17.1124694 223.569682,14.3699267 200.611247,14.3699267 Z" id="Path_2"></path>
                    <path d="M80.6897311,17.8239609 C79.8672372,17.8239609 79.0508557,17.8288509 78.2405868,17.8386308 C79.8183374,17.1132029 80.6897311,16.3268949 80.6897311,15.5046455 C80.6897311,11.8745721 63.8486553,8.93178484 43.0745721,8.93178484 C22.300489,8.93178484 5.4594132,11.8745721 5.4594132,15.5046455 C5.4594132,19.1200489 22.1669927,22.0525672 42.8266504,22.0760391 C39.0792176,23.3332518 36.9227384,24.7899756 36.9227384,26.3508557 C36.9227384,31.0606357 56.5180929,34.8777506 80.6897311,34.8777506 C104.861369,34.8777506 124.456724,31.0635697 124.456724,26.3508557 C124.456724,21.6381418 104.861369,17.8239609 80.6897311,17.8239609 Z" id="Path_3"></path>
                    <ellipse id="Ellipse_2" cx="232.151589" cy="8.23276284" rx="8.98533007" ry="2.50929095"></ellipse>
                    <path d="M217.175795,3.84792176 C217.175795,4.41124694 215.369927,4.86821516 213.141565,4.86821516 C210.913203,4.86821516 209.107335,4.41124694 209.107335,3.84792176 C209.107335,3.28459658 210.913936,2.82836186 213.141565,2.82836186 C215.369193,2.82836186 217.175795,3.28459658 217.175795,3.84792176 Z" id="Path_4"></path>
                    <ellipse id="Ellipse_3" cx="89.5386308" cy="5.54816626" rx="4.4405868" ry="1.28361858"></ellipse>
                    <path d="M109.841076,1.18679707 C109.841076,1.72224939 108.588998,2.15574572 107.044254,2.15574572 C105.499511,2.15574572 104.248166,1.72224939 104.248166,1.18679707 C104.248166,0.651344743 105.500244,0.217848411 107.044254,0.217848411 C108.588264,0.217848411 109.841076,0.65207824 109.841076,1.18679707 Z" id="Path_5"></path>
                </g>
            </g>
            <g id="Group_3" transform="translate(5.079462, 203.435941)">
                <path d="M44.4256724,62.3831296 C40.1266504,50.0603912 35.7777506,37.6327628 28.9811736,26.491687 C22.1845966,15.3506112 12.6579462,5.44694377 0.571393643,0.52591687 C4.69437653,16.192665 8.75134474,32.7095355 19.3665037,44.9464548 C26.1740831,52.791198 35.1513447,57.6997555 44.4256724,62.3831296 Z" id="Path_6" fill="#8DC63F"></path>
                <path d="M40.1222494,52.2066015 C37.390709,47.1051345 34.5828851,42.0418093 31.593154,37.0863081 C29.9354523,34.3396088 28.2168704,31.6305623 26.4374083,28.9591687 C22.6085575,23.2378973 18.2493888,17.5628362 12.1760391,14.3229829 C14.5833741,20.6823961 16.9914425,27.0447433 19.6643032,33.2977995 C21.7606357,38.2026895 24.0396088,43.0753056 27.1929095,47.3809291 C29.8297493,50.8765789 32.8800542,54.0401773 36.2772616,56.8026895 C37.9643032,58.2146699 39.7129584,59.5555012 41.4850856,60.8611247 C41.5085575,60.8787286 41.5349633,60.9007335 41.5584352,60.9190709 C42.5114914,61.4119804 43.4684597,61.900978 44.4293399,62.3860636 C43.7246944,60.3650367 43.0156479,58.3435208 42.3022005,56.3215159 C41.5755501,54.9474328 40.8488998,53.5757946 40.1222494,52.2066015 Z" id="Path_7" fill="#7CB332"></path>
            </g>
            <g id="Group_4" transform="translate(0.678484, 240.844254)">
                <path d="M44.2298289,21.8295844 C37.9503667,16.1684597 31.6100244,10.4603912 24.2787286,6.25012225 C16.9474328,2.0398533 8.45207824,-0.62200489 0.0535452323,0.34400978 C7.27334963,7.9599022 14.7234719,16.0797066 24.5625917,19.7259169 C30.8750611,22.0643032 37.5036675,22.0569682 44.2298289,21.8295844 Z" id="Path_8" fill="#8DC63F"></path>
                <path d="M38.6149144,17.3897311 C35.4748166,15.3418093 32.306846,13.3400978 29.0618582,11.4564792 C27.2647922,10.4119804 25.4447433,9.40806846 23.6017115,8.44474328 C19.6452323,6.39095355 15.4012225,4.5205379 10.9422983,4.57114914 C14.290709,7.43178484 17.6398533,10.2982885 21.1056235,13.0188264 C23.7678395,15.2270327 26.6737423,17.1236953 29.7667482,18.6718826 C32.3530844,19.8378404 35.0711866,20.6860775 37.8616137,21.198044 C39.2603912,21.4738386 40.6701711,21.691687 42.0828851,21.8816626 L42.1422983,21.8919315 C42.8376528,21.8753056 43.5337408,21.8552567 44.2305623,21.8317848 C43.2007335,20.9026895 42.1677262,19.9755501 41.1315403,19.0503667 C40.2943765,18.4938875 39.4555012,17.9403423 38.6149144,17.3897311 Z" id="Path_9" fill="#7CB332"></path>
            </g>
            <g id="Group_5" transform="translate(24.883863, 188.032518)">
                <path d="M16.3180929,46.9511002 C16.0114914,38.501956 15.6938875,29.9779951 13.6158924,21.7826406 C11.5378973,13.5872861 7.53300733,5.63691932 0.993154034,0.279462103 C0.553056235,10.7647922 -0.0938875306,21.7635697 4.13838631,31.3672372 C6.85305623,37.5264059 11.4726161,42.2801956 16.3180929,46.9511002 Z" id="Path_10" fill="#8DC63F"></path>
                <path d="M15.597066,39.8288509 C14.8811736,36.1488998 14.1102689,32.4784841 13.2066015,28.8396088 C12.705868,26.8224939 12.1596577,24.8176039 11.5679707,22.8249389 C10.2909535,18.5523227 8.67726161,14.20489 5.53716381,11.0391198 C5.81222494,15.4356968 6.08728606,19.8344743 6.54645477,24.2156479 C6.81379578,27.6643047 7.47481768,31.0710531 8.51662592,34.3694377 C9.48075939,37.037256 10.7644323,39.5784948 12.3396088,41.9376528 C13.1149144,43.1347188 13.9400978,44.298044 14.7872861,45.4452323 C14.7982885,45.4606357 14.8100244,45.4789731 14.8217604,45.4943765 C15.3171149,45.9833741 15.8158924,46.4691932 16.3180929,46.9518337 C16.2674817,45.5662592 16.2168704,44.1784841 16.1581907,42.790709 C15.9733496,41.8026895 15.7885086,40.8154034 15.597066,39.8288509 Z" id="Path_11" fill="#7CB332"></path>
            </g>
            <g id="Group_6" transform="translate(188.453545, 202.702445)">
                <path d="M1.07383863,46.3437653 C6.12249389,39.5618582 11.2100244,32.7154034 14.7168704,25.0224939 C18.2237164,17.3295844 20.0772616,8.62298289 18.3293399,0.350611247 C11.4227384,8.25256724 4.03569682,16.4281174 1.32689487,26.5665037 C-0.41002445,33.0696822 0.2200489,39.6682152 1.07383863,46.3437653 Z" id="Path_12" fill="#8DC63F"></path>
                <path d="M4.96870416,40.3378973 C6.71369193,37.0195599 8.40953545,33.6740831 9.98215159,30.2706601 C10.8535452,28.3836186 11.6826406,26.4765281 12.4694377,24.5493888 C14.1469438,20.4176039 15.608802,16.0173594 15.1408313,11.5826406 C12.6036675,15.1841076 10.0650367,18.7870416 7.68117359,22.4919315 C5.73176749,25.3492298 4.11540524,28.4200228 2.86356968,31.6444988 C1.94602109,34.3285721 1.35689146,37.1138845 1.10904645,39.9396088 C0.962347188,41.3581907 0.879462103,42.7826406 0.822982885,44.2070905 C0.822982885,44.2254279 0.822982885,44.2481663 0.818581907,44.2672372 C0.899755501,44.9577017 0.984841076,45.6486553 1.07383863,46.3400978 C1.90171149,45.2281174 2.72811736,44.1129584 3.55305623,42.994621 C4.02738386,42.1119804 4.4992665,41.2264059 4.96870416,40.3378973 Z" id="Path_13" fill="#7CB332"></path>
            </g>
            <g id="Group_7" transform="translate(188.453545, 189.499511)">
                <path d="M4.76772616,42.4144254 C7.32836186,35.6017115 9.90586797,28.7266504 10.9753056,21.5281174 C12.0447433,14.3295844 11.503423,6.68508557 8.08679707,0.256723716 C4.25574572,8.43814181 0.0916870416,16.9599022 0.266992665,25.992176 C0.377750611,31.7867971 2.46894866,37.0958435 4.76772616,42.4144254 Z" id="Path_14" fill="#8DC63F"></path>
                <path d="M6.55819071,36.5185819 C7.21100244,33.3579462 7.81687042,30.1870416 8.30684597,26.997066 C8.57897311,25.2286064 8.81442543,23.4542787 9.00293399,21.6748166 C9.40635697,17.8606357 9.56772616,13.8696822 8.12273839,10.3129584 C6.88166259,13.896088 5.6405868,17.4806846 4.55061125,21.1129584 C3.61861706,23.9410335 3.01297381,26.8663815 2.74547677,29.8320293 C2.62563273,32.2707116 2.8017328,34.7149313 3.26992665,37.1112469 C3.48997555,38.3193154 3.75696822,39.5171149 4.04963325,40.705379 C4.05330073,40.7215159 4.05696822,40.7405868 4.0606357,40.7567237 C4.29242054,41.308313 4.52738386,41.8596577 4.76552567,42.4107579 C5.18508557,41.2933985 5.60293399,40.1740831 6.0190709,39.0528117 C6.20195599,38.209291 6.38166259,37.3645477 6.55819071,36.5185819 Z" id="Path_15" fill="#7CB332"></path>
            </g>
            <path d="M192.781174,88.1537897 C187.358648,80.9900755 180.316252,75.2127821 172.230807,71.29511 C170.675061,91.9877751 169.896088,112.811002 170.347922,133.553545 C175.917359,130.651834 181.385575,127.434719 186.025672,123.203178 C190.66577,118.971638 194.517359,113.65599 196.059902,107.567971 C197.822494,100.610024 196.562347,93.1657702 192.781174,88.1537897 Z" id="Path_16" fill="#1C75BC"></path>
            <path d="M173.281174,71.8232274 C172.707859,72.5097139 172.283258,73.307715 172.03423,74.1667482 C172.029095,74.1836186 172.026895,74.200489 172.022494,74.2173594 C171.854279,76.5601467 171.696822,78.904401 171.550122,81.2501222 L171.363081,105.861125 C171.33154,110.036186 171.321271,114.332274 172.86088,118.212469 C173.643349,120.092153 174.68633,121.85243 175.959169,123.441565 C176.658191,124.345232 178.461125,127.276284 179.925917,126.9022 C181.207335,126.575795 181.642298,122.501222 181.998044,121.327628 C182.685086,119.064059 183.445477,116.824694 184.279218,114.609535 C184.784561,113.481311 185.095782,112.275859 185.199756,111.04401 C185.155628,109.841313 184.90529,108.655126 184.459658,107.537164 C182.262836,100.943765 180.135697,94.2608802 179.493888,87.3366748 C179.192783,83.3927792 179.186164,79.4319217 179.474083,75.4870416 C177.489698,74.1354677 175.421203,72.9117168 173.281174,71.8232274 L173.281174,71.8232274 Z" id="Path_17" fill="#155F99"></path>
            <g id="Group_28" transform="translate(19.015892, 0.257457)">
                <path d="M48.6762836,31.3202934 C48.6762836,31.3202934 41.7572127,30.7591687 35.4308068,40.4779951 C51.9344743,36.7188264 60.8281174,39.8361858 60.8281174,39.8361858 C60.8281174,39.8361858 56.1454768,30.8757946 48.6762836,31.3202934 Z" id="Path_18" fill="#808285"></path>
                <path d="M91.7105134,32.4374083 C88.847576,29.0663874 86.4067909,25.3585319 84.4422983,21.396088 C87.403423,18.7877751 87.7056235,13.6070905 86.5276284,9.8405868 C85.220977,6.05302853 82.2977031,3.04266923 78.5501222,1.62542787 C74.8161409,0.255250134 70.7452744,0.0968916058 66.9161369,1.17286064 C62.2819071,2.3794621 57.8288509,5.27530562 55.9870416,9.69462103 C54.1452323,14.1139364 55.7420538,20.0457213 60.1180929,21.9924205 C57.9704156,27.8603912 55.0782396,33.6498778 51.0454768,38.4190709 C62.5899756,38.5158924 74.1381418,38.6134474 85.6782396,38.2804401 C87.5603912,38.2261614 89.5533007,38.1256724 91.1149144,37.0738386 C91.8535569,36.5709634 92.3414955,35.7758531 92.4553492,34.8895611 C92.5692029,34.0032691 92.2980713,33.1106482 91.7105134,32.4374083 Z M78.1701711,16.5330073 C76.0064624,17.9819058 73.2649946,18.2632792 70.8520782,17.2841076 C69.4130021,16.7640821 68.2251031,15.7169692 67.5286064,14.3545232 C66.9675044,13.0188605 66.9081096,11.5253924 67.3613692,10.1493888 C67.8091298,8.72624981 68.6788617,7.47281258 69.8552567,6.55525672 C71.4293399,5.30831296 79.3782396,3.19731051 81.196577,9.6806846 C81.9132029,12.2310513 80.2855746,15.0550122 78.1701711,16.5330073 Z" id="Path_19" fill="#BCBEC0"></path>
                <path d="M60.6469438,38.4894866 C62.1647157,32.8419538 64.2009973,27.3467191 66.7298289,22.0738386 C62.1677968,20.588315 59.0169499,16.4145191 58.8381418,11.6200489 C58.8457516,7.96644475 60.5921442,4.53466887 63.5413203,2.37799511 C60.2347188,3.90806846 57.3718826,6.36968215 55.9863081,9.69388753 C54.1422983,14.1139364 55.7413203,20.0449878 60.1173594,21.991687 C57.9696822,27.8596577 55.0775061,33.6491443 51.0447433,38.4183374 C54.2447433,38.4471883 57.4454768,38.4709046 60.6469438,38.4894866 Z" id="Path_20" fill="#D1D3D4"></path>
                <g id="Group_8" transform="translate(0.000000, 34.474328)">
                    <polygon id="Path_21" fill="#1C75BC" points="6.19657702 0.522982885 155.110269 0.522982885 174.140098 217.593154 27.0337408 235.329095"></polygon>
                    <path d="M116.887775,23.1968215 C116.887775,23.1968215 130.326161,18.2178484 125.969927,0.522982885 L107.344988,0.522982885 L116.887775,23.1968215 Z" id="Path_22" fill="#155F99"></path>
                    <polygon id="Path_23" fill="#519BD6" points="6.19657702 0.522982885 0.605867971 4.59682152 21.5706601 233.168949 27.0344743 235.329095"></polygon>
                    <path d="M174.140098,217.592421 L161.022249,67.9591687 L150.533252,9.67408313 L18.8427873,7.07237164 C18.8427873,7.07237164 17.4161369,178.494866 44.2716381,233.251834 L174.140098,217.592421 Z" id="Path_24" fill="#155F99"></path>
                </g>
                <path d="M21.4371638,45.7437653 L154.249144,43.3613692 C158.677995,108.771638 166.351834,173.95599 179.047922,238.274817 C134.8511,239.627384 90.4334963,245.802689 47.002445,254.106601 C34.8784841,210.07335 21.4371638,84.800978 21.4371638,45.7437653 Z" id="Path_25" fill="#FFFFFF"></path>
                <path d="M111.190709,44.1337408 L116.887775,57.6711491 C122.460976,55.2253049 126.244106,49.9202482 126.740831,43.8542787 L111.190709,44.1337408 Z" id="Path_26" fill="#E6E7E8"></path>
                <path d="M62.9574572,32.9735941 L91.1002445,31.692176 C89.2630187,29.4496212 87.6076444,27.0640573 86.1498778,24.5581907 C82.9415491,24.8277442 79.7768644,25.4792969 76.7229829,26.499022 C71.9219721,28.1730509 67.3085349,30.3429667 62.9574572,32.9735941 L62.9574572,32.9735941 Z" id="Path_27" fill="#808285"></path>
                <g id="Group_9" transform="translate(48.410758, 28.606357)">
                    <path d="M7.52420538,29.0229829 L68.4777506,29.0647922 C71.6867971,22.1149144 70.2872861,13.7655257 67.7281174,6.2200489 C66.9010527,3.75160916 64.6963193,2.00294815 62.104401,1.7596577 C41.5225093,-0.281754829 20.7746271,0.0384201827 0.265525672,2.71393643 C7.05330073,6.29046455 8.12567237,19.2381418 7.52420538,29.0229829 Z" id="Path_28" fill="#BCBEC0"></path>
                    <path d="M69.3696822,11.9721271 L6.33594132,12.1481663 C7.25632902,16.0514637 7.70306919,20.0514382 7.66650367,24.0616137 L70.0540342,23.7322738 C70.5608203,19.8038321 70.3287159,15.8152692 69.3696822,11.9721271 L69.3696822,11.9721271 Z" id="Path_29" fill="#D1D3D4"></path>
                    <path d="M35.3215159,1.85574572 C31.5924205,1.93422983 27.7738386,2.18361858 24.3564792,3.67848411 C23.7454768,3.94547677 23.0501222,4.4391198 23.1726161,5.09486553 C23.2789731,5.66405868 23.9332518,5.9207824 24.4929095,6.06821516 C33.0784841,8.32371638 42.0535452,8.22102689 50.8408313,7.57188264 C52.5674817,7.44425428 61.4244499,7.69657702 61.0511002,5.34278729 C60.5515892,2.19828851 52.8506112,2.57603912 50.6831296,2.38166259 C45.5761739,1.92376113 40.4478305,1.74818829 35.3215159,1.85574572 L35.3215159,1.85574572 Z" id="Path_30" fill="#D1D3D4"></path>
                    <ellipse id="Ellipse_4" fill="#D1D3D4" cx="16.3136919" cy="5.13594132" rx="4.26308068" ry="1.65036675"></ellipse>
                </g>
                <g id="Group_10" transform="translate(119.559902, 76.283619)" fill="#BCBEC0">
                    <path d="M29.1682152,29.8958435 L5.04718826,31.1178484 L0.435696822,1.86894866 L24.5567237,0.646943765 L29.1682152,29.8958435 Z M7.53374083,28.0540342 L25.7618582,27.1305623 L22.0694377,3.71075795 L3.84205379,4.63422983 L7.53374083,28.0540342 Z" id="Path_31"></path>
                </g>
                <g id="Group_11" transform="translate(126.894866, 127.628362)" fill="#BCBEC0">
                    <path d="M29.193154,29.5687042 L5.06625917,30.6806846 L0.59193154,1.41418093 L24.7188264,0.302933985 L29.193154,29.5687042 Z M7.56748166,27.6278729 L25.7992665,26.7880196 L22.2146699,3.35134474 L3.98215159,4.19119804 L7.56748166,27.6278729 Z" id="Path_32"></path>
                </g>
                <g id="Group_12" transform="translate(136.430318, 178.239609)" fill="#BCBEC0">
                    <path d="M5.01198044,31.3202934 L0.0190709046,2.13374083 L24.1224939,0.593398533 L29.1198044,29.7799511 L5.01198044,31.3202934 Z M3.46136919,4.85427873 L7.4596577,28.2242054 L25.6723716,27.0608802 L21.6740831,3.69095355 L3.46136919,4.85427873 Z" id="Path_33"></path>
                </g>
                <g id="Group_17" transform="translate(31.540342, 81.418093)">
                    <g id="Group_13" transform="translate(1.466993, 6.601467)" fill="#808285">
                        <path d="M2.44180929,6.61613692 C1.42906219,6.63213832 0.595096759,5.82411629 0.579095355,4.81136919 C0.56309395,3.7986221 1.37111598,2.96465666 2.38386308,2.94865526 L78.3843521,0.517848411 C79.0394846,0.49688412 79.6560363,0.827021379 80.0017582,1.38390067 C80.34748,1.94077995 80.3698486,2.63979805 80.0604379,3.21764158 C79.7510272,3.79548511 79.156844,4.16436588 78.5017115,4.18533007 L2.50122249,6.61540342 L2.44180929,6.61613692 Z" id="Path_34"></path>
                    </g>
                    <g id="Group_14" transform="translate(2.933985, 14.669927)" fill="#808285">
                        <path d="M2.44400978,6.2405868 C1.43126273,6.25658813 0.597297378,5.44856611 0.581295975,4.43581907 C0.565294571,3.42307202 1.37331653,2.58910661 2.38606357,2.57310513 L78.3865526,0.146699267 C79.0416851,0.125735027 79.6582368,0.455872298 80.0039586,1.01275157 C80.3496804,1.56963083 80.372049,2.26864889 80.0626383,2.8464924 C79.7532276,3.4243359 79.1590445,3.79321669 78.503912,3.81418093 L2.50415648,6.24498778 L2.44400978,6.2405868 Z" id="Path_35"></path>
                    </g>
                    <g id="Group_15" transform="translate(4.400978, 23.471883)" fill="#808285">
                        <path d="M2.44621027,5.13447433 C1.43346317,5.15027318 0.599661935,4.34208695 0.583863081,3.32933985 C0.568064226,2.31659276 1.37625046,1.48279152 2.38899756,1.46699267 L40.3885086,0.252322738 C41.4012557,0.219914831 42.2485212,1.01463677 42.2809291,2.02738386 C42.313337,3.04013096 41.5186151,3.88739649 40.505868,3.9198044 L2.50635697,5.13447433 L2.44621027,5.13447433 Z" id="Path_36"></path>
                    </g>
                    <g id="Group_16" fill="#8DC63F">
                        <path d="M2.21882641,5.56723716 C1.20607931,5.58303602 0.372278072,4.77484979 0.356479218,3.76210269 C0.340680363,2.74935559 1.1488666,1.91555436 2.16161369,1.8997555 L40.1611247,0.684352078 C41.1738718,0.651741622 42.0213015,1.44629936 42.053912,2.45904645 C42.0865224,3.47179355 41.2919647,4.31922328 40.2792176,4.35183374 L2.27897311,5.56723716 L2.21882641,5.56723716 Z" id="Path_37"></path>
                    </g>
                </g>
                <g id="Group_22" transform="translate(41.075795, 134.229829)">
                    <g id="Group_18" transform="translate(2.200489, 4.400978)" fill="#808285">
                        <path d="M2.45134474,11.0435208 C1.47523662,11.0387008 0.673990897,10.2700664 0.628638994,9.29500047 C0.583287092,8.31993457 1.30972705,7.48024498 2.28117359,7.38484108 L77.9838631,0.236919315 C78.9921541,0.141721088 79.8867089,0.88192904 79.9819071,1.89022005 C80.0771053,2.89851106 79.3368974,3.79306583 78.3286064,3.88826406 L2.62591687,11.0354523 C2.56789815,11.0410657 2.5096339,11.0437585 2.45134474,11.0435208 Z" id="Path_38"></path>
                    </g>
                    <g id="Group_19" transform="translate(4.400978, 11.735941)" fill="#808285">
                        <path d="M2.19535452,11.2958435 C1.21636613,11.2949617 0.410721031,10.5252165 0.36524494,9.54728456 C0.319768848,8.56935257 1.05050174,7.72816231 2.02518337,7.63643032 L77.7278729,0.489242054 C78.3868941,0.414672882 79.0348205,0.701767419 79.4222949,1.24003609 C79.8097692,1.77830476 79.8763969,2.48384902 79.5965359,3.0851371 C79.3166749,3.68642518 78.7339464,4.08973587 78.0726161,4.1398533 L2.36992665,11.2877751 C2.31124694,11.2958435 2.25256724,11.2958435 2.19535452,11.2958435 Z" id="Path_39"></path>
                    </g>
                    <g id="Group_20" transform="translate(6.601467, 22.738386)" fill="#808285">
                        <path d="M1.9393643,7.8806846 C0.960375913,7.87980276 0.154730811,7.11005762 0.10925472,6.13212563 C0.0637786283,5.15419365 0.794511521,4.31300339 1.76919315,4.22127139 L39.6176039,0.646943765 C40.6258949,0.551948141 41.5202854,1.29232028 41.6152811,2.30061126 C41.7102768,3.30890223 40.9699047,4.20329278 39.9616137,4.29828851 L2.11320293,7.87261614 C2.05378973,7.87775061 1.99657702,7.8806846 1.9393643,7.8806846 Z" id="Path_40"></path>
                    </g>
                    <g id="Group_21" fill="#8DC63F">
                        <path d="M2.49022005,7.91369193 C1.51123166,7.9128101 0.705586557,7.14306496 0.660110466,6.16513297 C0.614634374,5.18720098 1.34536727,4.34601072 2.3200489,4.25427873 L40.1684597,0.6799511 C41.1767507,0.584752873 42.0713054,1.32496082 42.1665037,2.33325183 C42.2617019,3.34154284 41.5214939,4.23609762 40.5132029,4.33129584 L2.66479218,7.90562347 C2.60611247,7.91075795 2.54816626,7.91369193 2.49022005,7.91369193 Z" id="Path_41"></path>
                    </g>
                </g>
                <g id="Group_27" transform="translate(49.877751, 187.775061)">
                    <g id="Group_23" transform="translate(2.933985, 2.933985)" fill="#808285">
                        <path d="M1.899022,12.6205379 C0.925362738,12.6203627 0.121596732,11.8592729 0.0683547496,10.8870704 C0.0151127675,9.91486787 0.730960163,9.07055746 1.69877751,8.96405868 L77.2745721,0.581662592 C77.934784,0.491360369 78.5920213,0.766314244 78.9912583,1.29983473 C79.3904952,1.83335521 79.4688887,2.54146181 79.1960198,3.14939014 C78.923151,3.75731847 78.3419717,4.16937563 77.6779951,4.22567237 L2.10293399,12.608802 C2.03525004,12.6166836 1.96716327,12.6206023 1.899022,12.6205379 Z" id="Path_42"></path>
                    </g>
                    <g id="Group_24" transform="translate(4.400978, 11.002445)" fill="#808285">
                        <path d="M2.4997555,12.106357 C1.52609623,12.1061818 0.722330228,11.3450919 0.669088246,10.3728894 C0.615846264,9.40068694 1.33169366,8.55637653 2.299511,8.44987775 L77.8753056,0.0674816626 C78.5351996,-0.0223240237 79.1919094,0.252704803 79.5908683,0.785956113 C79.9898272,1.31920742 80.068311,2.02684355 79.7958963,2.63455679 C79.5234816,3.24227003 78.9429973,3.65451583 78.2794621,3.71149144 L2.70366748,12.094621 C2.63598544,12.1025245 2.56789738,12.1064432 2.4997555,12.106357 L2.4997555,12.106357 Z" id="Path_43"></path>
                    </g>
                    <g id="Group_25" transform="translate(6.601467, 22.738386)" fill="#808285">
                        <path d="M2.36699267,7.92176039 C1.3959704,7.91779607 0.596377848,7.15754941 0.543462959,6.18796189 C0.490548069,5.21837436 1.2026578,4.37562709 2.16748166,4.26601467 L39.9550122,0.0748166259 C40.6114136,-0.00778721374 41.2614189,0.269585443 41.6559539,0.800648723 C42.050489,1.331712 42.1283772,2.03411924 41.8597727,2.6387164 C41.5911682,3.24331357 41.0177208,3.65635184 40.3591687,3.7195599 L2.57163814,7.91075795 C2.50369577,7.91841138 2.43536397,7.92208513 2.36699267,7.92176039 L2.36699267,7.92176039 Z" id="Path_44"></path>
                    </g>
                    <g id="Group_26" fill="#8DC63F">
                        <path d="M2.54816626,8.0596577 C1.56568234,8.07198014 0.748081287,7.3077223 0.694188646,6.3266402 C0.640296004,5.3455581 1.36926609,4.49634427 2.34718826,4.400978 L40.1347188,0.209046455 C40.7942831,0.119760905 41.4504431,0.394872237 41.8491093,0.927847063 C42.2477755,1.46082189 42.3263476,2.16797019 42.0543994,2.77545772 C41.7824513,3.38294526 41.2026854,3.79538169 40.5396088,3.85305623 L2.75207824,8.04498778 C2.68445016,8.05383366 2.61636414,8.05873193 2.54816626,8.0596577 Z" id="Path_45"></path>
                    </g>
                </g>
                <path d="M118.794132,81.1026895 C124.035697,82.8234719 128.897311,85.1515892 132.867726,89.3376528 C138.019071,82.706846 142.662103,76.7031785 149.929584,71.5364303 C143.165392,79.6612721 137.816404,88.8662813 134.106601,98.7660147 C130.404399,91.7956658 125.168795,85.756262 118.794132,81.1026895 L118.794132,81.1026895 Z" id="Path_46" fill="#39B54A"></path>
                <path d="M126.220049,134.474083 C131.462347,136.194866 136.323227,138.522983 140.293643,142.709046 C145.444988,136.07824 150.088753,130.074572 157.355501,124.908557 C150.591123,133.032869 145.242336,142.237714 141.533252,152.137408 C137.830331,145.167331 132.594561,139.128026 126.220049,134.474083 L126.220049,134.474083 Z" id="Path_47" fill="#39B54A"></path>
                <path d="M135.430562,184.353301 C140.672127,186.07335 145.533007,188.401467 149.504156,192.587531 C154.655501,185.957457 159.298533,179.95379 166.566015,174.787042 C159.801572,182.911437 154.452554,192.11625 150.743032,202.015892 C147.040336,195.046085 141.80481,189.007023 135.430562,184.353301 L135.430562,184.353301 Z" id="Path_48" fill="#39B54A"></path>
            </g>
            <g id="Group_35" transform="translate(172.316626, 82.409046)">
                <path d="M26.8738386,180.282396 L12.203912,187.397311 C11.6303178,187.676039 10.9635697,188.105134 11.0149144,188.741809 C11.0765281,189.513447 12.0821516,189.747433 12.8559902,189.775306 L33.591198,190.516137 L33.591198,182.105868 C31.2959283,181.727904 29.0451717,181.116921 26.8738386,180.282396 L26.8738386,180.282396 Z" id="Path_49" fill="#FFFFFF"></path>
                <path d="M76.0789731,193.842543 C74.6728606,196.593154 68.2144254,199.250611 63.9953545,201.298533 C63.5002445,201.538386 62.9251834,201.909535 62.9684597,202.458191 C63.0220049,203.124205 63.8897311,203.32665 64.5579462,203.350122 C68.8657702,203.504156 75.7364303,203.658191 81.4672372,203.812225 C82.7142346,203.845376 83.8876333,203.223486 84.5602823,202.172941 C85.2329313,201.122396 85.3067126,199.796437 84.7547677,198.677751 L81.4540342,191.512958 C79.6122249,191.194621 77.8107579,194.556968 76.0789731,193.842543 Z" id="Path_50" fill="#FFFFFF"></path>
                <path d="M74.3860636,65.6193154 C66.604401,68.2929095 59.0853301,68.1704156 51.9344743,69.1488998 C50.6757946,70.909291 45.8464548,78.0242054 44.5855746,79.7845966 L64.7647922,82.3180929 C65.8482208,82.5181709 66.9582345,82.5278513 68.0449878,82.3466993 C69.6256434,81.8794271 71.0012252,80.8901459 71.9471883,79.5403423 C74.9391198,75.7422983 75.7408313,70.2572127 74.3860636,65.6193154 Z" id="Path_51" fill="#092942"></path>
                <path d="M38.4352078,55.1288509 C41.0515892,51.1246944 44.6596577,48.3506112 48.3110024,48.894132 C48.0176039,48.8501222 45.1929095,55.4222494 44.7586797,56.1682152 C43.4529249,58.4334681 41.9664344,60.5896151 40.3136919,62.6156479 C38.809306,64.4632676 37.1360612,66.1667162 35.3156479,67.703912 C34.797066,68.1381418 33.39022,69.7767726 32.9435208,68.4638142 C32.6611247,67.6327628 33.8552567,65.0948655 34.1281174,64.3298289 C35.203105,61.1065695 36.6484669,58.0189298 38.4352078,55.1288509 L38.4352078,55.1288509 Z" id="Path_52" fill="#092942"></path>
                <g id="Group_30">
                    <g id="Group_29">
                        <path d="M115.648166,17.5386308 L33.7166259,90.0652812 L20.7132029,75.3814181 L102.644743,2.85476773 C106.699654,-0.734800317 112.896669,-0.357810578 116.486553,3.69682152 L116.486553,3.69682152 C120.077045,7.75075049 119.701701,13.9476939 115.648166,17.5386308 L115.648166,17.5386308 Z" id="Path_53" fill="#FBB040"></path>
                        <polygon id="Path_54" fill="#F98C6E" points="20.7132029 75.3814181 0.415158924 106.447922 33.7158924 90.0652812"></polygon>
                        <polygon id="Rectangle_2" fill="#9C681C" transform="translate(64.711062, 49.532617) rotate(-41.514619) translate(-64.711062, -49.532617) " points="14.6338374 45.5889505 114.788286 45.5889505 114.788286 53.476283 14.6338374 53.476283"></polygon>
                        <polygon id="Path_55" fill="#39B54A" points="7.69511002 95.3061125 0.415158924 106.447922 12.3572127 100.572616"></polygon>
                        <path d="M102.648411,2.85476773 L94.3136919,10.2337408 L107.310513,24.9176039 L115.645232,17.5386308 C118.268252,15.2164481 119.453152,11.6712986 118.753593,8.23860578 C118.054033,4.80591293 115.576294,2.00718444 112.253715,0.896674243 C108.931136,-0.213835952 105.268496,0.532585067 102.645477,2.85476773 L102.648411,2.85476773 Z" id="Path_56" fill="#F98C6E"></path>
                        <polygon id="Rectangle_3" fill="#FFFFFF" transform="translate(99.234727, 18.973760) rotate(-41.519000) translate(-99.234727, -18.973760) " points="95.2921845 9.16801393 103.17727 9.16801393 103.17727 28.7795054 95.2921845 28.7795054"></polygon>
                    </g>
                    <path d="M115.648166,17.5386308 C117.597711,15.8161899 118.782056,13.3890175 118.940021,10.7923703 C119.097986,8.19572319 118.216595,5.6428837 116.49022,3.69682152 L0.415158924,106.447922 L33.7158924,90.0652812 L115.648166,17.5386308 Z" id="Path_57" fill="#231F20" opacity="0.25"></path>
                </g>
                <path d="M69.6264059,59.6427873 C71.5151589,63.0168704 71.6655257,72.2589242 70.8,76.0239609 C73.690709,76.5102689 76.9525672,71.9251834 79.8425428,72.4107579 C78.748968,68.9675702 78.4384713,65.3235567 78.9337408,61.7449878 C79.098044,60.5713936 79.3144254,59.2430318 78.5992665,58.2938875 C77.694132,57.0924205 75.8405868,57.2171149 74.4403423,57.7635697 C73.0400978,58.3100244 71.1256724,59.7586797 69.6264059,59.6427873 Z" id="Path_58" fill="#E67A5C"></path>
                <path d="M57.2046455,112.500733 C57.2046455,112.500733 39.0953545,129.364548 35.1865526,142.811736 C31.2777506,156.258924 25.7457213,178.998044 25.7457213,178.998044 L35.8378973,180.978484 L46.1875306,148.924694 L62.5672372,131.809291 C62.5672372,131.809291 63.3300733,114.952812 57.2046455,112.500733 Z" id="Path_59" fill="#092942"></path>
                <path d="M57.2046455,112.500733 C52.4766029,117.021455 48.0881873,121.884505 44.0750611,127.050367 C45.0601467,132.211247 46.2396088,137.344988 47.398533,142.376039 C47.7251834,143.789731 48.0608802,145.200978 48.4056235,146.60978 L62.5672372,131.809291 C62.5672372,131.809291 63.3300733,114.952812 57.2046455,112.500733 Z" id="Path_60" fill="#051D2E"></path>
                <path d="M76.1273839,116.192421 C75.2075795,118.639364 68.3479218,121.732518 65.7286064,122.239364 C63.4303883,122.562501 61.1187553,121.746437 59.5327628,120.052078 C57.9432763,118.450856 56.3699267,116.445477 56.3391198,114.217115 C55.8872861,81.1290954 62.0251834,74.1645477 67.60489,68.6537897 C72.4819071,63.8376528 79.0613692,64.7090465 82.7765281,70.3643032 C86.8841076,76.6188264 84.7122249,85.0613692 83.0655257,91.7677262 C80.8371638,100.845477 79.8388753,106.321027 76.1273839,116.192421 Z" id="Path_61" fill="#0E4066"></path>
                <path d="M69.2523227,103.979707 C75.6591813,95.0380583 79.1484667,84.3360631 79.2432763,73.3364303 C77.1051345,79.1310513 73.6547677,83.8650367 69.3968215,88.3437653 C68.7664434,89.0540604 68.0433253,89.6762726 67.2469438,90.193643 C64.9305623,91.5872861 61.9885086,91.2542787 59.3625917,90.6168704 C58.7831296,90.4767726 58.2,90.3234719 57.6176039,90.1767726 C57.1466993,93.2354523 56.7880196,96.7672372 56.5672372,100.859413 C60.7018329,102.24921 64.9448043,103.292901 69.2523227,103.979707 Z" id="Path_62" fill="#092942"></path>
                <path d="M72.5948655,134.796088 C75.0234719,127.339364 76.7860636,123.25599 76.5154034,115.150122 C63.9674817,118.969438 56.3222494,112.500733 56.3222494,112.500733 C54.3564792,130.420049 53.89511,140.029584 56.3156479,157.904156 C57.7371638,168.398289 68.3339853,183.63154 74.3061125,192.652078 C76.8799511,192.006601 78.0586797,191.483619 80.6325183,190.838142 C78.4151589,182.508557 74.3537897,167.471149 69.9425428,159.923472 C70.9811736,150.554523 69.6264059,143.91198 72.5948655,134.796088 Z" id="Path_63" fill="#092942"></path>
                <path d="M46.4303178,49.9555012 C48.4657702,48.2750611 52.3158924,47.3743276 54.7408313,48.4151589 C55.3643032,48.6836186 56.005379,49.1684597 56.0325183,49.8469438 C56.0662592,50.7161369 55.1149144,51.2574572 54.2919315,51.5405868 C51.7265855,52.4216671 49.0194412,52.8166818 46.309291,52.705379 C45.4555012,52.4618582 44.3977995,51.6381418 46.4303178,49.9555012 Z" id="Path_64" fill="#F98C6E"></path>
                <path d="M64.4831296,90.5867971 C65.2779467,90.6959417 66.0869403,90.6329032 66.8552567,90.401956 C68.003912,89.9618582 68.7234719,88.8359413 69.305868,87.7525672 C71.2364545,84.1565438 72.5568388,80.2650411 73.2132029,76.2366748 C73.6100244,73.797066 73.0166259,71.0119804 71.1520782,69.3894866 C66.4281269,73.1797654 63.3743331,78.6676434 62.6435208,84.6799511 C61.3753056,84.6440098 60.0374083,84.6212714 58.7112469,84.595599 C58.3041565,86.2555012 57.9359413,88.0863081 57.6190709,90.1378973 L64.4831296,90.5867971 Z" id="Path_65" fill="#092942"></path>
                <g id="Group_31" transform="translate(32.273839, 65.281174)">
                    <path d="M5.58337408,17.5943765 C4.98673552,16.6376543 4.10573477,15.8915608 3.06381418,15.4606357 C1.99437653,15.1268949 0.597066015,15.6293399 0.358679707,16.7237164 C0.0183374083,18.2875306 2.10660147,19.7662592 1.47872861,21.2391198 C1.299022,21.6616137 0.919804401,21.9726161 0.708557457,22.3782396 C0.365803627,23.2131312 0.567596811,24.1726665 1.21760391,24.7987775 C1.866138,25.3992166 2.63860571,25.8499271 3.4804401,26.1190709 C4.60538514,26.6383002 5.8255639,26.919246 7.06430318,26.9442543 C7.83005127,26.9538632 8.56693367,26.6523872 9.10635697,26.108802 C10.0848411,24.9887531 8.96919315,23.3112469 8.43594132,22.2366748 C7.62701092,20.6063937 6.67226478,19.0526296 5.58337408,17.5943765 Z" id="Path_66" fill="#F98C6E"></path>
                    <path d="M31.3151589,22.494132 C33.5545232,13.4427873 33.2757946,11.2459658 36.4775061,5.29584352 C37.6613994,3.35681275 39.4733041,1.88140464 41.6119804,1.11491443 C43.6797066,0.277261614 46.2330073,0.35794621 47.9493888,1.78459658 C49.2514619,2.97441787 50.0071034,4.6472262 50.0391198,6.41075795 C50.0601158,8.15580544 49.7855778,9.8918182 49.2271394,11.5452323 C45.8119804,23.1770171 44.0317848,24.8405868 36.9242054,34.6621027 C27.2332518,33.7547677 14.4344743,31.7449878 7.56161369,28.1215159 C6.16797066,27.3880196 6.07628362,25.0136919 6.91173594,23.6757946 C7.81687042,22.2271394 9.9007335,22.1992665 11.5789731,22.5124694 C16.9716381,23.5173594 23.0765281,22.6496333 31.3151589,22.494132 Z" id="Path_67" fill="#0E4066"></path>
                </g>
                <polygon id="Path_68" fill="#0E4066" points="25.2718826 176.81956 37.1611247 180.028606 35.8782396 184.062836 24.2457213 180.976284"></polygon>
                <polygon id="Path_69" fill="#0E4066" points="81.1129584 187.628362 72.5244499 191.5489 74.3977995 195.399022 82.7105134 191.548166"></polygon>
                <path d="M33.594132,190.519804 L33.594132,188.245966 L11.3611247,187.952567 C11.1324291,188.148979 11.0060017,188.439113 11.0178484,188.740342 C11.0794621,189.51198 12.0850856,189.745966 12.8589242,189.773839 L33.594132,190.519804 Z" id="Path_70" fill="#808285"></path>
                <path d="M63.6586797,201.481174 C63.2735941,201.715159 62.9354523,202.032763 62.9691932,202.458191 C63.0227384,203.124205 63.8904645,203.32665 64.5586797,203.350122 C68.8665037,203.504156 75.7371638,203.658191 81.4679707,203.812225 C83.2015472,203.861556 84.7176501,202.652641 85.0555012,200.951589 C77.9254279,201.207335 70.793154,201.383863 63.6586797,201.481174 Z" id="Path_71" fill="#808285"></path>
                <g id="Group_34" transform="translate(57.212714, 30.073350)">
                    <g id="Group_32">
                        <path d="M4.71418093,25.9334963 C4.4207824,28.2894866 4.72224939,31.9386308 6.3007335,33.7129584 C7.69677924,35.1092514 9.70558164,35.7024474 11.6361858,35.2885086 C13.5331868,34.8581415 15.3067159,33.9998527 16.8212714,32.7792176 C19.5077907,30.806763 21.8773941,28.4356755 23.8481663,25.7479218 C25.6819071,23.2415648 27.20978,20.0765281 26.2885086,17.1095355 C25.6129584,14.9347188 23.7293399,13.3268949 21.6909535,12.3132029 C19.2136816,11.0096579 16.3520532,10.6345244 13.6224939,11.2555012 C6.84352078,13.0180929 5.44327628,20.1234719 4.71418093,25.9334963 Z" id="Path_72" fill="#F98C6E"></path>
                        <path d="M22.1435208,24.8838631 C22.614857,22.7941452 22.2007252,20.6025411 20.9993578,18.8289021 C19.7979904,17.0552631 17.9164274,15.8576177 15.800978,15.5200489 C13.9246944,15.2200489 12.0176039,15.6161369 10.1354523,15.8809291 C8.25330073,16.1457213 6.25452323,16.2630807 4.53227384,15.4599022 C3.02186637,14.699115 1.84338002,13.410219 1.2205379,11.8378973 C0.609862816,10.2744821 0.334959899,8.60007338 0.413691932,6.92347188 C0.40541119,5.74374733 0.609904857,4.57219491 1.01735941,3.46503667 C1.43183754,2.35120872 2.227929,1.42048605 3.26405868,0.838386308 C4.70956812,0.0875108464 6.46626221,0.289908702 7.70313966,1.3498359 C8.94001711,2.40976309 9.40910757,4.11472443 8.88850856,5.65819071 C10.2250928,3.76996051 12.0870576,2.31609762 14.2430318,1.47726161 C15.5398533,0.947677262 17.200489,0.722493888 18.196577,1.70757946 C18.8012627,2.38046143 19.0481947,3.30168709 18.8611247,4.18679707 C18.667958,5.05753619 18.3161277,5.88526981 17.8232274,6.62860636 C19.8616567,4.60813648 22.7444296,3.68611822 25.5770171,4.14865526 C25.8956055,4.1758367 26.1974814,4.3029018 26.4396088,4.51173594 C26.7558912,4.96983059 26.7923233,5.56545254 26.5342298,6.05867971 C25.9876619,7.52949948 24.9240507,8.75086621 23.5422983,9.49437653 C25.6290954,10.3085575 27.8376528,11.2151589 29.1234719,13.0488998 C30.076198,14.5329544 30.4861803,16.3009062 30.2838631,18.0528117 C30.0203547,21.3465391 28.2373717,24.3294764 25.4611247,26.1212714 C24.8560995,26.5646589 24.1128594,26.7779048 23.3647922,26.7227384 C22.5618108,26.4922485 22.0445361,25.7133851 22.1435208,24.8838631 L22.1435208,24.8838631 Z" id="Path_73" fill="#092942"></path>
                        <path d="M23.494621,23.4432763 C23.934289,23.1883831 24.4535177,23.1075153 24.9498778,23.2166259 C25.4865412,23.4280587 25.8594014,23.9224667 25.9151589,24.496577 C25.9618842,25.0618509 25.8591856,25.6294757 25.6173594,26.1425428 C24.879749,27.9096491 23.5053999,29.3353073 21.7665037,30.1371638 C21.4314337,30.3456656 21.0155087,30.3769011 20.6530562,30.2207824 C19.7369193,29.6435208 20.0435208,27.1863081 20.4176039,26.3075795 C21.097619,25.0382814 22.1799427,24.0307787 23.494621,23.4432763 Z" id="Path_74" fill="#F98C6E"></path>
                    </g>
                    <path d="M14.4146699,21.808313 C13.9892421,22.8770171 13.1750611,23.5569682 12.5963325,23.3259169 C12.0176039,23.0948655 11.8929095,22.0422983 12.3183374,20.9743276 C12.7437653,19.906357 13.5579462,19.2256724 14.1366748,19.4559902 C14.7154034,19.6863081 14.8400978,20.7396088 14.4146699,21.808313 Z" id="Path_75" fill="#092942"></path>
                    <path d="M8.3398533,21.808313 C7.91442543,22.8770171 7.1002445,23.5569682 6.52151589,23.3259169 C5.94278729,23.0948655 5.81809291,22.0422983 6.24352078,20.9743276 C6.66894866,19.906357 7.48312958,19.2256724 8.06185819,19.4559902 C8.6405868,19.6863081 8.76528117,20.7396088 8.3398533,21.808313 Z" id="Path_76" fill="#092942"></path>
                    <path d="M7.50293399,25.5161369 C7.25461652,25.5804946 7.01480201,25.6740568 6.78850856,25.7948655 C6.5592842,25.9222412 6.42435976,26.1706508 6.44229829,26.4322738 C6.51643535,26.6866313 6.71532467,26.8855206 6.96968215,26.9596577 C7.78512136,27.2519232 8.69616394,27.0385905 9.29706601,26.4146699 C9.87715402,25.7814729 10.1202291,24.9094547 9.95134474,24.0674817 C9.90586797,23.8283619 9.72542787,23.3339853 9.40195599,23.5173594 C9.18190709,23.6420538 9.10855746,24.1496333 8.98239609,24.3616137 C8.63660829,24.9050703 8.11413379,25.3127921 7.50293399,25.5161369 L7.50293399,25.5161369 Z" id="Path_77" fill="#D1684B"></path>
                    <g id="Group_33" transform="translate(10.268949, 26.405868)" fill="#D1684B">
                        <path d="M1.27114914,3.56919315 C1.04440809,3.57023331 0.818276738,3.54562707 0.597066015,3.49584352 C0.464239473,3.47182185 0.355344153,3.3767794 0.313581017,3.24842142 C0.271817882,3.12006344 0.303938116,2.97913953 0.397198977,2.88155704 C0.490459838,2.78397455 0.629785319,2.7455081 0.7599022,2.78141809 C1.3925175,2.92609666 2.05678777,2.80486389 2.59751213,2.44604475 C3.13823649,2.08722561 3.50804598,1.52225365 3.6205379,0.883129584 C3.63884996,0.750003218 3.728503,0.637552131 3.85420456,0.590043386 C3.97990611,0.54253464 4.12152461,0.567576936 4.22331106,0.655312218 C4.3250975,0.7430475 4.37075043,0.879424643 4.34229829,1.01075795 C4.0811502,2.49999841 2.78233785,3.58265216 1.27041565,3.57139364 L1.27114914,3.56919315 Z" id="Path_78"></path>
                    </g>
                </g>
            </g>
            <path d="M197.754279,83.4623472 C195.598695,85.6340675 193.005889,87.3225173 190.147922,88.4156479 C184.261614,97.6613692 188.845966,98.8246944 193.632763,96.1943765 C195.53154,95.1503667 197.429829,94.105379 199.327628,93.0594132 C199.660911,92.9144075 199.946448,92.6781972 200.151345,92.3779951 C200.338002,91.8706061 200.305593,91.3084913 200.061858,90.8259169 C199.263081,88.5278729 199.568215,85.0833741 197.754279,83.4623472 Z" id="Path_79" fill="#E67A5C"></path>
            <path d="M175.417115,159.481907 C174.227579,161.151847 173.166582,162.909714 172.243276,164.740342 C172.001817,165.104767 171.908915,165.547755 171.983619,165.978484 C172.136032,166.364173 172.480685,166.640788 172.89022,166.706112 C173.293138,166.765373 173.703359,166.752957 174.101956,166.669438 C173.529095,168.700489 172.803667,171.983619 172.884352,172.460391 C172.942265,172.955108 173.318549,173.352876 173.809291,173.438142 C174.396088,173.480685 175.974572,171.245721 177.256724,169.017359 C178.201329,168.665848 179.105321,168.213606 179.953056,167.66846 C180.799662,167.128328 181.446457,166.326209 181.794866,165.384352 C182.155917,163.904395 181.822412,162.340571 180.888998,161.136675 C180.382386,160.358712 179.705077,159.706489 178.908557,159.229584 C178.103178,158.777017 176.319315,159.279462 175.417115,159.481907 Z" id="Path_80" fill="#F98C6E"></path>
            <path d="M196.769927,99.601467 C198.063814,120.781174 191.048655,143.956724 181.450856,163.030562 C179.052443,163.337359 176.615582,163.086343 174.330073,162.297066 C175.520538,145.667971 178.817604,129.243521 183.123961,113.137408 C183.857457,110.403667 184.664303,107.584841 186.483374,105.418093 C188.302445,103.251345 194.16088,98.5056235 196.769927,99.601467 Z" id="Path_81" fill="#1C75BC"></path>
            <g id="Group_38" transform="translate(192.854523, 67.739120)">
                <g id="Group_36">
                    <path d="M14.3361858,30.6432763 C12.3249389,32.1447433 8.75647922,33.8222494 6.16797066,33.4246944 C4.10626584,33.0353043 2.36871736,31.6552524 1.52273839,29.7352078 C0.792232452,27.9198132 0.529179822,25.9500711 0.757701711,24.0066015 C0.987995144,20.6686043 1.77643514,17.3928592 3.09022005,14.3156479 C4.32102689,11.4286064 6.34841076,8.45574572 9.65281174,7.66283619 C12.0733496,7.08190709 14.6897311,7.82713936 16.8476773,9.01760391 C19.4672257,10.3539425 21.5225171,12.5830232 22.6422983,15.3022005 C25.0525672,21.9843521 19.2909535,26.9427873 14.3361858,30.6432763 Z" id="Path_82" fill="#F98C6E"></path>
                    <path d="M2.9794621,14.509291 C6.96968215,15.6579462 10.0621027,15.0572127 12.0601467,11.200489 C13.0496333,15.7481663 21.6616137,31.2315403 29.9889976,23.8166259 C25.9026895,21.707824 26.1396088,17.4212714 24.7716381,13.2542787 C24.2700492,11.5302815 23.33579,9.96325098 22.0577017,8.70220049 C20.6726652,7.38116325 18.782454,6.72629325 16.8770171,6.90733496 C17.9712111,6.51082268 19.0283525,6.01870089 20.0361858,5.43667482 C20.3728606,5.24229829 20.7359413,4.98704156 20.7594132,4.62396088 C20.793154,4.09877751 20.1146699,3.7804401 19.5396088,3.69608802 C18.0796157,3.48157183 16.5945979,3.86181037 15.4173594,4.75158924 C14.9715652,3.18628703 13.9364975,1.85465947 12.5295844,1.03643032 C12.1795132,0.807142461 11.7820247,0.660184552 11.3669927,0.606601467 C10.9517319,0.551404072 10.5373954,0.714476271 10.2711491,1.03789731 C10.1081911,1.33501834 10.0643966,1.68301425 10.1486553,2.01124694 C10.3621804,3.29194705 10.9626853,4.47657477 11.8694377,5.40586797 C9.11735941,4.97163814 6.3594132,6.41295844 4.66870416,8.40366748 C2.97799511,10.3943765 2.14400978,12.8647922 1.34303178,15.2772616 C1.73325183,15.1540342 2.59070905,14.6317848 2.9794621,14.509291 Z" id="Path_83" fill="#092942"></path>
                    <path d="M5.44107579,13.393643 C5.40816134,12.8727035 5.17091541,12.3858221 4.7809291,12.0388753 C4.255918,11.6964945 3.59309316,11.6437447 3.0205379,11.8987775 C2.4799138,12.149559 2.0145444,12.5377883 1.67090465,13.0246944 C0.480774248,14.5500393 -0.0293269735,16.4978673 0.260391198,18.4107579 C0.274928669,18.8185496 0.496065232,19.1908882 0.847188264,19.3987775 C1.92909535,19.8696822 4.02762836,18.3066015 4.6195599,17.5224939 C5.38732123,16.2922773 5.6794537,14.8240508 5.44107579,13.393643 Z" id="Path_84" fill="#F98C6E"></path>
                </g>
                <path d="M12.3762836,20.2276284 C11.6383863,21.1555012 11.496088,22.2080685 12.0520782,22.5748166 C12.6080685,22.9415648 13.6657702,22.4904645 14.3992665,21.5625917 C15.1327628,20.6347188 15.2794621,19.5821516 14.7227384,19.2154034 C14.1660147,18.8486553 13.1141809,19.2997555 12.3762836,20.2276284 Z" id="Path_85" fill="#092942"></path>
                <path d="M16.000489,25.3789731 C15.2625917,26.306846 15.1202934,27.3594132 15.6770171,27.7261614 C16.2337408,28.0929095 17.290709,27.6418093 18.0242054,26.7139364 C18.7577017,25.7860636 18.904401,24.7334963 18.3476773,24.3667482 C17.7909535,24 16.7391198,24.4518337 16.000489,25.3789731 Z" id="Path_86" fill="#092942"></path>
                <path d="M13.0562347,28.0562347 C13.1442611,28.2993167 13.2004732,28.5527645 13.2234719,28.8102689 C13.2376291,29.0800519 13.0847025,29.3308516 12.8383863,29.4418093 C12.5580691,29.5147414 12.2597755,29.4529133 12.0315403,29.2745721 C11.2922709,28.7798075 10.9407067,27.8759945 11.1513447,27.0117359 C11.4191111,26.1557147 12.086823,25.4836244 12.9410758,25.2102689 C13.1904645,25.1222494 13.7574572,25.0129584 13.7794621,25.3848411 C13.7948655,25.6371638 13.3665037,25.9672372 13.2462103,26.191687 C12.9483196,26.7665014 12.8803956,27.4331529 13.0562347,28.0562347 Z" id="Path_87" fill="#D1684B"></path>
                <g id="Group_37" transform="translate(5.867971, 22.738386)" fill="#D1684B">
                    <path d="M0.643276284,4.2594132 C0.780324943,4.45402485 0.938772956,4.63264792 1.11564792,4.79193154 C1.27940291,4.93532446 1.52402007,4.93532446 1.68777506,4.79193154 C1.76287564,4.72627655 1.80547009,4.63103508 1.80434142,4.53128839 C1.80321274,4.43154171 1.75847408,4.33728844 1.68190709,4.27334963 C1.18461203,3.83269249 0.898849288,3.20086599 0.896332518,2.53643032 C0.918657926,1.87607967 1.2247611,1.25745718 1.73618582,0.839119804 C1.81492259,0.777850516 1.86281119,0.685119302 1.86718767,0.585448591 C1.87156414,0.48577788 1.83198771,0.389206133 1.75892421,0.321271394 C1.60211607,0.170228176 1.35760095,0.158928376 1.18753056,0.294865526 C-0.0312553782,1.25297627 -0.271915434,3.00441064 0.643276284,4.25574572 L0.643276284,4.2594132 Z" id="Path_88"></path>
                </g>
            </g>
            <g id="Group_42" transform="translate(40.287286, 168.961614)">
                <path d="M79.6195599,72.3872861 C81.2640471,72.0820218 82.9440786,72.01655 84.607335,72.1929095 C86.2909022,72.3828713 87.8097883,73.2923839 88.7721271,74.6867971 C89.8349633,76.4259169 89.5481663,78.6579462 89.003912,80.6229829 C87.9608802,84.39022 86.1220049,87.8845966 84.2545232,91.3166259 C79.8814181,99.3608802 75.2779951,107.277506 70.6760391,115.191932 C69.2823961,115.197066 67.6349633,115.362836 66.3139364,114.920538 C64.9508031,114.531216 63.863168,113.501617 63.3997555,112.161858 C63.2144518,111.19369 63.2541029,110.195888 63.5156479,109.245477 C65.1933985,100.656235 66.8711491,92.0672372 68.5488998,83.4784841 C69.09022,80.7080685 69.6814181,77.8246944 71.4161369,75.597066 C73.1508557,73.3694377 77.1374083,71.0413203 79.6195599,72.3872861 Z" id="Path_89" fill="#092942"></path>
                <path d="M85.4185819,89.1410758 C85.2485239,88.8898801 85.0923014,88.6295909 84.9506112,88.3613692 C83.2187719,84.9875302 82.1823749,81.3001519 81.902934,77.5180929 C81.7731136,75.716449 81.8222538,73.906372 82.0496333,72.1144254 C81.2383863,72.1687042 80.4264059,72.2772616 79.6217604,72.3872861 C79.2565894,72.1950109 78.8584342,72.0733247 78.4481663,72.0286064 C77.0701711,72.3894866 75.6938875,72.7584352 74.3193154,73.1354523 C73.2112785,73.7714963 72.2292685,74.6053348 71.4220049,75.595599 C70.2560465,77.225714 69.4538447,79.0872624 69.0696822,81.0542787 C70.096577,82.4479218 71.0567237,83.903912 72.0535452,85.3085575 C74.8465645,89.2406379 78.048295,92.8657581 81.6051345,96.1232274 C82.4963325,94.5234719 83.3860636,92.9229829 84.2603912,91.3144254 C84.6486553,90.594132 85.0347188,89.8696822 85.4185819,89.1410758 Z" id="Path_90" fill="#051D2E"></path>
                <path d="M79.8953545,94.0731051 C78.4643246,91.6223522 76.8330945,89.2941263 75.0183374,87.1122249 C73.3987775,85.2704156 71.0200489,83.5430318 68.6809291,84.2794621 C68.5716381,84.3139364 68.4718826,84.3652812 68.3677262,84.4085575 L65.9515892,96.7767726 C66.3569785,96.8703205 66.7526237,97.0019567 67.1332518,97.1699267 C69.6982077,98.5647657 71.6802338,100.830347 72.7217604,103.557946 C73.436165,105.37363 73.9158374,107.273093 74.1491443,109.210269 C76.5838631,105.00489 78.9897311,100.783619 81.3667482,96.5464548 C80.9002445,95.705868 80.3977995,94.8814181 79.8953545,94.0731051 Z" id="Path_91" fill="#051D2E"></path>
                <path d="M29.193154,42.6894866 C39.5974296,54.6565974 51.4863716,65.2470312 64.5718826,74.2041565 C63.3418093,75.7782396 61.9371638,77.49022 59.9552567,77.7396088 C58.3298289,77.9449878 56.7740831,77.1080685 55.3496333,76.2997555 C48.8427873,72.607335 42.2435208,68.8452323 37.0041565,63.5046455 C31.6652337,57.9253083 28.8427386,50.403779 29.193154,42.6894866 Z" id="Path_92" fill="#8DC63F"></path>
                <path d="M29.193154,42.6894866 C28.8430847,50.4037243 31.6655303,57.9251219 37.0041565,63.5046455 C38.6818071,65.1918031 40.4836867,66.7507024 42.394621,68.1682152 C42.4327628,66.7525672 42.4481663,65.3361858 42.4254279,63.9198044 C42.3828851,61.2792176 42.2369193,58.6342298 41.9853301,55.998044 C37.5085575,51.7711491 33.2444988,47.3349633 29.193154,42.6894866 Z" id="Path_93" fill="#7CB332"></path>
                <path d="M17.0171149,39.3154034 C13.403423,40.6753056 9.84596577,42.1295844 6.34474328,43.6782396 C5.0391198,44.2562347 3.67555012,44.900978 2.9801956,45.993154 C2.05085575,47.4520782 2.56430318,49.2755501 3.10488998,50.9127139 C7.60855746,64.5528117 12.6545232,78.0735941 18.2427873,91.4750611 C18.594132,92.3178484 23.3119804,104.036186 24.2149144,104.17335 C29.0897311,104.913447 30.1026895,93.9887531 34.9877751,93.6315403 C36.3020025,93.6310912 37.5963185,93.3103445 38.7586797,92.697066 C40.0848411,91.8381418 40.5469438,90.3498778 40.893154,88.9562347 C42.4628362,82.6613692 36.5757946,50.8877751 32.5877751,44.8789731 C28.5997555,38.8701711 24.2691932,36.5904645 17.0171149,39.3154034 Z" id="Path_94" fill="#8DC63F"></path>
                <path d="M38.8210269,79.2227384 C39.4395105,79.451216 40.0898993,79.5816403 40.7486553,79.609291 C40.4552567,76.7992665 40.0070905,73.6349633 39.4569682,70.3672372 C36.2216091,69.8975077 33.0517298,69.0537163 30.0110024,67.8528117 C28.1971387,67.139159 26.4253294,66.3229268 24.7041565,65.4080685 C18.8515892,62.3090465 13.5821516,58.2198044 8.56136919,53.900978 C10.501467,57.4885086 12.4679707,61.1134474 15.199511,64.1420538 C17.7330975,66.7793598 20.5750746,69.1019496 23.6640587,71.0596577 C28.4273839,74.2914425 33.3828851,77.3398533 38.8210269,79.2227384 Z" id="Path_95" fill="#7CB332"></path>
                <path d="M20.1982885,32.8606357 C19.5539137,35.6513997 19.4523128,38.5400531 19.899022,41.3691932 C20.0090819,42.0350451 19.807505,42.7145787 19.3521613,43.2127093 C18.8968175,43.7108399 18.2380703,43.9724717 17.5650367,43.9224939 C16.4338154,43.8431265 15.3105645,43.6751294 14.2056235,43.4200489 C13.7666094,43.3508415 13.3524063,43.1711264 13.001956,42.8977995 C12.5990736,42.4339292 12.3610262,41.8497717 12.3249389,41.2364303 C11.8677262,38.498044 11.4105134,35.7621027 10.9533007,33.0286064 C10.7357156,32.2649017 10.7875144,31.4495879 11.1,30.7195599 C11.6376528,29.797555 12.8603912,29.5877751 13.9305623,29.5525672 C15.0916635,29.4575226 16.2590822,29.6304271 17.3427873,30.0579462 C18.4012225,30.5369193 20.4608802,31.7266504 20.1982885,32.8606357 Z" id="Path_96" fill="#E67A5C"></path>
                <g id="Group_40">
                    <path d="M28.0855746,25.8564792 C28.7691932,28.2704156 29.0603912,32.2026895 27.7643032,34.4787286 C26.6638072,36.2650555 24.7539673,37.3946075 22.6584352,37.498533 C20.7018899,37.5317044 18.7682895,37.073461 17.0347188,36.1657702 C14.0003277,34.7573027 11.2234721,32.8501979 8.8195599,30.5237164 C6.56259169,28.3422983 4.51100244,25.3892421 4.95183374,22.0151589 C5.27457213,19.5462103 6.90513447,17.3691932 8.78875306,15.7804401 C10.972055,13.8093196 13.7890534,12.6852264 16.7295844,12.6117359 C23.8290954,12.7525672 26.4007335,19.903423 28.0855746,25.8564792 Z" id="Path_97" fill="#F98C6E"></path>
                    <path d="M17.6574572,23.9640587 C18.2596577,24.9850856 19.1897311,25.495599 19.7339853,25.105379 C20.2782396,24.7151589 20.2305623,23.5701711 19.6283619,22.5498778 C19.0261614,21.5295844 18.0953545,21.0176039 17.5511002,21.407824 C17.006846,21.798044 17.0545232,22.9430318 17.6574572,23.9640587 Z" id="Path_98" fill="#092942"></path>
                    <path d="M23.7652812,22.4200489 C24.3682152,23.4410758 25.297555,23.9523227 25.8418093,23.5613692 C26.3860636,23.1704156 26.3391198,22.0268949 25.7361858,21.005868 C25.1332518,19.9848411 24.203912,19.4735941 23.6596577,19.8645477 C23.1154034,20.2555012 23.1616137,21.399022 23.7652812,22.4200489 Z" id="Path_99" fill="#092942"></path>
                    <path d="M25.2132029,26.1242054 C25.4715264,26.1288455 25.7281702,26.166812 25.9767726,26.2371638 C26.2342835,26.3206043 26.414059,26.5537005 26.4293399,26.8239609 C26.3974359,27.1101532 26.2349657,27.3655021 25.9892421,27.5156479 C25.2634462,28.0308351 24.292908,28.0369907 23.5606357,27.5310513 C22.8566945,26.975012 22.4675483,26.1110637 22.5176039,25.2154034 C22.5242054,24.9513447 22.6246944,24.3828851 22.9804401,24.49511 C23.2210269,24.5684597 23.3765281,25.0892421 23.5400978,25.2806846 C23.9707514,25.7637244 24.568757,26.0652178 25.2132029,26.1242054 L25.2132029,26.1242054 Z" id="Path_100" fill="#D1684B"></path>
                    <g id="Group_39" transform="translate(18.337408, 29.339853)" fill="#D1684B">
                        <path d="M3.54718826,2.52102689 C3.77792064,2.4634722 4.00117967,2.37928853 4.21246944,2.27017115 C4.40508467,2.16880576 4.49289529,1.94049817 4.41784841,1.73618582 C4.38353937,1.64247459 4.3098301,1.56854309 4.21622259,1.53395208 C4.12261508,1.49936107 4.0185425,1.50759642 3.93154034,1.55647922 C3.34233653,1.86337165 2.65022698,1.90446065 2.02885086,1.66943765 C1.41945585,1.41231697 0.951107391,0.904114765 0.744498778,0.275794621 C0.71501966,0.180542445 0.645335775,0.102959635 0.553783355,0.063460902 C0.462230935,0.0239621693 0.357978938,0.0265033047 0.268459658,0.0704156479 C0.0713175937,0.162607163 -0.0269102139,0.386679542 0.0388753056,0.594132029 C0.497802101,2.0769142 2.05004702,2.92849076 3.54718826,2.51882641 L3.54718826,2.52102689 Z" id="Path_101"></path>
                    </g>
                    <path d="M9.4408313,31.0481663 C11.9501254,27.9702685 12.1331486,23.6075697 9.89046455,20.3303178 C14.0888326,19.7310809 18.2096167,18.6772129 22.1801956,17.1872861 C23.90978,16.5454768 25.7457213,15.7026895 26.5811736,14.0589242 C27.1328353,12.7952018 27.226477,11.3786446 26.8459658,10.0533007 C25.9144254,6.02787286 22.8616137,2.84229829 19.6305623,0.266992665 L21.3352078,5.36479218 C19.7391376,3.65926227 17.8456119,2.25887847 15.7474328,1.23227384 C16.8821783,3.53456614 17.800551,5.93731398 18.490709,8.40953545 C14.5298289,8.06112469 10.3547677,8.46381418 6.86772616,10.3701711 C3.3806846,12.2765281 0.670415648,15.8977995 0.613202934,19.8718826 C0.636149895,22.3723182 1.51150752,24.7900959 3.09462103,26.7256724 C4.63349633,28.6701711 7.22273839,29.9442543 9.4408313,31.0481663 Z" id="Path_102" fill="#092942"></path>
                    <path d="M8.79608802,27.999022 C8.29817474,27.8431634 7.75887181,27.8900822 7.29535452,28.1295844 C6.78646119,28.4980247 6.49966004,29.0998097 6.53398533,29.7271394 C6.57546688,30.3215696 6.77169037,30.8948153 7.10317848,31.3899756 C8.10252588,33.0465976 9.73946553,34.2190612 11.6295844,34.6320293 C12.0159077,34.764286 12.442986,34.6907567 12.7628362,34.4369193 C13.5894866,33.594132 12.8787286,31.0760391 12.3579462,30.2427873 C11.4838337,29.0857218 10.2171727,28.2877984 8.79608802,27.999022 Z" id="Path_103" fill="#F98C6E"></path>
                </g>
                <path d="M9.07114914,68.0339853 C14.2239137,72.3424301 19.8413036,76.0625086 25.8190709,79.1251834 C30.6466099,81.5503835 35.7959828,83.2731807 41.1110024,84.2413203 C41.0251834,82.2381418 40.8,79.8308068 40.4677262,77.1997555 C38.1110024,76.3584352 35.7777506,75.4525672 33.4826406,74.4564792 C23.2794171,70.0283777 13.7526033,64.18166 5.18435208,57.0894866 C6.44107579,60.7457213 7.73667482,64.3938875 9.07114914,68.0339853 Z" id="Path_104" fill="#7CB332"></path>
                <path d="M13.7530562,52.4948655 C15.3095355,58.9613692 20.8437653,64.3474328 27.4312958,67.801467 C34.0188264,71.2555012 41.6178484,73.009291 49.1728606,74.4080685 C49.6085637,74.9964583 49.9120586,75.6720035 50.0625917,76.3885086 C50.2588945,77.1586263 49.9587821,77.9699222 49.3085575,78.4268949 C48.6673695,78.757401 47.9480976,78.9065307 47.2283619,78.8581907 C37.7099914,79.045119 28.3264384,76.5871892 20.1220049,71.7579462 C12.2684597,67.0268949 6.2405868,60.1290954 3.13129584,52.3621027 C2.61002824,51.2341297 2.32830374,50.0103265 2.30391198,48.7679707 C2.32193696,47.4685808 2.97411743,46.2600885 4.05036675,45.5317848 C5.94718826,44.3061125 8.83202934,44.9449878 10.5051345,46.3892421 C12.1782396,47.8334963 13.2762836,50.50489 13.7530562,52.4948655 Z" id="Path_105" fill="#8DC63F"></path>
                <path d="M85.7457213,65.6244499 C86.0611247,66.9982885 86.0178484,70.9056235 86.2885086,72.6564792 C72.9132029,77.497555 59.0149144,79.390709 44.7212714,83.3919315 L37.9422983,85.29022 C37.1506876,85.6186862 36.2646221,85.6380566 35.4594132,85.3444988 C34.7075795,84.9491443 34.4897311,83.6413203 35.2760391,83.3207824 C49.794132,77.398533 63.7356968,69.9579462 78.6330073,65.0735941 C79.7386468,64.653387 80.9003648,64.3990449 82.0804401,64.3188264 C83.2650367,64.294621 85.4816626,64.4743276 85.7457213,65.6244499 Z" id="Path_106" fill="#92C6F0"></path>
                <g id="Group_41" transform="translate(47.677262, 44.743276)">
                    <path d="M4.24694377,5.26870416 L38.8804401,0.168704156 C39.6955426,0.0473249449 40.5191557,0.326468511 41.0924905,0.918424765 C41.6658254,1.51038102 41.9185104,2.34249266 41.7711491,3.15330073 C40.2529283,11.3405895 39.1979503,19.6070323 38.6112469,27.9132029 C26.3530562,29.5474328 14.6171149,31.0144254 0.444498778,33.1672372 C1.38557457,23.6031785 1.83814181,16.003423 2.05819071,7.7391198 C2.0916327,6.49362205 3.01454513,5.45194341 4.24694377,5.26870416 Z" id="Path_107" fill="#92C6F0"></path>
                    <path d="M26.6655257,17.3405868 C26.2511002,19.7185819 24.2977995,21.3645477 22.301956,21.0168704 C20.3061125,20.6691932 19.0246944,18.4591687 19.4413203,16.0811736 C19.8579462,13.7031785 21.80978,12.0579462 23.80489,12.4056235 C25.8,12.7533007 27.0799511,14.9633252 26.6655257,17.3405868 Z" id="Path_108" fill="#A6D7FF"></path>
                </g>
                <path d="M28.0621027,108.011002 C32.2782396,109.52934 37.3731051,109.123716 41.6317848,107.733741 C51.4709046,104.523227 59.3090465,97.1596577 66.790709,90.0102689 C71.9691932,97.4919315 78.2677262,104.675795 83.4462103,112.156724 C84.5552567,113.759413 85.7713936,115.448655 87.5904645,116.14621 C89.4095355,116.843765 94.1185819,111.205379 93.8919315,109.710513 C93.5859014,108.22681 93.0300745,106.805868 92.2481663,105.508313 C87.8783811,97.4646438 83.0488654,89.6793763 77.7836186,82.191198 C75.8141809,79.3481663 73.5718826,76.3562347 70.2696822,75.3293399 C66.8273839,74.2584352 63.1511002,75.5977995 59.7806846,76.8696822 C48.9183374,80.9559902 40.1347188,82.2682152 28.0657702,86.0383863 C14.2481663,90.3462103 21.2405868,105.554523 28.0621027,108.011002 Z" id="Path_109" fill="#092942"></path>
                <path d="M108.278729,113.389731 C108.754768,113.482885 109.32176,113.658924 109.432518,114.131296 C109.565281,114.699022 108.932274,115.12445 108.393888,115.349633 C102.981418,117.610269 97.0914425,118.416381 91.2784841,119.201222 C90.5600379,119.36694 89.8093651,119.325999 89.1132029,119.08313 C88.3724756,118.640932 87.8187224,117.943458 87.5559902,117.12176 C87.1551215,116.333655 86.9855035,115.448183 87.0667482,114.567726 C87.3804838,113.359792 88.2184957,112.355738 89.3508557,111.831051 C90.1848411,111.368215 91.5550122,110.48802 92.5173594,110.452812 C93.6653318,110.553135 94.8009256,110.76414 95.908313,111.082885 C98.5699267,111.556724 101.22934,112.044499 103.886553,112.54621 C105.3511,112.823472 106.815159,113.104645 108.278729,113.389731 Z" id="Path_110" fill="#FFFFFF"></path>
                <path d="M61.4948655,115.879951 C61.1879381,116.656793 61.1573798,117.515532 61.408313,118.312225 C61.7363593,118.977143 62.3276094,119.474505 63.0388753,119.683863 C63.7431959,119.885644 64.4730042,119.984467 65.2056235,119.977262 C69.1217604,120.123961 73.0415648,120.108557 76.9606357,120.096822 C78.0589769,120.123348 79.1576652,120.061042 80.2459658,119.910513 C80.8533007,119.810024 81.5992665,119.457213 81.5244499,118.84621 C81.4709046,118.412714 81.0198044,118.161858 80.6215159,117.982152 C77.6743276,116.652567 74.6914425,115.403178 71.6728606,114.233985 C70.1427873,113.640831 68.604401,113.069193 67.0577017,112.519071 C66.1870416,112.208802 64.5256724,111.257457 63.5699267,111.648411 C62.3860636,112.134719 61.8176039,114.78044 61.4948655,115.879951 Z" id="Path_111" fill="#FFFFFF"></path>
            </g>
        </g>
    </g>
</svg>