<?xml version="1.0" encoding="UTF-8"?>
<svg width="151px" height="144px" viewBox="0 0 151 144" version="1.1" xmlns="http://www.w3.org/2000/svg" xmlns:xlink="http://www.w3.org/1999/xlink">
    <!-- Generator: sketchtool 62 (101010) - https://sketch.com -->
    <title>7E3CC64D-A050-47ED-8D9C-4D9D3D2D417B</title>
    <desc>Created with sketchtool.</desc>
    <defs>
        <circle id="path-1" cx="24" cy="24" r="24"></circle>
        <filter x="-232.3%" y="-217.7%" width="564.6%" height="564.6%" filterUnits="objectBoundingBox" id="filter-2">
            <feOffset dx="0" dy="7" in="SourceAlpha" result="shadowOffsetOuter1"></feOffset>
            <feGaussianBlur stdDeviation="36" in="shadowOffsetOuter1" result="shadowBlurOuter1"></feGaussianBlur>
            <feColorMatrix values="0 0 0 0 0   0 0 0 0 0   0 0 0 0 0  0 0 0 0.18 0" type="matrix" in="shadowBlurOuter1"></feColorMatrix>
        </filter>
    </defs>
    <g id="Principal-Dashboard" stroke="none" stroke-width="1" fill="none" fill-rule="evenodd">
        <g id="01.-Principal-Dashboard" transform="translate(-1289.000000, -4066.000000)">
            <g id="Group-43" transform="translate(1356.000000, 4126.000000)">
                <g id="ic_activity">
                    <g id="Oval">
                        <use fill="black" fill-opacity="1" filter="url(#filter-2)" xlink:href="#path-1"></use>
                        <use fill="#7357CD" fill-rule="evenodd" xlink:href="#path-1"></use>
                    </g>
                    <path d="M13.4643545,29.2854023 C14.6203633,29.2854023 15.7739333,29.2854023 16.9299421,29.2854023 C17.095783,29.2854023 17.2616239,29.2854023 17.425026,29.2854023 C17.9127934,29.2854023 18.4639706,29.0122526 18.6883436,28.5610677 C18.9688099,27.9952575 19.2492762,27.4270085 19.5321813,26.8611982 C19.9809273,25.9588285 20.4272345,25.0540199 20.8759805,24.1516502 C20.9784117,23.944349 21.0808429,23.7370479 21.183274,23.5297467 C20.2906596,23.4126826 19.4004841,23.2956184 18.5078697,23.180993 C18.622495,23.4687758 18.7371204,23.7565586 18.8517457,24.0443414 C19.1273343,24.7369711 19.4029229,25.4296009 19.6785115,26.1197918 C20.0126322,26.9611906 20.3491917,27.8025894 20.6833124,28.6439882 C20.9710952,29.3683228 21.2613168,30.0926574 21.5490996,30.8169921 C21.6905521,31.1706234 21.8295659,31.521816 21.9710184,31.8754474 C21.9734572,31.880325 21.9758961,31.8852027 21.9758961,31.8900804 C22.0246728,32.0071446 22.0734496,32.1242088 22.1222263,32.2388341 C22.2149021,32.4095527 22.3392828,32.5461276 22.5002461,32.6485587 C22.7465686,32.838788 23.0660563,32.9778017 23.3879828,32.9631687 C23.6489383,32.9509745 23.8976997,32.8851259 24.1269504,32.7631841 C24.4415604,32.5973432 24.7098325,32.2266399 24.8000695,31.8876416 C24.9244502,31.4193848 25.0488309,30.9511281 25.1732115,30.4828714 C25.4683108,29.365884 25.7634101,28.2488966 26.0585094,27.134348 C26.4145796,25.7856711 26.7730887,24.4369941 27.1291589,23.0883172 C27.4388912,21.9225531 27.7461847,20.7543501 28.055917,19.588586 C28.2071249,19.0203369 28.3632105,18.4520879 28.5071019,17.8814 C28.5095407,17.8740835 28.5119796,17.8667669 28.5119796,17.8594504 C27.5705884,17.8594504 26.6316361,17.8594504 25.690245,17.8594504 C25.7975538,18.2033265 25.9048627,18.5472025 26.0121715,18.8910785 C26.2682494,19.7154055 26.5267661,20.5421713 26.782844,21.3664982 C27.0925764,22.3615438 27.4023087,23.3541505 27.712041,24.349196 C27.9803131,25.2125444 28.2485852,26.0758927 28.5192961,26.939241 C28.6509933,27.358721 28.775374,27.7806398 28.9119489,28.197681 C28.9143877,28.2025587 28.9143877,28.2098752 28.9168265,28.2147528 C29.1094947,28.8317786 29.6704272,29.2878412 30.3289132,29.2878412 C30.8020476,29.2878412 31.275182,29.2878412 31.7483164,29.2878412 C32.5043559,29.2878412 33.2579566,29.2878412 34.0139961,29.2878412 C34.1871535,29.2878412 34.3627498,29.2878412 34.5359072,29.2878412 C34.9114882,29.2878412 35.3041409,29.1244391 35.5699742,28.8586058 C35.8236132,28.6049668 36.0138425,28.1879256 35.9992095,27.8245389 C35.9821377,27.4465192 35.857757,27.0538664 35.5699742,26.790472 C35.2846302,26.5246387 34.9334377,26.3587978 34.5359072,26.3587978 C34.0627728,26.3587978 33.5896384,26.3587978 33.116504,26.3587978 C32.3604645,26.3587978 31.6068639,26.3587978 30.8508244,26.3587978 C30.6776669,26.3587978 30.5020707,26.3587978 30.3289132,26.3587978 C30.7996088,26.7173069 31.2703043,27.0758159 31.7409999,27.4318861 C31.6336911,27.0880101 31.5263822,26.7441341 31.4190734,26.400258 C31.1629955,25.5759311 30.9044788,24.7491653 30.6484009,23.9248384 C30.3386686,22.9297928 30.0289363,21.9371861 29.7192039,20.9421406 C29.4509319,20.0787922 29.1826598,19.2154439 28.9119489,18.3520955 C28.7802516,17.9326155 28.655871,17.5106967 28.5192961,17.0936556 C28.5168572,17.0887779 28.5168572,17.0814614 28.5144184,17.0765837 C28.4193038,16.7692902 28.2461463,16.5132123 27.9900684,16.3156665 C27.7437459,16.1254372 27.4242582,15.9864235 27.1023317,16.0010565 C26.8413761,16.0132507 26.5926147,16.0790993 26.3633641,16.2010412 C26.0487541,16.3668821 25.780482,16.7375854 25.690245,17.0765837 C25.5658643,17.5448404 25.4414836,18.0130972 25.3171029,18.4813539 C25.0220036,19.5983413 24.7269044,20.7153287 24.4318051,21.8298773 C24.0757348,23.1785542 23.7172258,24.5272311 23.3611556,25.875908 C23.0514232,27.0416722 22.7441298,28.2098752 22.4343975,29.3756393 C22.2831896,29.9438884 22.127104,30.5121374 21.9832126,31.0828253 C21.9807738,31.0901418 21.9783349,31.0974583 21.9783349,31.1047748 C22.919726,31.1047748 23.8586783,31.1047748 24.8000695,31.1047748 C24.6854441,30.8169921 24.5708188,30.5292093 24.4561934,30.2414265 C24.1806048,29.5487968 23.9050162,28.856167 23.6294276,28.1659761 C23.295307,27.3245773 22.9587474,26.4831785 22.6246268,25.6417797 C22.336844,24.9174451 22.0466224,24.1931104 21.7588396,23.4687758 C21.617387,23.1151444 21.4783733,22.7639519 21.3369208,22.4103205 C21.3344819,22.4054428 21.3320431,22.4005652 21.3320431,22.3956875 C21.2369284,22.1591203 21.1393749,21.9323084 20.9564622,21.7493956 C20.8589087,21.6737917 20.7589164,21.5957489 20.6613629,21.520145 C20.4930831,21.4128361 20.3126092,21.354304 20.1175022,21.3469875 C19.9882438,21.3128438 19.8589855,21.3128438 19.7272883,21.3469875 C19.5955911,21.3469875 19.4712104,21.3811312 19.3590238,21.4469798 C19.0834353,21.564044 18.7956525,21.7689063 18.6590776,22.0444949 C18.3786113,22.6103051 18.0981451,23.1785542 17.81524,23.7443644 C17.3664939,24.6467341 16.9201867,25.5515427 16.4714407,26.4539124 C16.3690095,26.6612136 16.2665784,26.8685148 16.1641472,27.0758159 C16.586066,26.834371 17.005546,26.5929262 17.4274649,26.3514813 C16.2714561,26.3514813 15.1178861,26.3514813 13.9618773,26.3514813 C13.7960364,26.3514813 13.6301955,26.3514813 13.4667934,26.3514813 C13.0912125,26.3514813 12.6985597,26.5148834 12.4327264,26.7807166 C12.1766485,27.0416722 11.9839804,27.4587133 12.0010523,27.8221001 C12.0181241,28.2001198 12.1425048,28.5927726 12.4302876,28.856167 C12.7156315,29.1195614 13.0668241,29.2854023 13.4643545,29.2854023 L13.4643545,29.2854023 Z" id="Path" fill="#FEFEFE" fill-rule="nonzero"></path>
                </g>
            </g>
        </g>
    </g>
</svg>