<?xml version="1.0" encoding="UTF-8"?>
<svg width="30px" height="30px" viewBox="0 0 30 30" version="1.1" xmlns="http://www.w3.org/2000/svg" xmlns:xlink="http://www.w3.org/1999/xlink">
    <!-- Generator: sketchtool 62 (101010) - https://sketch.com -->
    <title>B350D2BD-8A7D-4366-A911-A2E132026D2A</title>
    <desc>Created with sketchtool.</desc>
    <defs>
        <circle id="path-1" cx="15" cy="15" r="15"></circle>
    </defs>
    <g id="Principal-Dashboard" stroke="none" stroke-width="1" fill="none" fill-rule="evenodd">
        <g id="01.-Principal-Dashboard" transform="translate(-570.000000, -520.000000)">
            <g id="Group-22" transform="translate(280.000000, 100.000000)">
                <g id="Group-9-Copy" transform="translate(186.000000, 404.000000)">
                    <g id="woman" transform="translate(104.000000, 16.000000)">
                        <mask id="mask-2" fill="white">
                            <use xlink:href="#path-1"></use>
                        </mask>
                        <use id="Mask" fill="#F6F7FB" xlink:href="#path-1"></use>
                        <g mask="url(#mask-2)" fill="#BFCDDA" fill-rule="nonzero" id="Path">
                            <g transform="translate(2.000000, 4.000000)">
                                <path d="M21.3882082,19.54875 L17.2379663,18.5109336 L16.9985332,17.5521836 C19.8617776,17.0701172 21.3350911,16.2121172 21.400091,16.1741836 C21.5539071,16.08425 21.6492741,15.9206836 21.6622741,15.743 C21.6742077,15.5653164 21.5950906,15.3909336 21.4553409,15.2793164 C21.4358917,15.2641836 19.4999619,13.6651836 19.4999619,8.125 C19.4999619,3.45256641 18.4068976,1.08331641 16.2499683,1.08331641 L15.9304025,1.08331641 C15.1525368,0.3315 14.5686551,0 12.9999746,0 C10.9644122,0 6.4999873,2.04643359 6.4999873,8.125 C6.4999873,13.6651836 4.56405749,15.2641836 4.54999111,15.275 C4.40592499,15.3833164 4.32467515,15.5555664 4.33330794,15.7354336 C4.34305792,15.9163672 4.44055773,16.0788672 4.59549102,16.172 C4.6604909,16.211 6.11973805,17.0733164 9.00029883,17.5543164 L8.7608657,18.5108828 L4.61067459,19.54875 C1.8958127,20.228 0,22.6568164 0,25.4583164 C0,25.7573164 0.24268312,26 0.541682536,26 L25.4583175,26 C25.7573169,26 26,25.7551836 26,25.4561836 C26,22.6568164 24.1041365,20.228 21.3882082,19.54875 Z"></path>
                            </g>
                        </g>
                    </g>
                </g>
            </g>
        </g>
    </g>
</svg>