<?xml version="1.0" encoding="UTF-8"?>
<svg width="70px" height="72px" viewBox="0 0 70 72" version="1.1" xmlns="http://www.w3.org/2000/svg" xmlns:xlink="http://www.w3.org/1999/xlink">
    <!-- Generator: Sketch 62 (91390) - https://sketch.com -->
    <title>System intelligence</title>
    <desc>Created with Sketch.</desc>
    <g id="Exam-Automation" stroke="none" stroke-width="1" fill="none" fill-rule="evenodd">
        <g id="04.2-ES---Worksheet-Settings---Options" transform="translate(-148.000000, -220.000000)" fill="#8595A6">
            <g id="System-intelligence" transform="translate(148.000000, 220.000000)">
                <path d="M35,0.5 C45.4178192,0.5 54.5195257,7.37685101 57.5157037,17.2452591 L57.5157037,17.2452591 L57.6363839,17.6427394 L58.0492495,17.5969535 L58.8103726,17.517583 C64.6421064,16.9504392 67.4348099,17.6793431 68.9726366,20.6310254 L68.9726366,20.6310254 L69.0830088,20.8426464 C69.6368927,21.9796156 69.6349004,23.2512459 69.0965608,24.7288383 C68.0274737,27.6631842 64.448121,30.9751727 58.9340652,34.3743755 L58.9340652,34.3743755 L58.2589405,34.7905639 L58.9255513,35.220257 L59.7184703,35.7378816 C66.9675259,40.532517 69.9795934,44.3176099 69.2257845,48.2048129 L69.2257845,48.2048129 L69.1587602,48.4427927 L69.0854669,48.6727904 C68.3719738,50.7822732 66.8323191,51.852424 64.2699137,51.9857353 L64.2699137,51.9857353 L64.205,51.988 L64.205,49.96 L64.4220966,49.9345088 L64.6365444,49.9030735 C66.1656524,49.6548148 66.7496206,49.0123808 67.185121,47.7083875 L67.185121,47.7083875 L67.2108706,47.55 L67.2510818,47.3844322 C67.941163,44.2354812 64.4167699,40.8983832 56.6055984,36.0257723 L56.6055984,36.0257723 L56.3152705,35.8446656 L56.041334,36.0497236 L55.7903711,36.230049 C55.4996196,36.42958 55.2017028,36.5999857 54.746469,36.8341367 L54.746469,36.8341367 L54.2086631,37.1053019 L53.835573,37.5976228 C52.7305699,39.0376342 51.6624737,40.2630823 50.7276545,41.1961071 L50.7276545,41.1961071 L50.3533937,41.5744871 C48.5171038,43.4556159 47.2031847,45.1778206 46.2837478,46.8602193 L46.2837478,46.8602193 L45.9673542,47.4391608 L47.0678988,47.6932601 C47.5267343,47.800171 47.9907024,47.9101031 48.4732222,48.0261212 L48.4732222,48.0261212 L49.9898557,48.3954981 L52.514304,49.0230012 L52.706946,48.7153657 L52.8209577,48.5465146 C53.5015727,47.6087257 54.758688,47 56.0403881,47 C58.3193648,47 60.0490427,48.7263577 60.0490427,51 C60.0490427,53.2736423 58.3193648,55 56.0403881,55 C53.912815,55 52.1642418,53.417129 52.0306218,51.4166768 L52.0306218,51.4166768 L52.0058702,51.046115 L50.8619817,50.7806214 C49.0730202,50.3590196 47.5154395,49.9561861 45.8075993,49.4691684 L45.8075993,49.4691684 L45.1704825,49.2874845 L45.1690475,49.9919242 C45.1670832,50.0219532 45.163002,50.0568668 45.1561934,50.101019 L45.1561934,50.101019 L45.0449621,50.7014179 C45.0271384,50.8162655 45.020194,50.9021135 45.020194,51 L45.020194,51 L45.020194,51.5 L46.523,51.5 L46.523,53.5 L45.020194,53.5 L45.020194,57.5 L46.523,57.5 L46.523,59.5 L45.020194,59.5 L45.020194,63 L45.0124009,63.1898459 C44.9657235,63.7572108 44.7100941,64.3021164 44.2652496,64.7461071 C43.7707936,65.2396139 43.1511873,65.5 42.5144243,65.5 L42.5144243,65.5 L40.5115395,65.5 L40.5115395,69 L40.5037463,69.1898459 C40.4570689,69.7572108 40.2014395,70.3021164 39.756595,70.7461071 C39.262139,71.2396139 38.6425327,71.5 38.0057697,71.5 L38.0057697,71.5 L31.9942303,71.5 L31.8038241,71.4922157 C31.2347975,71.4455916 30.6884154,71.1902632 30.243405,70.7461071 C29.7491333,70.2527841 29.4884605,69.6348748 29.4884605,69 L29.4884605,69 L29.4884605,65.5 L27.4855757,65.5 L27.2962164,65.4922594 C26.7267322,65.44576 26.1443717,65.1892634 25.5432299,64.7092731 C25.0901902,64.2527841 24.8295175,63.6348748 24.8295175,63 L24.8295175,63 L24.8295175,59.5 L23.326,59.5 L23.326,57.5 L24.8295175,57.5 L24.8295175,53.5 L23.326,53.5 L23.326,51.5 L24.8295175,51.5 L24.8281539,50.9282011 C24.8244358,50.833769 24.8127896,50.7411159 24.7892803,50.6092035 L24.7892803,50.6092035 L24.6935181,50.101019 C24.6833052,50.0347906 24.679229,49.9893493 24.679229,49.95 L24.679229,49.95 L24.679229,49.2874845 L24.0421122,49.4691684 L23.3983295,49.6508133 C17.6357659,51.2591248 12.7254345,52.15 8.84980338,52.15 C6.54107465,52.15 4.71687625,51.8287006 3.36210411,51.1526148 C2.09975799,50.4521191 1.17971519,49.350187 0.921697458,48.191336 L0.921697458,48.191336 L0.858592746,47.9368557 C0.537081683,46.4951622 0.829577172,45.0563211 1.76705758,43.4522968 L1.76705758,43.4522968 L1.94051435,43.1555131 L1.72552048,42.8872866 L1.58800999,42.7042992 C1.15150843,42.0834793 0.93364814,41.3535569 0.93364814,40.5 C0.93364814,38.2263577 2.66332601,36.5 4.94230273,36.5 C7.22127945,36.5 8.95095732,38.2263577 8.95095732,40.5 C8.95095732,42.7736423 7.22127945,44.5 4.94230273,44.5 C4.41986519,44.5 4.27692769,44.4841485 4.11354655,44.4026148 L4.11354655,44.4026148 L3.89028333,44.35 L3.63976661,44.1661795 L3.43084803,44.6527205 L3.31495801,44.935652 C2.91536242,45.9621678 2.79428082,46.8723091 2.94624656,47.7823533 C2.93941787,48.2579307 3.41515226,48.8382677 4.23455276,49.3289643 C7.37330812,50.896972 14.2594455,50.2136994 23.4156884,47.5805241 L23.4156884,47.5805241 L24.0156141,47.407996 L23.7162522,46.8602193 L23.5270672,46.5231735 C22.5544642,44.8349379 21.1788532,43.0989551 19.2723455,41.1961071 C18.2823109,40.369992 16.9665644,38.8515805 15.8782757,37.2222809 L15.8782757,37.2222809 L15.8082713,37.1174759 L14.7506328,36.5490163 C7.28243732,32.4726768 2.28659395,28.3682036 0.901033745,24.7223748 C0.331453323,23.1588964 0.364953379,21.8214664 1.02081695,20.6431781 L1.02081695,20.6431781 L1.11334166,20.4638174 C2.70737904,17.4627083 5.39659462,16.9020115 11.964418,17.4482795 L11.964418,17.4482795 L12.3651942,17.4816134 L12.4836715,17.0973012 L12.6007169,16.7285411 C15.7198363,7.17741313 24.742318,0.5 35,0.5 Z M38.5057697,65.5 L31.4942303,65.5 L31.4942303,69.5 L38.5057697,69.5 L38.5057697,65.5 Z M35.0074228,45.8165383 L33.0513686,46.526029 C32.0664658,46.8820794 30.9035099,47.3001153 30.1925359,47.5483556 L30.1925359,47.5483556 L29.3219706,47.8455148 C28.5366698,48.1087377 27.7836915,48.3488043 27.0415778,48.571011 L27.0415778,48.571011 L26.6290252,48.6945392 L26.690043,49.1208439 L26.7975005,49.9126939 C26.9243048,50.912027 26.9855757,51.7032863 26.9855757,52.5 L26.9855757,52.5 L26.9855757,63.5 L43.0144243,63.5 L43.0144243,59.5 L30.991,59.5 L30.991,57.5 L43.0144243,57.5 L43.0144243,53.5 L30.991,53.5 L30.991,51.5 L42.9046305,51.5 L43.0241023,51.0181809 C43.0627359,50.8474703 43.0900409,50.6784811 43.121284,50.4270305 L43.121284,50.4270305 L43.1807651,49.9116118 C43.2231739,49.5456632 43.2517182,49.3643142 43.3000176,49.1714873 L43.3000176,49.1714873 L43.4147809,48.7133153 L42.0339932,48.279745 C39.5798601,47.498713 37.3263469,46.716611 35.1809208,45.8838802 L35.1809208,45.8838802 L35.0074228,45.8165383 Z M56.0403881,49 C54.8627296,49 54.0375032,49.8236423 54.0375032,51 C54.0375032,52.1763577 54.8627296,53 56.0403881,53 C57.2180466,53 58.043273,52.1763577 58.043273,51 C58.043273,49.8236423 57.2180466,49 56.0403881,49 Z M49.4863458,39.6480419 L47.2690897,40.6438919 L46.0723855,41.1773557 C45.5309692,41.4169477 44.9704375,41.6627305 44.3652494,41.9261496 L44.3652494,41.9261496 L40.344644,43.6618848 L37.7073914,44.8097003 L39.308082,45.2465485 C39.786439,45.3814882 40.2631233,45.5309152 40.8735165,45.7345377 L40.8735165,45.7345377 L43.0884843,46.4830743 L44.1413272,46.8040667 L44.322054,46.4072311 L44.4685004,46.0976956 C45.1792188,44.6494595 46.2742705,43.1453979 47.8421979,41.4382149 L47.8421979,41.4382149 L49.4863458,39.6480419 Z M20.7170621,39.5893998 L22.1446687,41.2733327 L22.725375,41.9689129 C24.1177553,43.6645992 25.0694346,45.0433111 25.6859378,46.2739506 L25.6859378,46.2739506 L25.8740541,46.6494611 L26.642476,46.4192049 C28.403853,45.8900535 29.3857552,45.5802553 30.4827225,45.1920461 L30.4827225,45.1920461 L32.1394764,44.5928336 L30.9920088,44.0917801 L25.6347506,41.7761496 C25.0295625,41.5127305 24.4690308,41.2669477 23.9276145,41.0273557 L23.9276145,41.0273557 L20.7170621,39.5893998 Z M35,2.5 C23.151859,2.5 13.4596119,12.1736423 13.4596119,24 C13.4596119,28.0085486 14.7790261,31.6299728 17.144023,35.3673633 L17.144023,35.3673633 L17.2106275,35.472618 L17.9635136,35.8974082 C21.2196068,37.7083007 24.9956256,39.4669491 30.648235,41.8700051 L30.648235,41.8700051 L32.4016722,42.6109508 C32.5474869,42.6692035 32.6822785,42.7215401 32.8419188,42.7816294 L32.8419188,42.7816294 L34.5470389,43.4097822 L35,43.588374 L35.5756309,43.3629674 L37.1566539,42.7822142 L37.5900037,42.6143612 C43.3000129,40.2148496 48.4294159,37.8078937 52.6692227,35.5409286 L52.6692227,35.5409286 L52.7854817,35.4787665 L53.1242055,34.9366119 C55.3205155,31.350829 56.5403881,27.8543736 56.5403881,24 C56.5403881,12.1736423 46.848141,2.5 35,2.5 Z M4.94230273,38.5 C3.76464427,38.5 2.93941787,39.3236423 2.93941787,40.5 C2.93941787,41.6763577 3.76464427,42.5 4.94230273,42.5 C6.11996119,42.5 6.94518759,41.6763577 6.94518759,40.5 C6.94518759,39.3236423 6.11996119,38.5 4.94230273,38.5 Z M36.5028849,8 L36.6324883,8.00617401 C37.0957003,8.05123988 37.4238317,8.34069928 37.5155157,8.79823938 L37.5155157,8.79823938 L38.8060748,12.9932015 L39.050237,13.0744326 L39.3005836,13.1629523 L39.871523,13.3870679 C39.9424654,13.4145079 40.0044229,13.4377711 40.0652939,13.4597133 L40.0652939,13.4597133 L40.4668117,13.5957178 L44.2688836,11.3820999 L44.3827339,11.3359373 C44.736231,11.2216931 45.1873034,11.3241768 45.4675574,11.6038929 L45.4675574,11.6038929 L47.5715963,13.7038929 L47.6622593,13.7816563 C47.9691035,14.077824 47.9956026,14.4923688 47.7783453,14.9260494 L47.7783453,14.9260494 L45.55293,18.7316637 L45.7070727,19.0416083 C45.7832359,19.2043127 45.8595235,19.4063434 45.98134,19.7625883 L45.98134,19.7625883 L46.1840039,20.3660145 L50.6319642,21.5162516 C51.0806629,21.6547132 51.3323105,22.0148097 51.3323105,22.5 L51.3323105,22.5 L51.3323105,25.5 L51.3245472,25.6145657 C51.2682983,26.0320654 50.9139309,26.4138241 50.5089539,26.514874 L50.5089539,26.514874 L46.1840039,27.6339855 L46.0692451,27.9760338 C46.0502714,28.0306974 46.03119,28.0833589 46.0092965,28.1414119 L46.0092965,28.1414119 L45.7119576,28.904674 L45.5752959,29.3066042 L47.7937083,33.1022968 L47.839833,33.2156309 C47.9539774,33.5675419 47.8515041,34.0167366 47.5715963,34.2961071 L47.5715963,34.2961071 L45.4675574,36.3961071 L45.389548,36.4866897 C45.092382,36.793269 44.6758229,36.8198223 44.2405724,36.6026148 L44.2405724,36.6026148 L40.4286674,34.382074 L40.119302,34.5353341 C39.9795115,34.6005215 39.8107933,34.6657873 39.5406301,34.7596828 L39.5406301,34.7596828 L38.7924436,35.0113335 L37.6398769,39.4511625 C37.5011766,39.8986689 37.1401076,40.15 36.6531733,40.15 L36.6531733,40.15 L33.6474036,40.15 L33.5323923,40.1422487 C33.1133206,40.0860877 32.7306754,39.7322974 32.6295351,39.3285127 L32.6295351,39.3285127 L31.5081334,35.0113335 L31.25034,34.9255674 L30.9999934,34.8370477 L30.4290539,34.6129321 C30.3581116,34.5854921 30.296154,34.5622289 30.2352831,34.5402867 L30.2352831,34.5402867 L29.8337653,34.4042822 L26.0316934,36.6179001 L25.9178431,36.6640627 C25.564346,36.7783069 25.1132736,36.6758232 24.8330195,36.3961071 L24.8330195,36.3961071 L22.7289807,34.2961071 L22.6383177,34.2183437 C22.3314734,33.922176 22.3049744,33.5076312 22.5222317,33.0739506 L22.5222317,33.0739506 L24.7476469,29.2683363 L24.6262705,29.0260494 L24.5802225,28.9287039 C24.5644145,28.8935342 24.5481294,28.8556098 24.5313125,28.8148303 L24.5313125,28.8148303 L24.4235874,28.5350883 C24.4028352,28.4781295 24.3834141,28.4237414 24.3623672,28.3634324 L24.3623672,28.3634324 L24.1165731,27.6339855 L19.6686128,26.4837484 C19.2199141,26.3452868 18.9682665,25.9851903 18.9682665,25.5 L18.9682665,25.5 L18.9682665,22.5 L18.9760298,22.3854343 C19.0322787,21.9679346 19.3866461,21.5861759 19.7916231,21.485126 L19.7916231,21.485126 L23.9635125,20.5243148 L24.0523254,20.2583875 L24.140992,20.0085881 L24.4383309,19.245326 L24.5749926,18.8433958 L22.3565802,15.0477032 L22.3104555,14.9343691 C22.1963111,14.5824581 22.2987844,14.1332634 22.5786922,13.8538929 L22.5786922,13.8538929 L24.682731,11.7538929 L24.7607405,11.6633103 C25.0579065,11.356731 25.4744656,11.3301777 25.9097161,11.5473852 L25.9097161,11.5473852 L29.7216211,13.767926 L29.9631662,13.6473852 L30.1036281,13.5819335 C30.2298343,13.526928 30.3845224,13.4685635 30.6096584,13.3903172 L30.6096584,13.3903172 L31.3578449,13.1386665 L32.5104116,8.69883753 C32.6491119,8.25133106 33.0101809,8 33.4971151,8 L33.4971151,8 L36.5028849,8 Z M35.6945985,10 L34.3164256,10 L33.1646585,14.2697802 L33.113995,14.4009723 C32.9849718,14.6933828 32.7792235,14.8887983 32.4743355,14.964874 C31.7482768,15.1092319 31.1380482,15.379924 30.2344609,15.9210357 C29.9312791,16.1220903 29.5485268,16.1220903 29.2654417,15.9337292 L29.2654417,15.9337292 L25.6027948,13.7727383 L24.603119,14.7704952 L26.8148443,18.5089236 C26.9551775,18.7930012 26.9365817,19.1217199 26.7692198,19.3722809 C26.3050931,19.9886455 25.96449,20.796025 25.7930138,21.6517606 C25.6775979,21.9851143 25.4586431,22.2279304 25.1101997,22.314874 L25.1101997,22.314874 L20.9740362,23.305625 L20.9740362,24.6833802 L25.2517828,25.8328705 L25.3833658,25.8834817 C25.6766241,26.012348 25.8724413,26.2176768 25.9485399,26.5214873 C26.0932124,27.2463513 26.3645075,27.8555936 26.906759,28.7576114 L26.906759,28.7576114 L26.9663414,28.8609495 C27.105466,29.1430012 27.0868702,29.4717199 26.9195083,29.7222809 L26.9195083,29.7222809 L24.7534075,33.3795048 L25.7530833,34.3772617 L29.3927515,32.2306771 L29.4973712,32.1705781 C29.7826409,32.0302352 30.1130215,32.0488387 30.3646527,32.2162708 C30.9820763,32.6794101 31.7907308,33.0192426 32.6477956,33.1903265 C32.982369,33.3056925 33.2257058,33.5242753 33.3126758,33.8714873 L33.3126758,33.8714873 L34.3054015,38 L35.6796106,38 L36.834011,33.8850553 L36.8851137,33.7522671 C37.0150282,33.4566172 37.2207765,33.2612017 37.5256645,33.185126 C38.2517232,33.0407681 38.8619518,32.770076 39.7655391,32.2289643 C40.0687209,32.0279097 40.4514732,32.0279097 40.7345583,32.2162708 L40.7345583,32.2162708 L44.4164927,34.0580112 L45.396881,33.0795048 L43.1851557,29.3410764 C43.0448225,29.0569988 43.0634183,28.7282801 43.2307802,28.4777191 C43.6949069,27.8613545 44.03551,27.053975 44.2069862,26.1982394 C44.3224021,25.8648857 44.5413569,25.6220696 44.8898003,25.535126 L44.8898003,25.535126 L49.0259638,24.544375 L49.0259638,23.155625 L44.8852263,22.1637556 L44.7580265,22.114258 C44.4736644,21.987652 44.2778472,21.7823232 44.2017485,21.4785127 C44.03551,20.646025 43.6949069,19.8386455 43.2147244,19.1996311 C43.042498,18.9403997 43.042498,18.5596003 43.2307802,18.2777191 L43.2307802,18.2777191 L45.2369613,14.6108825 L44.2469167,13.6227383 L40.6072485,15.7693229 L40.5026288,15.8294219 C40.2173591,15.9697648 39.8869785,15.9511613 39.6353473,15.7837292 C39.0179237,15.3205899 38.2092692,14.9807574 37.3522044,14.8096735 C37.017631,14.6943075 36.7742942,14.4757247 36.6873242,14.1285127 L36.6873242,14.1285127 L35.6945985,10 Z M67.0778618,21.2338892 C66.0026714,19.4132662 63.9130319,19.0059792 58.5538488,19.4517205 L58.5538488,19.4517205 L58.0414769,19.4943362 L58.2030921,20.9704239 C58.3455984,22.3318631 58.3958693,23.0938628 58.3958693,24 C58.3958693,26.8769233 57.8294157,29.6660639 56.7847589,32.0492672 L56.7847589,32.0492672 L56.1560634,33.4835272 L57.9277039,32.4203167 C63.0138834,29.3200935 66.2489891,26.3509242 67.1789241,23.8758576 C67.5245656,22.8420083 67.5245656,22.1079487 67.1579121,21.3760494 L67.1579121,21.3760494 Z M11.09013,19.2730106 C5.8235671,18.8621595 3.8585686,19.3469903 2.84208787,21.3760494 C2.47374518,22.1113206 2.47374518,23.0095161 2.82501425,23.8860031 C3.76596196,26.3907172 7.10488285,29.4455196 12.3446345,32.6756245 L12.3446345,32.6756245 L13.5893587,33.442949 L13.075069,32.0741424 L12.8800395,31.5427472 C11.935696,28.9053941 11.4538422,26.5516763 11.4538422,24 C11.4538422,22.703373 11.5961789,21.3892856 11.8949617,19.8982394 L11.8949617,19.8982394 L12.0051778,19.3482167 Z M35,18.5 C38.0304192,18.5 40.5115395,20.9763577 40.5115395,24 C40.5115395,27.0236423 38.0304192,29.5 35,29.5 C31.9695808,29.5 29.4884605,27.0236423 29.4884605,24 C29.4884605,20.9763577 31.9695808,18.5 35,18.5 Z M35,20.5 C33.0708991,20.5 31.4942303,22.0736423 31.4942303,24 C31.4942303,25.9263577 33.0708991,27.5 35,27.5 C36.9291009,27.5 38.5057697,25.9263577 38.5057697,24 C38.5057697,22.0736423 36.9291009,20.5 35,20.5 Z" id="Combined-Shape"></path>
            </g>
        </g>
    </g>
</svg>