<?xml version="1.0" encoding="UTF-8"?>
<svg width="404px" height="239px" viewBox="0 0 404 239" version="1.1" xmlns="http://www.w3.org/2000/svg" xmlns:xlink="http://www.w3.org/1999/xlink">
    <!-- Generator: sketchtool 53 (72520) - https://sketchapp.com -->
    <title>547853A7-5746-4D1A-BAA3-ECAFA23F3907</title>
    <desc>Created with sketchtool.</desc>
    <defs>
        <path d="M1.307,35.884 C1.307,35.884 -0.9,9.309 3.037,3.263 C6.699,-2.363 16.578,0.383 14.638,9.449 C13.376,15.343 7.685,35.176 7.685,35.176 L1.307,35.884" id="path-1"></path>
        <linearGradient x1="52.333363%" y1="-5.327585%" x2="46.7488605%" y2="74.8702839%" id="linearGradient-3">
            <stop stop-color="#8FC684" offset="0%"></stop>
            <stop stop-color="#66BA82" offset="100%"></stop>
        </linearGradient>
        <path d="M9.23,42.396 C9.23,42.396 -1.286,13.667 1.233,5.782 C3.576,-1.555 15.339,-1.519 15.947,9.101 C16.342,16.005 16.071,39.676 16.071,39.676 L9.23,42.396" id="path-4"></path>
        <polyline id="path-6" points="1.104 3.304 29.941 5.027 30.355 0.376 0.843 0.376 1.104 3.304"></polyline>
        <linearGradient x1="0%" y1="50.0107504%" x2="100.001355%" y2="50.0107504%" id="linearGradient-8">
            <stop stop-color="#69503C" offset="0%"></stop>
            <stop stop-color="#926F52" offset="100%"></stop>
        </linearGradient>
        <path d="M29.709,69.247 C18.999,69.247 8.826,64.435 1.783,55.666 C-0.118,53.301 0.261,49.842 2.627,47.94 C3.64,47.126 4.856,46.729 6.064,46.729 C7.672,46.729 9.267,47.432 10.353,48.784 C12.121,50.986 14.066,52.737 16.106,54.104 C16.533,56.801 16.638,61.399 13.777,65.447 C16.694,66.924 19.795,67.973 22.997,68.591 C24.892,65.046 25.697,61.31 25.827,57.9 C27.181,58.115 28.524,58.214 29.832,58.214 C30.247,58.214 30.658,58.204 31.066,58.185 C31.545,61.426 31.548,65.381 30.103,69.24 C30.896,69.231 31.688,69.201 32.484,69.14 C31.556,69.211 30.631,69.247 29.709,69.247 M39.172,67.993 C39.589,67.881 39.993,67.746 40.402,67.62 C41.168,63.361 40.945,59.296 40.362,55.915 C41.87,55.209 43.252,54.36 44.49,53.385 C46.075,56.277 47.556,60.188 47.51,64.55 C50.877,62.598 53.786,60.104 56.124,57.192 C54.818,52.022 52.398,47.805 50.493,45.088 C50.856,44.058 51.129,42.983 51.305,41.87 C51.599,40.01 51.703,38.213 51.648,36.472 C51.435,29.669 48.803,23.733 45.667,18.333 C44.752,16.759 43.795,15.23 42.842,13.739 C45.706,9.89 47.181,5.363 47.656,0.687 C48.586,2.352 49.79,4.222 51.03,6.149 C53.306,9.685 55.913,13.734 58.08,18.333 C60.578,23.633 62.493,29.661 62.645,36.472 C62.696,38.755 62.549,41.127 62.16,43.588 C60.299,55.353 51.492,64.702 39.172,67.993 M36.129,57.428 C36.188,57.413 36.247,57.397 36.306,57.382 C36.319,57.378 36.331,57.375 36.344,57.371 C36.331,57.375 36.319,57.378 36.306,57.382 C36.247,57.397 36.188,57.413 36.129,57.428" id="path-9"></path>
        <linearGradient x1="56.1423397%" y1="84.7374562%" x2="37.0803987%" y2="10.5635939%" id="linearGradient-11">
            <stop stop-color="#FAD367" offset="0%"></stop>
            <stop stop-color="#DC8C4A" offset="100%"></stop>
        </linearGradient>
        <path d="M101.14,70.423 C97.404,70.423 94.375,69.533 93.601,67.464 C93.077,66.065 95.746,64.552 98.491,63.401 C98.491,63.401 110.693,58.472 113.021,53.79 C114.616,50.584 115.301,35.302 123.974,31.397 C123.974,31.397 113.071,31.397 105.213,46.358 C99.299,57.621 86.269,62.905 80.62,63.401 C70.998,63.401 61.349,63.401 52.407,63.401 C53.042,62.056 54.152,61.38 54.221,61.342 C54.506,61.18 54.606,60.817 54.444,60.531 C54.335,60.339 54.134,60.231 53.927,60.231 C53.829,60.231 53.729,60.256 53.638,60.307 C53.542,60.358 51.831,61.347 51.103,63.401 C50.217,63.401 49.339,63.401 48.469,63.401 C49.12,60.442 51.719,59.296 51.845,59.243 C52.147,59.112 52.287,58.765 52.159,58.462 C52.063,58.237 51.839,58.099 51.609,58.099 C51.533,58.099 51.456,58.114 51.383,58.146 C51.227,58.211 47.964,59.657 47.28,63.401 C46.676,63.401 46.072,63.401 45.476,63.401 C45.476,63.401 46.673,56.667 54.19,54.81 L54.198,54.8 C83.597,48.616 69.461,14.039 69.387,13.858 C71.347,13.162 73.435,12.394 75.591,11.583 C78.723,14.952 84.044,21.389 87.06,29.056 C88.679,33.168 90.827,34.592 92.778,34.592 C95.008,34.592 96.98,32.735 97.613,30.908 C98.612,28.031 96.664,12.823 91.792,5.284 C93.466,4.623 95.1,3.975 96.672,3.355 C97.048,3.207 97.434,3.063 97.831,2.923 C98.637,2.639 99.487,2.374 100.373,2.128 C104.791,0.906 110.147,0.181 115.842,0.181 C120.991,0.181 126.416,0.774 131.668,2.128 C133.367,2.566 135.046,3.083 136.693,3.686 C144.97,6.714 152.416,11.896 157.114,19.952 C160.821,26.308 163.56,35.77 162.656,44.687 C162.181,49.363 160.706,53.89 157.842,57.739 C157.64,58.011 157.43,58.281 157.214,58.546 C156.017,60.012 154.173,61.262 151.884,62.333 C139.044,68.339 112.231,68.687 107.52,69.7 C105.348,70.167 103.143,70.423 101.14,70.423 M102.659,66.277 C102.594,66.277 102.528,66.287 102.465,66.31 C102.315,66.364 99.365,67.492 97.706,70.083 C98.123,70.169 98.544,70.249 99.003,70.299 C100.497,68.341 102.84,67.438 102.871,67.427 C103.178,67.315 103.338,66.974 103.225,66.665 C103.135,66.422 102.9,66.277 102.659,66.277 M100.774,64.718 C100.737,64.718 100.699,64.722 100.66,64.728 C100.477,64.765 96.831,65.543 93.841,67.837 C94.032,68.178 94.278,68.486 94.598,68.755 C97.377,66.645 100.853,65.901 100.893,65.894 C101.216,65.829 101.425,65.516 101.359,65.195 C101.304,64.911 101.061,64.718 100.774,64.718 M112.798,0.283 C106.59,0.569 100.92,1.679 96.672,3.355 C96.581,3.391 96.484,3.429 96.394,3.465 C98.621,7.676 101.344,13.868 102.381,20.525 C103.169,25.584 105.439,27.276 107.66,27.276 C109.546,27.276 111.397,26.055 112.274,24.639 C113.761,22.236 115.091,8.922 112.798,0.283 M116.128,0.211 C117.296,4.322 118.309,9.372 118.296,14.542 C118.282,20.216 120.713,22.091 123.173,22.091 C124.817,22.091 126.475,21.252 127.424,20.151 C128.88,18.462 131.308,10.03 131.818,2.179 C126.611,0.821 121.245,0.232 116.128,0.211 M40.761,63.401 C40.092,63.401 39.429,63.401 38.774,63.401 L38.777,63.393 C38.717,59.321 33.975,57.747 33.773,57.682 C33.715,57.664 33.656,57.655 33.598,57.655 C33.347,57.655 33.108,57.813 33.025,58.067 C32.925,58.379 33.097,58.713 33.411,58.815 C33.45,58.827 37.529,60.179 37.586,63.401 C36.512,63.401 35.458,63.401 34.428,63.401 C34.087,60.927 31.348,60.229 29.839,60.229 C29.511,60.229 29.244,60.494 29.244,60.824 C29.244,61.151 29.509,61.416 29.839,61.419 C29.97,61.419 32.782,61.478 33.218,63.401 C20.269,63.401 11.206,63.401 9.931,63.401 C8.133,63.401 6.365,63.107 4.847,62.333 C2.232,60.999 0.361,58.238 0.361,53.097 C0.361,44.971 9.931,39.026 9.931,39.026 C9.931,39.026 9.975,38.988 10.059,38.916 C10.067,38.932 10.074,38.946 10.082,38.962 L9.931,39.026 C9.931,39.026 14.208,52.187 33.064,55.389 L33.046,55.391 C37.243,55.873 40.942,59.704 40.761,63.401 M66.352,15.142 C66.327,15.074 66.302,15.004 66.277,14.936 C67.266,14.603 68.301,14.243 69.375,13.862 L66.352,15.142" id="path-12"></path>
        <linearGradient x1="49.9997729%" y1="55.3016714%" x2="49.9997729%" y2="142.513311%" id="linearGradient-14">
            <stop stop-color="#FAD367" offset="0%"></stop>
            <stop stop-color="#DC8C4A" offset="100%"></stop>
        </linearGradient>
        <path d="M36.476,50.401 C34.871,50.401 33.297,50.401 31.761,50.401 C31.942,46.704 28.243,42.873 24.046,42.391 L24.064,42.389 C5.208,39.187 0.931,26.026 0.931,26.026 L1.082,25.962 C5.932,35.984 15.206,38.852 23.811,38.853 C27.833,38.853 31.707,38.227 34.917,37.412 C45.572,34.709 61.682,26.686 58.916,8.334 C58.595,6.207 58.065,4.136 57.352,2.142 L60.375,0.862 C60.379,0.861 60.383,0.859 60.387,0.858 C60.461,1.039 74.597,35.616 45.198,41.8 L45.19,41.81 C37.673,43.667 36.476,50.401 36.476,50.401" id="path-15"></path>
        <linearGradient x1="113.901639%" y1="50.8003149%" x2="113.901639%" y2="174.448863%" id="linearGradient-17">
            <stop stop-color="#C9A158" offset="0%"></stop>
            <stop stop-color="#B87545" offset="100%"></stop>
        </linearGradient>
        <path d="M6.291,28.27 C4.843,25.066 2.975,20.378 1.694,15.128 C0.829,11.583 0.231,7.78 0.211,4.008 C0.21,3.892 0.21,3.778 0.211,3.663 C0.212,3.396 0.216,3.13 0.223,2.864 C0.265,1.273 1.564,0.053 3.087,0.053 C3.27,0.053 3.455,0.07 3.642,0.106 C5.928,0.552 9.237,1.528 12.872,3.663 C13.155,3.829 13.44,4.002 13.726,4.183 C15.779,5.475 17.916,7.143 20.017,9.295 C18.916,9.972 17.866,10.724 16.871,11.544 C13.062,7.386 8.963,6.014 6.64,5.561 C6.528,5.539 6.418,5.528 6.309,5.528 C5.403,5.528 4.631,6.255 4.605,7.201 C4.446,13.184 6.873,19.411 8.369,22.655 C7.524,24.453 6.828,26.334 6.291,28.27" id="path-18"></path>
        <linearGradient x1="47.461029%" y1="33.968884%" x2="101.152508%" y2="188.184073%" id="linearGradient-20">
            <stop stop-color="#FAD367" offset="0%"></stop>
            <stop stop-color="#DC8C4A" offset="100%"></stop>
        </linearGradient>
        <path d="M4.369,17.655 C2.873,14.411 0.446,8.184 0.605,2.201 C0.631,1.255 1.403,0.528 2.309,0.528 C2.418,0.528 2.528,0.539 2.64,0.561 C4.963,1.014 9.062,2.386 12.871,6.544 C9.281,9.502 6.397,13.341 4.369,17.655" id="path-21"></path>
        <linearGradient x1="43.1326906%" y1="23.9971974%" x2="133.438865%" y2="278.069131%" id="linearGradient-23">
            <stop stop-color="#EF9F5E" offset="0%"></stop>
            <stop stop-color="#E88252" offset="100%"></stop>
        </linearGradient>
        <path d="M21.482,27.537 C20.088,26.091 18.579,24.77 16.978,23.591 C16.747,20.027 15.913,13.395 12.92,8.212 C12.598,7.653 12.019,7.35 11.431,7.35 C11.053,7.35 10.67,7.475 10.35,7.74 C8.524,9.245 5.575,12.406 4.208,17.877 C2.943,17.631 1.661,17.47 0.371,17.4 C0.461,17.084 0.553,16.773 0.649,16.467 C0.734,16.195 0.821,15.927 0.911,15.663 C3.426,8.226 7.653,3.769 10.385,1.516 C10.923,1.072 11.566,0.861 12.202,0.861 C13.19,0.861 14.163,1.371 14.705,2.31 C17.113,6.481 18.689,11.209 19.721,15.663 C19.803,16.016 19.881,16.368 19.956,16.717 C20.804,20.659 21.234,24.329 21.452,27.128 C21.452,27.136 21.453,27.142 21.453,27.149 C21.463,27.28 21.473,27.41 21.482,27.537" id="path-24"></path>
        <linearGradient x1="47.6607907%" y1="43.608487%" x2="52.9165208%" y2="225.573924%" id="linearGradient-26">
            <stop stop-color="#FAD367" offset="0%"></stop>
            <stop stop-color="#DC8C4A" offset="100%"></stop>
        </linearGradient>
        <path d="M12.978,16.591 C9.139,13.764 4.775,11.766 0.208,10.877 C1.575,5.406 4.524,2.245 6.35,0.74 C6.67,0.475 7.053,0.35 7.431,0.35 C8.019,0.35 8.598,0.653 8.92,1.212 C11.913,6.395 12.747,13.027 12.978,16.591" id="path-27"></path>
        <linearGradient x1="47.7971914%" y1="31.6729265%" x2="56.374105%" y2="330.552922%" id="linearGradient-29">
            <stop stop-color="#EF9F5E" offset="0%"></stop>
            <stop stop-color="#E88252" offset="100%"></stop>
        </linearGradient>
        <path d="M26.811,59.853 C18.206,59.852 8.932,56.984 4.082,46.962 C4.074,46.946 4.067,46.932 4.059,46.916 C3.662,46.09 3.294,45.216 2.959,44.291 C0.484,37.454 0.414,30.033 2.291,23.27 C2.828,21.334 3.524,19.453 4.369,17.655 C6.397,13.341 9.281,9.502 12.871,6.544 C13.866,5.724 14.916,4.972 16.017,4.295 C18.271,2.91 20.739,1.844 23.396,1.17 C25.562,0.621 27.742,0.36 29.906,0.36 C30.395,0.36 30.884,0.373 31.371,0.4 C32.661,0.47 33.943,0.631 35.208,0.877 C39.775,1.766 44.139,3.764 47.978,6.591 C49.579,7.77 51.088,9.091 52.482,10.537 C55.864,14.041 58.574,18.272 60.277,22.936 C60.302,23.004 60.327,23.074 60.352,23.142 C61.065,25.136 61.595,27.207 61.916,29.334 C64.682,47.686 48.572,55.709 37.917,58.412 C34.707,59.227 30.833,59.853 26.811,59.853 M31.025,46.885 C30.753,46.885 30.5,47.076 30.442,47.358 C30.375,47.68 30.582,47.994 30.901,48.061 C30.984,48.079 31.809,48.245 32.967,48.245 C33.739,48.245 34.659,48.171 35.607,47.931 C36.843,47.617 38.128,47.019 39.191,45.93 C39.419,45.696 39.415,45.319 39.179,45.089 C39.065,44.976 38.916,44.92 38.767,44.92 C38.613,44.92 38.457,44.98 38.339,45.101 C36.762,46.72 34.507,47.047 32.944,47.047 C31.899,47.047 31.163,46.901 31.145,46.897 C31.105,46.889 31.065,46.885 31.025,46.885 M34.436,31.415 C33.378,31.415 32.279,31.549 31.173,31.829 C25.662,33.228 22.054,37.755 23.117,41.942 C23.644,44.022 24.993,44.715 26.891,44.715 C28.817,44.715 31.308,44.002 34.083,43.298 C39.595,41.899 44.14,41.066 43.077,36.879 C42.228,33.531 38.653,31.415 34.436,31.415 M16.658,32.348 C16.156,32.348 15.645,32.41 15.136,32.539 C11.832,33.378 9.833,36.736 10.671,40.04 C11.38,42.836 13.892,44.697 16.65,44.697 C17.153,44.697 17.663,44.635 18.172,44.506 C21.477,43.667 23.476,40.309 22.637,37.005 C21.928,34.209 19.416,32.348 16.658,32.348 M47.132,24.617 C46.63,24.617 46.119,24.679 45.609,24.808 C42.305,25.646 40.306,29.005 41.144,32.31 C41.854,35.104 44.366,36.965 47.124,36.965 C47.626,36.965 48.136,36.904 48.646,36.774 C51.95,35.937 53.949,32.578 53.11,29.273 C52.402,26.478 49.89,24.617 47.132,24.617" id="path-30"></path>
        <linearGradient x1="45.1839769%" y1="36.9950964%" x2="81.3007673%" y2="175.273197%" id="linearGradient-32">
            <stop stop-color="#FAD367" offset="0%"></stop>
            <stop stop-color="#DC8C4A" offset="100%"></stop>
        </linearGradient>
        <path d="M6.65,12.697 C3.892,12.697 1.38,10.836 0.671,8.04 C-0.167,4.736 1.832,1.378 5.136,0.539 C5.645,0.41 6.156,0.348 6.658,0.348 C9.416,0.348 11.928,2.209 12.637,5.005 C13.476,8.309 11.477,11.667 8.172,12.506 C7.663,12.635 7.153,12.697 6.65,12.697" id="path-33"></path>
        <linearGradient x1="147.182177%" y1="-84.557454%" x2="326.304108%" y2="621.52401%" id="linearGradient-35">
            <stop stop-color="#F0A665" offset="0%"></stop>
            <stop stop-color="#EA8C58" offset="100%"></stop>
        </linearGradient>
        <path d="M7.124,12.965 C4.366,12.965 1.854,11.104 1.144,8.31 C0.306,5.005 2.305,1.646 5.609,0.808 C6.119,0.679 6.63,0.617 7.132,0.617 C9.89,0.617 12.402,2.478 13.11,5.273 C13.949,8.578 11.95,11.937 8.646,12.774 C8.136,12.904 7.626,12.965 7.124,12.965" id="path-36"></path>
        <linearGradient x1="-99.5861074%" y1="-21.952597%" x2="79.5589757%" y2="684.162737%" id="linearGradient-38">
            <stop stop-color="#F0A665" offset="0%"></stop>
            <stop stop-color="#EA8C58" offset="100%"></stop>
        </linearGradient>
        <path d="M2.967,4.245 C1.809,4.245 0.984,4.079 0.901,4.061 C0.582,3.994 0.375,3.68 0.442,3.358 C0.5,3.076 0.753,2.885 1.025,2.885 C1.065,2.885 1.105,2.889 1.145,2.897 C1.163,2.901 1.899,3.047 2.944,3.047 C4.507,3.047 6.762,2.72 8.339,1.101 C8.457,0.98 8.613,0.92 8.767,0.92 C8.916,0.92 9.065,0.976 9.179,1.089 C9.415,1.319 9.419,1.696 9.191,1.93 C8.128,3.019 6.843,3.617 5.607,3.931 C4.659,4.171 3.739,4.245 2.967,4.245" id="path-39"></path>
        <linearGradient x1="-19.8596664%" y1="-52.8978005%" x2="227.867778%" y2="310.689856%" id="linearGradient-41">
            <stop stop-color="#C9A158" offset="0%"></stop>
            <stop stop-color="#B87545" offset="100%"></stop>
        </linearGradient>
        <path d="M11.66,27.276 C9.439,27.276 7.169,25.584 6.381,20.525 C5.344,13.868 2.621,7.676 0.394,3.465 C0.484,3.429 0.581,3.391 0.672,3.355 C4.92,1.679 10.59,0.569 16.798,0.283 C19.091,8.922 17.761,22.236 16.274,24.639 C15.397,26.055 13.546,27.276 11.66,27.276" id="path-42"></path>
        <linearGradient x1="-83.8981453%" y1="143.529804%" x2="-83.8981453%" y2="370.474567%" id="linearGradient-44">
            <stop stop-color="#EF9F5E" offset="0%"></stop>
            <stop stop-color="#E88252" offset="100%"></stop>
        </linearGradient>
        <path d="M7.173,22.091 C4.713,22.091 2.282,20.216 2.296,14.542 C2.309,9.372 1.296,4.322 0.128,0.211 C5.245,0.232 10.611,0.821 15.818,2.179 C15.308,10.03 12.88,18.462 11.424,20.151 C10.475,21.252 8.817,22.091 7.173,22.091" id="path-45"></path>
        <linearGradient x1="-220.095602%" y1="177.399452%" x2="-220.095602%" y2="457.377514%" id="linearGradient-47">
            <stop stop-color="#EF9F5E" offset="0%"></stop>
            <stop stop-color="#E88252" offset="100%"></stop>
        </linearGradient>
        <path d="M17.778,29.592 C15.827,29.592 13.679,28.168 12.06,24.056 C9.044,16.389 3.723,9.952 0.591,6.583 C5.839,4.609 11.506,2.375 16.792,0.284 C21.664,7.823 23.612,23.031 22.613,25.908 C21.98,27.735 20.008,29.592 17.778,29.592" id="path-48"></path>
        <linearGradient x1="26.9526539%" y1="115.128975%" x2="26.9526539%" y2="324.147673%" id="linearGradient-50">
            <stop stop-color="#EF9F5E" offset="0%"></stop>
            <stop stop-color="#E88252" offset="100%"></stop>
        </linearGradient>
        <path d="M18.491,32.401 L18.491,32.401 C12.664,32.401 6.647,32.401 0.62,32.401 C6.269,31.905 19.299,26.621 25.213,15.358 C33.071,0.397 43.974,0.397 43.974,0.397 C35.301,4.302 34.616,19.584 33.021,22.79 C30.693,27.472 18.491,32.401 18.491,32.401" id="path-51"></path>
        <linearGradient x1="2.24892743%" y1="23.8376453%" x2="2.24892743%" y2="215.248719%" id="linearGradient-53">
            <stop stop-color="#C9A158" offset="0%"></stop>
            <stop stop-color="#B87545" offset="100%"></stop>
        </linearGradient>
        <path d="M0.103,14.24 C1.548,10.381 1.545,6.426 1.066,3.185 C2.85,3.099 4.557,2.833 6.129,2.428 C6.188,2.413 6.247,2.397 6.306,2.382 C6.319,2.378 6.331,2.375 6.344,2.371 C7.765,1.991 9.107,1.503 10.362,0.915 C10.945,4.296 11.168,8.361 10.402,12.62 C9.993,12.746 9.589,12.881 9.172,12.993 C9.158,12.996 9.144,13 9.131,13.004 C6.917,13.593 4.693,13.969 2.484,14.14 C1.688,14.201 0.896,14.231 0.103,14.24" id="path-54"></path>
        <linearGradient x1="54.6559709%" y1="21.5234522%" x2="-33.0461163%" y2="-360.117073%" id="linearGradient-56">
            <stop stop-color="#EF9F5E" offset="0%"></stop>
            <stop stop-color="#E88252" offset="100%"></stop>
        </linearGradient>
        <path d="M9.997,14.591 C6.795,13.973 3.694,12.924 0.777,11.447 C3.638,7.399 3.533,2.801 3.106,0.104 C6.223,2.193 9.562,3.382 12.827,3.9 C12.697,7.31 11.892,11.046 9.997,14.591" id="path-57"></path>
        <linearGradient x1="144.517608%" y1="32.2979223%" x2="61.6530761%" y2="-318.731276%" id="linearGradient-59">
            <stop stop-color="#EF9F5E" offset="0%"></stop>
            <stop stop-color="#E88252" offset="100%"></stop>
        </linearGradient>
        <path d="M3.51,19.55 C3.556,15.188 2.075,11.277 0.49,8.385 C3.278,6.192 5.341,3.361 6.493,0.088 C8.398,2.805 10.818,7.022 12.124,12.192 C9.786,15.104 6.877,17.598 3.51,19.55" id="path-60"></path>
        <linearGradient x1="6.86656762%" y1="70.3678964%" x2="-37.4629168%" y2="-190.92899%" id="linearGradient-62">
            <stop stop-color="#EF9F5E" offset="0%"></stop>
            <stop stop-color="#E88252" offset="100%"></stop>
        </linearGradient>
        <path d="M5.428,3.401 C5.021,3.401 4.618,3.401 4.218,3.401 C3.782,1.478 0.97,1.419 0.839,1.419 C0.509,1.416 0.244,1.151 0.244,0.824 C0.244,0.494 0.511,0.229 0.839,0.229 C2.348,0.229 5.087,0.927 5.428,3.401" id="path-63"></path>
        <linearGradient x1="1009.85725%" y1="-668.442623%" x2="1009.85725%" y2="1262.8058%" id="linearGradient-65">
            <stop stop-color="#C9A158" offset="0%"></stop>
            <stop stop-color="#B87545" offset="100%"></stop>
        </linearGradient>
        <path d="M6.774,6.401 C6.374,6.401 5.981,6.401 5.586,6.401 C5.529,3.179 1.45,1.827 1.411,1.815 C1.097,1.713 0.925,1.379 1.025,1.067 C1.108,0.813 1.347,0.655 1.598,0.655 C1.656,0.655 1.715,0.664 1.773,0.682 C1.975,0.747 6.717,2.321 6.777,6.393 L6.774,6.401" id="path-66"></path>
        <linearGradient x1="840.739528%" y1="-324.208145%" x2="840.739528%" y2="741.910895%" id="linearGradient-68">
            <stop stop-color="#C9A158" offset="0%"></stop>
            <stop stop-color="#B87545" offset="100%"></stop>
        </linearGradient>
        <path d="M1.469,5.401 C1.07,5.401 0.676,5.401 0.28,5.401 C0.964,1.657 4.227,0.211 4.383,0.146 C4.456,0.114 4.533,0.099 4.609,0.099 C4.839,0.099 5.063,0.237 5.159,0.462 C5.287,0.765 5.147,1.112 4.845,1.243 C4.719,1.296 2.12,2.442 1.469,5.401" id="path-69"></path>
        <linearGradient x1="696.552209%" y1="-359.732177%" x2="696.552209%" y2="795.665786%" id="linearGradient-71">
            <stop stop-color="#C9A158" offset="0%"></stop>
            <stop stop-color="#B87545" offset="100%"></stop>
        </linearGradient>
        <path d="M1.407,3.401 C0.97,3.401 0.536,3.401 0.103,3.401 C0.831,1.347 2.542,0.358 2.638,0.307 C2.729,0.256 2.829,0.231 2.927,0.231 C3.134,0.231 3.335,0.339 3.444,0.531 C3.606,0.817 3.506,1.18 3.221,1.342 C3.152,1.38 2.042,2.056 1.407,3.401" id="path-72"></path>
        <linearGradient x1="891.951349%" y1="-668.927445%" x2="891.951349%" y2="1263.53943%" id="linearGradient-74">
            <stop stop-color="#C9A158" offset="0%"></stop>
            <stop stop-color="#B87545" offset="100%"></stop>
        </linearGradient>
        <path d="M2.003,4.299 C1.544,4.249 1.123,4.169 0.706,4.083 C2.365,1.492 5.315,0.364 5.465,0.31 C5.528,0.287 5.594,0.277 5.659,0.277 C5.9,0.277 6.135,0.422 6.225,0.665 C6.338,0.974 6.178,1.315 5.871,1.427 C5.84,1.438 3.497,2.341 2.003,4.299" id="path-75"></path>
        <linearGradient x1="-290.012111%" y1="-677.548483%" x2="-290.012111%" y2="845.554451%" id="linearGradient-77">
            <stop stop-color="#C9A158" offset="0%"></stop>
            <stop stop-color="#B87545" offset="100%"></stop>
        </linearGradient>
        <path d="M1.598,4.755 C1.278,4.486 1.032,4.178 0.841,3.837 C3.831,1.543 7.477,0.765 7.66,0.728 C7.699,0.722 7.737,0.718 7.774,0.718 C8.061,0.718 8.304,0.911 8.359,1.195 C8.425,1.516 8.216,1.829 7.893,1.894 C7.853,1.901 4.377,2.645 1.598,4.755" id="path-78"></path>
        <linearGradient x1="-162.625724%" y1="-636.413178%" x2="-162.625724%" y2="881.030468%" id="linearGradient-80">
            <stop stop-color="#C9A158" offset="0%"></stop>
            <stop stop-color="#B87545" offset="100%"></stop>
        </linearGradient>
    </defs>
    <g id="Login-&amp;-Onboarding" stroke="none" stroke-width="1" fill="none" fill-rule="evenodd">
        <g id="11.-AS---WingSetup---Empty-State" transform="translate(-638.000000, -224.000000)">
            <g id="EmptyStates/Wings" transform="translate(638.000000, 224.000000)">
                <g id="Group">
                    <rect id="Rectangle" fill="#E2E6EE" x="0" y="187.307" width="404" height="19" rx="9.5"></rect>
                    <polyline id="Fill-4" fill="#D1DAE6" points="293.826 129.251 107.695 125.596 109.871 14.831 141.165 8.52651283e-14 296.305 3.047 293.826 129.251"></polyline>
                    <polyline id="Fill-5" fill="#BFCDDA" points="295.083 127.435 108.916 127.435 108.916 17.457 142.291 1.207 295.083 1.207 295.083 127.435"></polyline>
                    <polyline id="Fill-6" fill="#99C1DD" points="282.577 118.081 119.584 115.97 122.06 17.326 134.166 8.739 284.417 10.921 282.577 118.081"></polyline>
                    <polyline id="Fill-7" fill="#FFFFFE" points="284.833 116.049 120 116.049 120 19.411 129.958 11 284.833 11 284.833 116.049"></polyline>
                    <polyline id="Fill-8" fill="#A4BDCD" points="119.584 24.345 108.916 17.457 142.291 1.207 136.75 8.777 134.166 8.739 131.09 10.921 129.542 10.921 119.584 19.332 119.584 24.345"></polyline>
                    <polyline id="Fill-9" fill="#86ADCD" points="135.18 10.921 131.09 10.921 134.166 8.739 136.75 8.777 135.18 10.921"></polyline>
                    <path d="M123.149,26.381 C122.888,26.381 122.624,26.308 122.389,26.157 L119.584,24.345 L119.584,19.332 L129.542,10.921 L135.18,10.921 L124.281,25.807 C124.007,26.181 123.582,26.381 123.149,26.381" id="Fill-10" fill="#D9DAD4"></path>
                    <path d="M108.917,17.457 L122.256,23.286 C123.164,23.683 124.224,23.426 124.849,22.658 L142.292,1.207 L108.917,17.457" id="Fill-11" fill="#ADBDCB"></path>
                    <path d="M284.417,10.921 L282.142,10.921 C282.144,10.91 282.147,10.899 282.149,10.888 L284.417,10.921" id="Fill-13" fill="#86ADCD"></path>
                    <path d="M122.819,116.012 L119.584,115.97 L122.808,115.97 C122.811,115.984 122.815,115.998 122.819,116.012" id="Fill-23" fill="#86ADCD"></path>
                    <g id="Group-30" transform="translate(0.000000, 187.307000)"></g>
                    <g id="Group-33" transform="translate(87.000000, 135.307000)">
                        <mask id="mask-2" fill="white">
                            <use xlink:href="#path-1"></use>
                        </mask>
                        <g id="Clip-32"></g>
                        <path d="M1.307,35.884 C1.307,35.884 -0.9,9.309 3.037,3.263 C6.699,-2.363 16.578,0.383 14.638,9.449 C13.376,15.343 7.685,35.176 7.685,35.176 L1.307,35.884" id="Fill-31" fill="url(#linearGradient-3)" mask="url(#mask-2)"></path>
                    </g>
                    <path d="M92.208,139.166 C93.627,136.986 95.979,136.068 98.217,136.283 C95.491,134.994 91.932,135.658 90.037,138.57 C86.1,144.616 88.307,171.191 88.307,171.191 L90.415,170.956 C90.083,166.446 88.683,144.581 92.208,139.166" id="Fill-34" fill="#9DCC89"></path>
                    <path d="M92.437,137.139 L91.334,134.966 C91.253,134.805 91.056,134.74 90.895,134.822 C90.734,134.904 90.67,135.1 90.751,135.261 L91.853,137.435 C91.935,137.596 92.132,137.66 92.293,137.578 C92.454,137.497 92.518,137.3 92.437,137.139" id="Fill-35" fill="#77B872"></path>
                    <path d="M96.631,136.588 L96.851,134.162 C96.867,133.982 96.735,133.823 96.555,133.807 C96.375,133.79 96.216,133.923 96.2,134.103 L95.98,136.529 C95.964,136.709 96.096,136.868 96.276,136.884 C96.456,136.901 96.615,136.768 96.631,136.588" id="Fill-36" fill="#77B872"></path>
                    <path d="M99.871,138.543 L100.986,136.376 C101.068,136.215 101.005,136.018 100.844,135.936 C100.684,135.853 100.487,135.916 100.404,136.077 L99.29,138.244 C99.207,138.404 99.271,138.602 99.431,138.684 C99.592,138.767 99.789,138.703 99.871,138.543" id="Fill-37" fill="#77B872"></path>
                    <path d="M101.305,141.538 L103.049,139.836 C103.179,139.71 103.181,139.503 103.055,139.374 C102.929,139.245 102.722,139.242 102.593,139.368 L100.848,141.07 C100.719,141.196 100.717,141.403 100.843,141.532 C100.969,141.661 101.176,141.664 101.305,141.538" id="Fill-38" fill="#77B872"></path>
                    <path d="M98.874,150.33 L101.216,151.002 C101.39,151.052 101.571,150.952 101.62,150.778 C101.67,150.604 101.57,150.423 101.396,150.374 L99.054,149.702 C98.881,149.652 98.7,149.752 98.65,149.926 C98.6,150.099 98.701,150.28 98.874,150.33" id="Fill-39" fill="#77B872"></path>
                    <path d="M98.303,154.452 L100.618,153.692 C100.79,153.635 100.883,153.451 100.827,153.279 C100.77,153.108 100.586,153.014 100.414,153.071 L98.099,153.83 C97.928,153.887 97.834,154.071 97.891,154.243 C97.947,154.414 98.132,154.508 98.303,154.452" id="Fill-40" fill="#77B872"></path>
                    <path d="M97.489,157.158 L99.145,157.405 C99.324,157.431 99.49,157.308 99.517,157.13 C99.543,156.951 99.42,156.785 99.242,156.758 L97.586,156.511 C97.407,156.484 97.241,156.608 97.214,156.786 C97.188,156.965 97.311,157.131 97.489,157.158" id="Fill-41" fill="#77B872"></path>
                    <path d="M101.12,144.616 L103.018,143.659 C103.179,143.578 103.244,143.381 103.162,143.22 C103.081,143.059 102.885,142.994 102.723,143.075 L100.826,144.032 C100.665,144.114 100.6,144.31 100.681,144.471 C100.763,144.632 100.959,144.697 101.12,144.616" id="Fill-42" fill="#77B872"></path>
                    <path d="M99.911,147.66 L102.036,147.626 C102.217,147.623 102.361,147.474 102.358,147.294 C102.355,147.113 102.206,146.969 102.026,146.972 L99.901,147.007 C99.72,147.009 99.577,147.158 99.579,147.339 C99.582,147.519 99.731,147.663 99.911,147.66" id="Fill-43" fill="#77B872"></path>
                    <path d="M91.141,139.512 L89.118,138.153 C88.968,138.053 88.765,138.093 88.665,138.242 C88.564,138.392 88.604,138.595 88.754,138.696 L90.776,140.054 C90.926,140.155 91.129,140.115 91.23,139.965 C91.33,139.815 91.291,139.612 91.141,139.512" id="Fill-44" fill="#77B872"></path>
                    <g id="Group-47" transform="translate(72.000000, 125.307000)">
                        <mask id="mask-5" fill="white">
                            <use xlink:href="#path-4"></use>
                        </mask>
                        <use id="Clip-46" fill="#9DCC89" xlink:href="#path-4"></use>
                        <path d="M9.23,42.396 C9.23,42.396 -1.286,13.667 1.233,5.782 C3.576,-1.555 15.339,-1.519 15.947,9.101 C16.342,16.005 16.071,39.676 16.071,39.676 L9.23,42.396" id="Fill-45" mask="url(#mask-5)"></path>
                    </g>
                    <path d="M75.816,131.089 C76.724,128.245 79.048,126.515 81.588,126.074 C78.181,125.475 74.445,127.291 73.233,131.089 C70.714,138.974 81.23,167.703 81.23,167.703 L83.491,166.804 C81.753,161.913 73.561,138.15 75.816,131.089" id="Fill-48" fill="#71BD82"></path>
                    <path d="M74.722,141.372 L72.389,141.372 C72.182,141.372 72.014,141.54 72.014,141.747 C72.014,141.954 72.182,142.122 72.389,142.122 L74.722,142.122 C74.929,142.122 75.097,141.954 75.097,141.747 C75.097,141.54 74.929,141.372 74.722,141.372" id="Fill-49" fill="#77B872"></path>
                    <path d="M75.596,146.217 L72.811,146.456 C72.605,146.474 72.452,146.655 72.47,146.862 C72.487,147.068 72.669,147.221 72.875,147.203 L75.661,146.964 C75.867,146.946 76.02,146.764 76.002,146.558 C75.984,146.352 75.803,146.199 75.596,146.217" id="Fill-50" fill="#77B872"></path>
                    <path d="M76.797,150.709 L74.189,151.718 C73.996,151.793 73.9,152.01 73.975,152.203 C74.05,152.396 74.267,152.492 74.46,152.417 L77.067,151.409 C77.261,151.334 77.357,151.117 77.282,150.924 C77.207,150.73 76.99,150.634 76.797,150.709" id="Fill-51" fill="#77B872"></path>
                    <path d="M75.453,128.777 L73.574,126.707 C73.435,126.554 73.198,126.542 73.044,126.682 C72.891,126.821 72.88,127.058 73.019,127.211 L74.898,129.281 C75.037,129.434 75.274,129.446 75.427,129.306 C75.581,129.167 75.592,128.93 75.453,128.777" id="Fill-52" fill="#77B872"></path>
                    <path d="M79.927,126.893 L79.432,124.142 C79.395,123.938 79.2,123.802 78.997,123.839 C78.793,123.875 78.657,124.07 78.694,124.274 L79.189,127.026 C79.225,127.23 79.42,127.365 79.624,127.328 C79.828,127.292 79.963,127.097 79.927,126.893" id="Fill-53" fill="#77B872"></path>
                    <path d="M84.105,128.071 L84.679,125.335 C84.722,125.133 84.592,124.934 84.389,124.891 C84.186,124.849 83.988,124.978 83.945,125.181 L83.371,127.917 C83.328,128.12 83.458,128.318 83.661,128.361 C83.863,128.404 84.062,128.274 84.105,128.071" id="Fill-54" fill="#77B872"></path>
                    <path d="M86.601,130.949 L88.014,128.537 C88.119,128.358 88.059,128.128 87.88,128.023 C87.701,127.919 87.472,127.979 87.367,128.157 L85.954,130.57 C85.849,130.748 85.909,130.978 86.088,131.083 C86.266,131.187 86.496,131.127 86.601,130.949" id="Fill-55" fill="#77B872"></path>
                    <path d="M86.583,141.414 L89.378,141.446 C89.585,141.448 89.755,141.282 89.757,141.075 C89.76,140.868 89.594,140.698 89.387,140.696 L86.591,140.664 C86.384,140.662 86.214,140.828 86.212,141.035 C86.21,141.242 86.376,141.412 86.583,141.414" id="Fill-56" fill="#77B872"></path>
                    <path d="M87.203,146.148 L89.534,144.604 C89.706,144.49 89.754,144.257 89.639,144.084 C89.525,143.912 89.292,143.864 89.12,143.979 L86.789,145.523 C86.616,145.637 86.569,145.87 86.683,146.042 C86.798,146.215 87.031,146.262 87.203,146.148" id="Fill-57" fill="#77B872"></path>
                    <path d="M87.126,149.389 L89.032,149.159 C89.237,149.134 89.384,148.947 89.359,148.741 C89.334,148.536 89.147,148.389 88.942,148.414 L87.036,148.645 C86.83,148.67 86.683,148.856 86.708,149.062 C86.733,149.268 86.92,149.414 87.126,149.389" id="Fill-58" fill="#77B872"></path>
                    <path d="M87.332,134.41 L89.14,132.775 C89.294,132.636 89.306,132.399 89.167,132.245 C89.028,132.092 88.791,132.08 88.637,132.219 L86.829,133.854 C86.675,133.993 86.664,134.23 86.802,134.384 C86.941,134.537 87.178,134.549 87.332,134.41" id="Fill-59" fill="#77B872"></path>
                    <path d="M86.92,138.146 L89.26,137.462 C89.459,137.404 89.573,137.196 89.515,136.997 C89.457,136.798 89.248,136.684 89.05,136.742 L86.709,137.426 C86.51,137.484 86.396,137.692 86.454,137.891 C86.513,138.09 86.721,138.204 86.92,138.146" id="Fill-60" fill="#77B872"></path>
                    <path d="M74.741,131.796 L72.09,130.907 C71.894,130.841 71.681,130.947 71.615,131.143 C71.549,131.34 71.655,131.552 71.852,131.618 L74.502,132.507 C74.699,132.573 74.911,132.467 74.977,132.27 C75.043,132.074 74.937,131.862 74.741,131.796" id="Fill-61" fill="#77B872"></path>
                    <path d="M74.195,135.421 L71.414,135.706 C71.208,135.728 71.058,135.912 71.08,136.118 C71.101,136.324 71.285,136.474 71.491,136.452 L74.272,136.167 C74.478,136.146 74.628,135.962 74.606,135.756 C74.585,135.55 74.401,135.4 74.195,135.421" id="Fill-62" fill="#77B872"></path>
                    <path d="M77.952,132.09 C77.952,132.372 77.724,132.6 77.442,132.6 C77.161,132.6 76.932,132.372 76.932,132.09 C76.932,131.808 77.161,131.58 77.442,131.58 C77.724,131.58 77.952,131.808 77.952,132.09" id="Fill-63" fill="#77B872"></path>
                    <path d="M82.469,134.474 C82.469,134.945 82.088,135.326 81.617,135.326 C81.147,135.326 80.766,134.945 80.766,134.474 C80.766,134.004 81.147,133.622 81.617,133.622 C82.088,133.622 82.469,134.004 82.469,134.474" id="Fill-64" fill="#77B872"></path>
                    <path d="M85.649,143.548 C85.104,144.29 84.061,144.45 83.319,143.905 C82.577,143.36 82.417,142.317 82.962,141.575 C83.507,140.833 84.55,140.673 85.292,141.218 C86.034,141.763 86.194,142.806 85.649,143.548" id="Fill-65" fill="#77B872"></path>
                    <path d="M82.604,150.114 C82.221,150.636 81.577,150.815 81.167,150.514 C80.756,150.212 80.734,149.545 81.118,149.023 C81.501,148.5 82.145,148.322 82.555,148.622 C82.965,148.924 82.987,149.592 82.604,150.114" id="Fill-66" fill="#77B872"></path>
                    <path d="M80.518,137.829 C80.518,138.231 80.192,138.557 79.79,138.557 C79.389,138.557 79.063,138.231 79.063,137.829 C79.063,137.428 79.389,137.102 79.79,137.102 C80.192,137.102 80.518,137.428 80.518,137.829" id="Fill-67" fill="#77B872"></path>
                    <polyline id="Fill-68" fill="#926F52" points="72.843 162.683 75.3 190.238 78.966 190.238 78.707 188.803 85.347 188.803 85.473 190.238 91.149 190.238 91.455 188.803 96.66 188.803 96.584 190.238 99.899 190.238 102.355 162.683 72.843 162.683"></polyline>
                    <polyline id="Fill-69" fill="#A67E5D" points="77.826 162.683 72.843 162.683 75.3 190.238 78.966 190.238 78.707 188.803 80.614 188.803 77.826 162.683"></polyline>
                    <g id="Group-72" transform="translate(72.000000, 162.307000)">
                        <mask id="mask-7" fill="white">
                            <use xlink:href="#path-6"></use>
                        </mask>
                        <g id="Clip-71"></g>
                        <polyline id="Fill-70" fill="url(#linearGradient-8)" mask="url(#mask-7)" points="1.104 3.304 29.941 5.027 30.355 0.376 0.843 0.376 1.104 3.304"></polyline>
                    </g>
                    <polyline id="Fill-73" fill="#C58453" points="102.788 165.05 103.235 160.034 71.963 160.034 72.411 165.05 102.788 165.05"></polyline>
                    <polyline id="Fill-74" fill="#D49C6E" points="76.883 160.034 71.963 160.034 72.411 165.05 77.48 165.05 76.883 160.034"></polyline>
                    <g id="Group-78" transform="translate(259.000000, 169.307000)">
                        <mask id="mask-10" fill="white">
                            <use xlink:href="#path-9"></use>
                        </mask>
                        <g id="Clip-77"></g>
                        <path d="M29.709,69.247 C18.999,69.247 8.826,64.435 1.783,55.666 C-0.118,53.301 0.261,49.842 2.627,47.94 C3.64,47.126 4.856,46.729 6.064,46.729 C7.672,46.729 9.267,47.432 10.353,48.784 C12.121,50.986 14.066,52.737 16.106,54.104 C16.533,56.801 16.638,61.399 13.777,65.447 C16.694,66.924 19.795,67.973 22.997,68.591 C24.892,65.046 25.697,61.31 25.827,57.9 C27.181,58.115 28.524,58.214 29.832,58.214 C30.247,58.214 30.658,58.204 31.066,58.185 C31.545,61.426 31.548,65.381 30.103,69.24 C30.896,69.231 31.688,69.201 32.484,69.14 C31.556,69.211 30.631,69.247 29.709,69.247 M39.172,67.993 C39.589,67.881 39.993,67.746 40.402,67.62 C41.168,63.361 40.945,59.296 40.362,55.915 C41.87,55.209 43.252,54.36 44.49,53.385 C46.075,56.277 47.556,60.188 47.51,64.55 C50.877,62.598 53.786,60.104 56.124,57.192 C54.818,52.022 52.398,47.805 50.493,45.088 C50.856,44.058 51.129,42.983 51.305,41.87 C51.599,40.01 51.703,38.213 51.648,36.472 C51.435,29.669 48.803,23.733 45.667,18.333 C44.752,16.759 43.795,15.23 42.842,13.739 C45.706,9.89 47.181,5.363 47.656,0.687 C48.586,2.352 49.79,4.222 51.03,6.149 C53.306,9.685 55.913,13.734 58.08,18.333 C60.578,23.633 62.493,29.661 62.645,36.472 C62.696,38.755 62.549,41.127 62.16,43.588 C60.299,55.353 51.492,64.702 39.172,67.993 M36.129,57.428 C36.188,57.413 36.247,57.397 36.306,57.382 C36.319,57.378 36.331,57.375 36.344,57.371 C36.331,57.375 36.319,57.378 36.306,57.382 C36.247,57.397 36.188,57.413 36.129,57.428" id="Fill-76" fill="url(#linearGradient-11)" mask="url(#mask-10)"></path>
                    </g>
                    <g id="Group-81" transform="translate(144.000000, 125.307000)">
                        <mask id="mask-13" fill="white">
                            <use xlink:href="#path-12"></use>
                        </mask>
                        <g id="Clip-80"></g>
                        <path d="M101.14,70.423 C97.404,70.423 94.375,69.533 93.601,67.464 C93.077,66.065 95.746,64.552 98.491,63.401 C98.491,63.401 110.693,58.472 113.021,53.79 C114.616,50.584 115.301,35.302 123.974,31.397 C123.974,31.397 113.071,31.397 105.213,46.358 C99.299,57.621 86.269,62.905 80.62,63.401 C70.998,63.401 61.349,63.401 52.407,63.401 C53.042,62.056 54.152,61.38 54.221,61.342 C54.506,61.18 54.606,60.817 54.444,60.531 C54.335,60.339 54.134,60.231 53.927,60.231 C53.829,60.231 53.729,60.256 53.638,60.307 C53.542,60.358 51.831,61.347 51.103,63.401 C50.217,63.401 49.339,63.401 48.469,63.401 C49.12,60.442 51.719,59.296 51.845,59.243 C52.147,59.112 52.287,58.765 52.159,58.462 C52.063,58.237 51.839,58.099 51.609,58.099 C51.533,58.099 51.456,58.114 51.383,58.146 C51.227,58.211 47.964,59.657 47.28,63.401 C46.676,63.401 46.072,63.401 45.476,63.401 C45.476,63.401 46.673,56.667 54.19,54.81 L54.198,54.8 C83.597,48.616 69.461,14.039 69.387,13.858 C71.347,13.162 73.435,12.394 75.591,11.583 C78.723,14.952 84.044,21.389 87.06,29.056 C88.679,33.168 90.827,34.592 92.778,34.592 C95.008,34.592 96.98,32.735 97.613,30.908 C98.612,28.031 96.664,12.823 91.792,5.284 C93.466,4.623 95.1,3.975 96.672,3.355 C97.048,3.207 97.434,3.063 97.831,2.923 C98.637,2.639 99.487,2.374 100.373,2.128 C104.791,0.906 110.147,0.181 115.842,0.181 C120.991,0.181 126.416,0.774 131.668,2.128 C133.367,2.566 135.046,3.083 136.693,3.686 C144.97,6.714 152.416,11.896 157.114,19.952 C160.821,26.308 163.56,35.77 162.656,44.687 C162.181,49.363 160.706,53.89 157.842,57.739 C157.64,58.011 157.43,58.281 157.214,58.546 C156.017,60.012 154.173,61.262 151.884,62.333 C139.044,68.339 112.231,68.687 107.52,69.7 C105.348,70.167 103.143,70.423 101.14,70.423 M102.659,66.277 C102.594,66.277 102.528,66.287 102.465,66.31 C102.315,66.364 99.365,67.492 97.706,70.083 C98.123,70.169 98.544,70.249 99.003,70.299 C100.497,68.341 102.84,67.438 102.871,67.427 C103.178,67.315 103.338,66.974 103.225,66.665 C103.135,66.422 102.9,66.277 102.659,66.277 M100.774,64.718 C100.737,64.718 100.699,64.722 100.66,64.728 C100.477,64.765 96.831,65.543 93.841,67.837 C94.032,68.178 94.278,68.486 94.598,68.755 C97.377,66.645 100.853,65.901 100.893,65.894 C101.216,65.829 101.425,65.516 101.359,65.195 C101.304,64.911 101.061,64.718 100.774,64.718 M112.798,0.283 C106.59,0.569 100.92,1.679 96.672,3.355 C96.581,3.391 96.484,3.429 96.394,3.465 C98.621,7.676 101.344,13.868 102.381,20.525 C103.169,25.584 105.439,27.276 107.66,27.276 C109.546,27.276 111.397,26.055 112.274,24.639 C113.761,22.236 115.091,8.922 112.798,0.283 M116.128,0.211 C117.296,4.322 118.309,9.372 118.296,14.542 C118.282,20.216 120.713,22.091 123.173,22.091 C124.817,22.091 126.475,21.252 127.424,20.151 C128.88,18.462 131.308,10.03 131.818,2.179 C126.611,0.821 121.245,0.232 116.128,0.211 M40.761,63.401 C40.092,63.401 39.429,63.401 38.774,63.401 L38.777,63.393 C38.717,59.321 33.975,57.747 33.773,57.682 C33.715,57.664 33.656,57.655 33.598,57.655 C33.347,57.655 33.108,57.813 33.025,58.067 C32.925,58.379 33.097,58.713 33.411,58.815 C33.45,58.827 37.529,60.179 37.586,63.401 C36.512,63.401 35.458,63.401 34.428,63.401 C34.087,60.927 31.348,60.229 29.839,60.229 C29.511,60.229 29.244,60.494 29.244,60.824 C29.244,61.151 29.509,61.416 29.839,61.419 C29.97,61.419 32.782,61.478 33.218,63.401 C20.269,63.401 11.206,63.401 9.931,63.401 C8.133,63.401 6.365,63.107 4.847,62.333 C2.232,60.999 0.361,58.238 0.361,53.097 C0.361,44.971 9.931,39.026 9.931,39.026 C9.931,39.026 9.975,38.988 10.059,38.916 C10.067,38.932 10.074,38.946 10.082,38.962 L9.931,39.026 C9.931,39.026 14.208,52.187 33.064,55.389 L33.046,55.391 C37.243,55.873 40.942,59.704 40.761,63.401 M66.352,15.142 C66.327,15.074 66.302,15.004 66.277,14.936 C67.266,14.603 68.301,14.243 69.375,13.862 L66.352,15.142" id="Fill-79" fill="url(#linearGradient-14)" mask="url(#mask-13)"></path>
                    </g>
                    <path d="M213.375,139.169 L213.387,139.164 C213.387,139.164 213.387,139.164 213.387,139.165 C213.383,139.166 213.379,139.168 213.375,139.169" id="Fill-82" fill="#CBB6A9"></path>
                    <g id="Group-85" transform="translate(153.000000, 138.307000)">
                        <mask id="mask-16" fill="white">
                            <use xlink:href="#path-15"></use>
                        </mask>
                        <g id="Clip-84"></g>
                        <path d="M36.476,50.401 C34.871,50.401 33.297,50.401 31.761,50.401 C31.942,46.704 28.243,42.873 24.046,42.391 L24.064,42.389 C5.208,39.187 0.931,26.026 0.931,26.026 L1.082,25.962 C5.932,35.984 15.206,38.852 23.811,38.853 C27.833,38.853 31.707,38.227 34.917,37.412 C45.572,34.709 61.682,26.686 58.916,8.334 C58.595,6.207 58.065,4.136 57.352,2.142 L60.375,0.862 C60.379,0.861 60.383,0.859 60.387,0.858 C60.461,1.039 74.597,35.616 45.198,41.8 L45.19,41.81 C37.673,43.667 36.476,50.401 36.476,50.401" id="Fill-83" fill="url(#linearGradient-17)" mask="url(#mask-16)"></path>
                    </g>
                    <g id="Group-88" transform="translate(146.000000, 112.307000)">
                        <mask id="mask-19" fill="white">
                            <use xlink:href="#path-18"></use>
                        </mask>
                        <g id="Clip-87"></g>
                        <path d="M6.291,28.27 C4.843,25.066 2.975,20.378 1.694,15.128 C0.829,11.583 0.231,7.78 0.211,4.008 C0.21,3.892 0.21,3.778 0.211,3.663 C0.212,3.396 0.216,3.13 0.223,2.864 C0.265,1.273 1.564,0.053 3.087,0.053 C3.27,0.053 3.455,0.07 3.642,0.106 C5.928,0.552 9.237,1.528 12.872,3.663 C13.155,3.829 13.44,4.002 13.726,4.183 C15.779,5.475 17.916,7.143 20.017,9.295 C18.916,9.972 17.866,10.724 16.871,11.544 C13.062,7.386 8.963,6.014 6.64,5.561 C6.528,5.539 6.418,5.528 6.309,5.528 C5.403,5.528 4.631,6.255 4.605,7.201 C4.446,13.184 6.873,19.411 8.369,22.655 C7.524,24.453 6.828,26.334 6.291,28.27" id="Fill-86" fill="url(#linearGradient-20)" mask="url(#mask-19)"></path>
                    </g>
                    <g id="Group-91" transform="translate(150.000000, 117.307000)">
                        <mask id="mask-22" fill="white">
                            <use xlink:href="#path-21"></use>
                        </mask>
                        <g id="Clip-90"></g>
                        <path d="M4.369,17.655 C2.873,14.411 0.446,8.184 0.605,2.201 C0.631,1.255 1.403,0.528 2.309,0.528 C2.418,0.528 2.528,0.539 2.64,0.561 C4.963,1.014 9.062,2.386 12.871,6.544 C9.281,9.502 6.397,13.341 4.369,17.655" id="Fill-89" fill="url(#linearGradient-23)" mask="url(#mask-22)"></path>
                    </g>
                    <g id="Group-94" transform="translate(181.000000, 100.307000)">
                        <mask id="mask-25" fill="white">
                            <use xlink:href="#path-24"></use>
                        </mask>
                        <g id="Clip-93"></g>
                        <path d="M21.482,27.537 C20.088,26.091 18.579,24.77 16.978,23.591 C16.747,20.027 15.913,13.395 12.92,8.212 C12.598,7.653 12.019,7.35 11.431,7.35 C11.053,7.35 10.67,7.475 10.35,7.74 C8.524,9.245 5.575,12.406 4.208,17.877 C2.943,17.631 1.661,17.47 0.371,17.4 C0.461,17.084 0.553,16.773 0.649,16.467 C0.734,16.195 0.821,15.927 0.911,15.663 C3.426,8.226 7.653,3.769 10.385,1.516 C10.923,1.072 11.566,0.861 12.202,0.861 C13.19,0.861 14.163,1.371 14.705,2.31 C17.113,6.481 18.689,11.209 19.721,15.663 C19.803,16.016 19.881,16.368 19.956,16.717 C20.804,20.659 21.234,24.329 21.452,27.128 C21.452,27.136 21.453,27.142 21.453,27.149 C21.463,27.28 21.473,27.41 21.482,27.537" id="Fill-92" fill="url(#linearGradient-26)" mask="url(#mask-25)"></path>
                    </g>
                    <g id="Group-97" transform="translate(185.000000, 107.307000)">
                        <mask id="mask-28" fill="white">
                            <use xlink:href="#path-27"></use>
                        </mask>
                        <g id="Clip-96"></g>
                        <path d="M12.978,16.591 C9.139,13.764 4.775,11.766 0.208,10.877 C1.575,5.406 4.524,2.245 6.35,0.74 C6.67,0.475 7.053,0.35 7.431,0.35 C8.019,0.35 8.598,0.653 8.92,1.212 C11.913,6.395 12.747,13.027 12.978,16.591" id="Fill-95" fill="url(#linearGradient-29)" mask="url(#mask-28)"></path>
                    </g>
                    <g id="Group-100" transform="translate(150.000000, 117.307000)">
                        <mask id="mask-31" fill="white">
                            <use xlink:href="#path-30"></use>
                        </mask>
                        <g id="Clip-99"></g>
                        <path d="M26.811,59.853 C18.206,59.852 8.932,56.984 4.082,46.962 C4.074,46.946 4.067,46.932 4.059,46.916 C3.662,46.09 3.294,45.216 2.959,44.291 C0.484,37.454 0.414,30.033 2.291,23.27 C2.828,21.334 3.524,19.453 4.369,17.655 C6.397,13.341 9.281,9.502 12.871,6.544 C13.866,5.724 14.916,4.972 16.017,4.295 C18.271,2.91 20.739,1.844 23.396,1.17 C25.562,0.621 27.742,0.36 29.906,0.36 C30.395,0.36 30.884,0.373 31.371,0.4 C32.661,0.47 33.943,0.631 35.208,0.877 C39.775,1.766 44.139,3.764 47.978,6.591 C49.579,7.77 51.088,9.091 52.482,10.537 C55.864,14.041 58.574,18.272 60.277,22.936 C60.302,23.004 60.327,23.074 60.352,23.142 C61.065,25.136 61.595,27.207 61.916,29.334 C64.682,47.686 48.572,55.709 37.917,58.412 C34.707,59.227 30.833,59.853 26.811,59.853 M31.025,46.885 C30.753,46.885 30.5,47.076 30.442,47.358 C30.375,47.68 30.582,47.994 30.901,48.061 C30.984,48.079 31.809,48.245 32.967,48.245 C33.739,48.245 34.659,48.171 35.607,47.931 C36.843,47.617 38.128,47.019 39.191,45.93 C39.419,45.696 39.415,45.319 39.179,45.089 C39.065,44.976 38.916,44.92 38.767,44.92 C38.613,44.92 38.457,44.98 38.339,45.101 C36.762,46.72 34.507,47.047 32.944,47.047 C31.899,47.047 31.163,46.901 31.145,46.897 C31.105,46.889 31.065,46.885 31.025,46.885 M34.436,31.415 C33.378,31.415 32.279,31.549 31.173,31.829 C25.662,33.228 22.054,37.755 23.117,41.942 C23.644,44.022 24.993,44.715 26.891,44.715 C28.817,44.715 31.308,44.002 34.083,43.298 C39.595,41.899 44.14,41.066 43.077,36.879 C42.228,33.531 38.653,31.415 34.436,31.415 M16.658,32.348 C16.156,32.348 15.645,32.41 15.136,32.539 C11.832,33.378 9.833,36.736 10.671,40.04 C11.38,42.836 13.892,44.697 16.65,44.697 C17.153,44.697 17.663,44.635 18.172,44.506 C21.477,43.667 23.476,40.309 22.637,37.005 C21.928,34.209 19.416,32.348 16.658,32.348 M47.132,24.617 C46.63,24.617 46.119,24.679 45.609,24.808 C42.305,25.646 40.306,29.005 41.144,32.31 C41.854,35.104 44.366,36.965 47.124,36.965 C47.626,36.965 48.136,36.904 48.646,36.774 C51.95,35.937 53.949,32.578 53.11,29.273 C52.402,26.478 49.89,24.617 47.132,24.617" id="Fill-98" fill="url(#linearGradient-32)" mask="url(#mask-31)"></path>
                    </g>
                    <path d="M193.077,154.186 C194.14,158.373 189.595,159.206 184.083,160.605 C178.571,162.003 174.179,163.437 173.117,159.249 C172.054,155.062 175.662,150.535 181.173,149.136 C186.686,147.738 192.015,149.998 193.077,154.186" id="Fill-101" fill="#FFFAF2"></path>
                    <path d="M194.141,137.498 C190.56,137.279 187.12,138.87 184.982,141.756 C183.997,143.086 185.896,144.87 186.895,143.521 C188.67,141.125 191.229,139.918 194.213,140.1 C195.888,140.203 195.801,137.599 194.141,137.498" id="Fill-102" fill="#6F4033"></path>
                    <path d="M164.985,144.895 C168.029,142.995 171.811,142.754 175.066,144.271 C176.566,144.971 175.747,147.445 174.226,146.736 C171.523,145.476 168.698,145.634 166.163,147.217 C164.739,148.106 163.574,145.776 164.985,144.895" id="Fill-103" fill="#6F4033"></path>
                    <path d="M182.97,156.218 C180.035,156.963 177.597,155.394 177.429,153.536 C177.262,151.678 179.409,151.248 181.57,150.701 C183.731,150.152 185.824,149.506 186.563,151.219 C187.301,152.932 185.906,155.474 182.97,156.218" id="Fill-104" fill="#6F4033"></path>
                    <g id="Group-107" transform="translate(160.000000, 149.307000)">
                        <mask id="mask-34" fill="white">
                            <use xlink:href="#path-33"></use>
                        </mask>
                        <g id="Clip-106"></g>
                        <path d="M6.65,12.697 C3.892,12.697 1.38,10.836 0.671,8.04 C-0.167,4.736 1.832,1.378 5.136,0.539 C5.645,0.41 6.156,0.348 6.658,0.348 C9.416,0.348 11.928,2.209 12.637,5.005 C13.476,8.309 11.477,11.667 8.172,12.506 C7.663,12.635 7.153,12.697 6.65,12.697" id="Fill-105" fill="url(#linearGradient-35)" mask="url(#mask-34)"></path>
                    </g>
                    <g id="Group-110" transform="translate(190.000000, 141.307000)">
                        <mask id="mask-37" fill="white">
                            <use xlink:href="#path-36"></use>
                        </mask>
                        <g id="Clip-109"></g>
                        <path d="M7.124,12.965 C4.366,12.965 1.854,11.104 1.144,8.31 C0.306,5.005 2.305,1.646 5.609,0.808 C6.119,0.679 6.63,0.617 7.132,0.617 C9.89,0.617 12.402,2.478 13.11,5.273 C13.949,8.578 11.95,11.937 8.646,12.774 C8.136,12.904 7.626,12.965 7.124,12.965" id="Fill-108" fill="url(#linearGradient-38)" mask="url(#mask-37)"></path>
                    </g>
                    <path d="M156.458,159.36 C156.313,159.397 156.157,159.376 156.022,159.288 C155.77,159.122 155.698,158.784 155.863,158.529 C158.343,154.722 163.243,154.745 163.453,154.748 C163.755,154.751 163.998,155 163.994,155.304 C163.991,155.606 163.758,155.86 163.438,155.845 C163.398,155.845 158.927,155.837 156.782,159.129 C156.705,159.249 156.585,159.328 156.458,159.36" id="Fill-111" fill="#6F4033"></path>
                    <path d="M160.406,163.809 C160.3,163.836 160.189,163.832 160.078,163.791 C159.795,163.686 159.65,163.37 159.757,163.084 C160.932,159.941 164.387,158.187 164.534,158.114 C164.821,157.971 165.137,158.09 165.27,158.361 C165.405,158.63 165.295,158.96 165.023,159.096 C164.991,159.112 161.806,160.735 160.785,163.471 C160.719,163.646 160.575,163.766 160.406,163.809" id="Fill-112" fill="#6F4033"></path>
                    <path d="M207.773,146.341 C207.646,146.373 207.504,146.362 207.378,146.293 C203.91,144.41 200.001,146.557 199.961,146.578 C199.707,146.737 199.364,146.634 199.215,146.369 C199.067,146.104 199.161,145.768 199.426,145.622 C199.608,145.519 203.912,143.169 207.899,145.327 C208.167,145.472 208.266,145.804 208.122,146.071 C208.045,146.212 207.918,146.304 207.773,146.341" id="Fill-113" fill="#6F4033"></path>
                    <path d="M206.424,152.134 C206.255,152.177 206.07,152.14 205.929,152.015 C203.729,150.099 200.154,150.191 200.119,150.193 C199.814,150.203 199.56,149.965 199.551,149.663 C199.538,149.36 199.758,149.101 200.08,149.096 C200.244,149.09 204.119,148.984 206.648,151.191 C206.879,151.389 206.902,151.735 206.701,151.963 C206.625,152.052 206.529,152.108 206.424,152.134" id="Fill-114" fill="#6F4033"></path>
                    <g id="Group-117" transform="translate(180.000000, 161.307000)">
                        <mask id="mask-40" fill="white">
                            <use xlink:href="#path-39"></use>
                        </mask>
                        <g id="Clip-116"></g>
                        <path d="M2.967,4.245 C1.809,4.245 0.984,4.079 0.901,4.061 C0.582,3.994 0.375,3.68 0.442,3.358 C0.5,3.076 0.753,2.885 1.025,2.885 C1.065,2.885 1.105,2.889 1.145,2.897 C1.163,2.901 1.899,3.047 2.944,3.047 C4.507,3.047 6.762,2.72 8.339,1.101 C8.457,0.98 8.613,0.92 8.767,0.92 C8.916,0.92 9.065,0.976 9.179,1.089 C9.415,1.319 9.419,1.696 9.191,1.93 C8.128,3.019 6.843,3.617 5.607,3.931 C4.659,4.171 3.739,4.245 2.967,4.245" id="Fill-115" fill="url(#linearGradient-41)" mask="url(#mask-40)"></path>
                    </g>
                    <g id="Group-120" transform="translate(240.000000, 125.307000)">
                        <mask id="mask-43" fill="white">
                            <use xlink:href="#path-42"></use>
                        </mask>
                        <g id="Clip-119"></g>
                        <path d="M11.66,27.276 C9.439,27.276 7.169,25.584 6.381,20.525 C5.344,13.868 2.621,7.676 0.394,3.465 C0.484,3.429 0.581,3.391 0.672,3.355 C4.92,1.679 10.59,0.569 16.798,0.283 C19.091,8.922 17.761,22.236 16.274,24.639 C15.397,26.055 13.546,27.276 11.66,27.276" id="Fill-118" fill="url(#linearGradient-44)" mask="url(#mask-43)"></path>
                    </g>
                    <g id="Group-123" transform="translate(260.000000, 125.307000)">
                        <mask id="mask-46" fill="white">
                            <use xlink:href="#path-45"></use>
                        </mask>
                        <g id="Clip-122"></g>
                        <path d="M7.173,22.091 C4.713,22.091 2.282,20.216 2.296,14.542 C2.309,9.372 1.296,4.322 0.128,0.211 C5.245,0.232 10.611,0.821 15.818,2.179 C15.308,10.03 12.88,18.462 11.424,20.151 C10.475,21.252 8.817,22.091 7.173,22.091" id="Fill-121" fill="url(#linearGradient-47)" mask="url(#mask-46)"></path>
                    </g>
                    <path d="M219.591,136.89 C219.591,136.889 219.591,136.889 219.591,136.889 C224.843,134.913 230.502,132.683 235.792,130.591 C230.506,132.682 224.839,134.916 219.591,136.89" id="Fill-124" fill="#F0AD96"></path>
                    <g id="Group-127" transform="translate(219.000000, 130.307000)">
                        <mask id="mask-49" fill="white">
                            <use xlink:href="#path-48"></use>
                        </mask>
                        <g id="Clip-126"></g>
                        <path d="M17.778,29.592 C15.827,29.592 13.679,28.168 12.06,24.056 C9.044,16.389 3.723,9.952 0.591,6.583 C5.839,4.609 11.506,2.375 16.792,0.284 C21.664,7.823 23.612,23.031 22.613,25.908 C21.98,27.735 20.008,29.592 17.778,29.592" id="Fill-125" fill="url(#linearGradient-50)" mask="url(#mask-49)"></path>
                    </g>
                    <g id="Group-130" transform="translate(224.000000, 156.307000)">
                        <mask id="mask-52" fill="white">
                            <use xlink:href="#path-51"></use>
                        </mask>
                        <g id="Clip-129"></g>
                        <path d="M18.491,32.401 L18.491,32.401 C12.664,32.401 6.647,32.401 0.62,32.401 C6.269,31.905 19.299,26.621 25.213,15.358 C33.071,0.397 43.974,0.397 43.974,0.397 C35.301,4.302 34.616,19.584 33.021,22.79 C30.693,27.472 18.491,32.401 18.491,32.401" id="Fill-128" fill="url(#linearGradient-53)" mask="url(#mask-52)"></path>
                    </g>
                    <path d="M291.484,238.447 L291.484,238.447 C293.693,238.276 295.917,237.9 298.131,237.311 C298.144,237.307 298.158,237.303 298.172,237.3 C298.158,237.304 298.145,237.307 298.131,237.311 C295.917,237.9 293.693,238.276 291.484,238.447 M290.066,227.492 C290.066,227.488 290.065,227.484 290.064,227.48 C291.848,227.394 293.558,227.139 295.129,226.735 C293.557,227.14 291.85,227.406 290.066,227.492 M295.344,226.678 C296.774,226.295 298.091,225.766 299.353,225.173 C299.356,225.19 299.359,225.206 299.362,225.222 C298.107,225.81 296.765,226.298 295.344,226.678" id="Fill-131" fill="#F0AD96"></path>
                    <g id="Group-134" transform="translate(289.000000, 224.307000)">
                        <mask id="mask-55" fill="white">
                            <use xlink:href="#path-54"></use>
                        </mask>
                        <g id="Clip-133"></g>
                        <path d="M0.103,14.24 C1.548,10.381 1.545,6.426 1.066,3.185 C2.85,3.099 4.557,2.833 6.129,2.428 C6.188,2.413 6.247,2.397 6.306,2.382 C6.319,2.378 6.331,2.375 6.344,2.371 C7.765,1.991 9.107,1.503 10.362,0.915 C10.945,4.296 11.168,8.361 10.402,12.62 C9.993,12.746 9.589,12.881 9.172,12.993 C9.158,12.996 9.144,13 9.131,13.004 C6.917,13.593 4.693,13.969 2.484,14.14 C1.688,14.201 0.896,14.231 0.103,14.24" id="Fill-132" fill="url(#linearGradient-56)" mask="url(#mask-55)"></path>
                    </g>
                    <path d="M284.827,227.207 C281.562,226.689 278.223,225.5 275.106,223.411 C275.105,223.404 275.104,223.397 275.102,223.39 C278.224,225.483 281.56,226.674 284.827,227.192 C284.827,227.197 284.827,227.202 284.827,227.207" id="Fill-135" fill="#F0AD96"></path>
                    <g id="Group-138" transform="translate(272.000000, 223.307000)">
                        <mask id="mask-58" fill="white">
                            <use xlink:href="#path-57"></use>
                        </mask>
                        <g id="Clip-137"></g>
                        <path d="M9.997,14.591 C6.795,13.973 3.694,12.924 0.777,11.447 C3.638,7.399 3.533,2.801 3.106,0.104 C6.223,2.193 9.562,3.382 12.827,3.9 C12.697,7.31 11.892,11.046 9.997,14.591" id="Fill-136" fill="url(#linearGradient-59)" mask="url(#mask-58)"></path>
                    </g>
                    <path d="M303.49,222.692 C303.488,222.688 303.486,222.685 303.484,222.681 C306.275,220.484 308.322,217.643 309.472,214.365 C309.479,214.375 309.486,214.385 309.493,214.395 C308.341,217.668 306.278,220.499 303.49,222.692" id="Fill-139" fill="#F0AD96"></path>
                    <g id="Group-142" transform="translate(303.000000, 214.307000)">
                        <mask id="mask-61" fill="white">
                            <use xlink:href="#path-60"></use>
                        </mask>
                        <g id="Clip-141"></g>
                        <path d="M3.51,19.55 C3.556,15.188 2.075,11.277 0.49,8.385 C3.278,6.192 5.341,3.361 6.493,0.088 C8.398,2.805 10.818,7.022 12.124,12.192 C9.786,15.104 6.877,17.598 3.51,19.55" id="Fill-140" fill="url(#linearGradient-62)" mask="url(#mask-61)"></path>
                    </g>
                    <g id="Group-145" transform="translate(173.000000, 185.307000)">
                        <mask id="mask-64" fill="white">
                            <use xlink:href="#path-63"></use>
                        </mask>
                        <g id="Clip-144"></g>
                        <path d="M5.428,3.401 C5.021,3.401 4.618,3.401 4.218,3.401 C3.782,1.478 0.97,1.419 0.839,1.419 C0.509,1.416 0.244,1.151 0.244,0.824 C0.244,0.494 0.511,0.229 0.839,0.229 C2.348,0.229 5.087,0.927 5.428,3.401" id="Fill-143" fill="url(#linearGradient-65)" mask="url(#mask-64)"></path>
                    </g>
                    <g id="Group-148" transform="translate(176.000000, 182.307000)">
                        <mask id="mask-67" fill="white">
                            <use xlink:href="#path-66"></use>
                        </mask>
                        <g id="Clip-147"></g>
                        <path d="M6.774,6.401 C6.374,6.401 5.981,6.401 5.586,6.401 C5.529,3.179 1.45,1.827 1.411,1.815 C1.097,1.713 0.925,1.379 1.025,1.067 C1.108,0.813 1.347,0.655 1.598,0.655 C1.656,0.655 1.715,0.664 1.773,0.682 C1.975,0.747 6.717,2.321 6.777,6.393 L6.774,6.401" id="Fill-146" fill="url(#linearGradient-68)" mask="url(#mask-67)"></path>
                    </g>
                    <g id="Group-151" transform="translate(191.000000, 183.307000)">
                        <mask id="mask-70" fill="white">
                            <use xlink:href="#path-69"></use>
                        </mask>
                        <g id="Clip-150"></g>
                        <path d="M1.469,5.401 C1.07,5.401 0.676,5.401 0.28,5.401 C0.964,1.657 4.227,0.211 4.383,0.146 C4.456,0.114 4.533,0.099 4.609,0.099 C4.839,0.099 5.063,0.237 5.159,0.462 C5.287,0.765 5.147,1.112 4.845,1.243 C4.719,1.296 2.12,2.442 1.469,5.401" id="Fill-149" fill="url(#linearGradient-71)" mask="url(#mask-70)"></path>
                    </g>
                    <g id="Group-154" transform="translate(195.000000, 185.307000)">
                        <mask id="mask-73" fill="white">
                            <use xlink:href="#path-72"></use>
                        </mask>
                        <g id="Clip-153"></g>
                        <path d="M1.407,3.401 C0.97,3.401 0.536,3.401 0.103,3.401 C0.831,1.347 2.542,0.358 2.638,0.307 C2.729,0.256 2.829,0.231 2.927,0.231 C3.134,0.231 3.335,0.339 3.444,0.531 C3.606,0.817 3.506,1.18 3.221,1.342 C3.152,1.38 2.042,2.056 1.407,3.401" id="Fill-152" fill="url(#linearGradient-74)" mask="url(#mask-73)"></path>
                    </g>
                    <g id="Group-157" transform="translate(241.000000, 191.307000)">
                        <mask id="mask-76" fill="white">
                            <use xlink:href="#path-75"></use>
                        </mask>
                        <g id="Clip-156"></g>
                        <path d="M2.003,4.299 C1.544,4.249 1.123,4.169 0.706,4.083 C2.365,1.492 5.315,0.364 5.465,0.31 C5.528,0.287 5.594,0.277 5.659,0.277 C5.9,0.277 6.135,0.422 6.225,0.665 C6.338,0.974 6.178,1.315 5.871,1.427 C5.84,1.438 3.497,2.341 2.003,4.299" id="Fill-155" fill="url(#linearGradient-77)" mask="url(#mask-76)"></path>
                    </g>
                    <g id="Group-160" transform="translate(237.000000, 189.307000)">
                        <mask id="mask-79" fill="white">
                            <use xlink:href="#path-78"></use>
                        </mask>
                        <g id="Clip-159"></g>
                        <path d="M1.598,4.755 C1.278,4.486 1.032,4.178 0.841,3.837 C3.831,1.543 7.477,0.765 7.66,0.728 C7.699,0.722 7.737,0.718 7.774,0.718 C8.061,0.718 8.304,0.911 8.359,1.195 C8.425,1.516 8.216,1.829 7.893,1.894 C7.853,1.901 4.377,2.645 1.598,4.755" id="Fill-158" fill="url(#linearGradient-80)" mask="url(#mask-79)"></path>
                    </g>
                    <text id="WINGS" font-family="Inter-Medium, Inter" font-size="28" font-weight="400" line-spacing="34" fill="#172B4D">
                        <tspan x="155" y="81">WINGS</tspan>
                    </text>
                </g>
            </g>
        </g>
    </g>
</svg>