<?xml version="1.0" encoding="UTF-8"?>
<svg width="20px" height="20px" viewBox="0 0 20 20" version="1.1" xmlns="http://www.w3.org/2000/svg" xmlns:xlink="http://www.w3.org/1999/xlink">
    <!-- Generator: sketchtool 53 (72520) - https://sketchapp.com -->
    <title>BE4F8C39-14AF-452E-8ED3-1E3E598B0C7C</title>
    <desc>Created with sketchtool.</desc>
    <defs>
        <path d="M19,4 L16,4 L16,1 C16,0.447 15.552,0 15,0 L5,0 C4.448,0 4,0.447 4,1 L4,4 L1,4 C0.448,4 0,4.447 0,5 L0,15 C0,15.553 0.448,16 1,16 L4,16 L4,19 C4,19.553 4.448,20 5,20 L15,20 C15.552,20 16,19.553 16,19 L16,16 L19,16 C19.552,16 20,15.553 20,15 L20,5 C20,4.447 19.552,4 19,4 L19,4 Z M14,9 C14,9.553 14.448,10 15,10 C15.552,10 16,9.553 16,9 C16,8.447 15.552,8 15,8 C14.448,8 14,8.447 14,9 M18,14 L16,14 L16,13 C16,12.447 15.552,12 15,12 L5,12 C4.448,12 4,12.447 4,13 L4,14 L2,14 L2,6 L5,6 L15,6 L18,6 L18,14 Z M6,18 L14,18 L14,14 L6,14 L6,18 Z M6,4 L14,4 L14,2 L6,2 L6,4 Z M7,8 L5,8 C4.448,8 4,8.447 4,9 C4,9.553 4.448,10 5,10 L7,10 C7.552,10 8,9.553 8,9 C8,8.447 7.552,8 7,8" id="path-1"></path>
    </defs>
    <g id="Login-&amp;-Onboarding" stroke="none" stroke-width="1" fill="none" fill-rule="evenodd">
        <g id="09.-SM---School-Photo" transform="translate(-24.000000, -450.000000)">
            <g id="sidebar-normal" transform="translate(0.000000, 60.000000)">
                <g id="IconSet/Sidenav/Graphical-Result-Analysis/Default-Copy-5" transform="translate(24.000000, 390.000000)">
                    <mask id="mask-2" fill="white">
                        <use xlink:href="#path-1"></use>
                    </mask>
                    <use id="Icon" fill="#3A5077" xlink:href="#path-1"></use>
                </g>
            </g>
        </g>
    </g>
</svg>