<?xml version="1.0" encoding="UTF-8"?>
<svg width="18px" height="20px" viewBox="0 0 18 20" version="1.1" xmlns="http://www.w3.org/2000/svg" xmlns:xlink="http://www.w3.org/1999/xlink">
    <!-- Generator: sketchtool 53 (72520) - https://sketchapp.com -->
    <title>9717A888-E3ED-4743-A888-5C010ECF60E6</title>
    <desc>Created with sketchtool.</desc>
    <g id="Login-&amp;-Onboarding" stroke="none" stroke-width="1" fill="none" fill-rule="evenodd">
        <g id="26.-SM---Add-Student-Manually---Student-Information" transform="translate(-305.000000, -291.000000)" fill="#8595A6" fill-rule="nonzero" stroke="#8295A8">
            <g id="IconSet/Academic-Details/Default" transform="translate(304.000000, 291.000000)">
                <path d="M6.13039648,9.58327138 C5.29867841,8.93345725 4.63612335,7.70446097 4.4246696,6.33420074 C4.25550661,5.16171004 4.4246696,3.87620818 5.1154185,2.78847584 C5.48193833,2.19516729 6.21497797,1.55947955 7.17356828,1.12156134 C7.96299559,0.754275093 8.90748899,0.5 9.95066079,0.5 C10.9938326,0.5 11.938326,0.754275093 12.7277533,1.12156134 C13.6863436,1.55947955 14.4193833,2.19516729 14.7859031,2.78847584 C15.476652,3.87620818 15.645815,5.16171004 15.476652,6.33420074 C15.2792952,7.64795539 14.6590308,8.83457249 13.8837004,9.49851301 C13.6863436,9.89405204 13.4325991,10.2472119 13.122467,10.5579926 C12.8969163,10.7981413 12.6431718,11.0100372 12.3753304,11.1795539 L12.5726872,12.0553903 L14.1515419,12.4933086 C15.307489,12.8040892 16.2942731,13.4115242 16.9709251,14.2591078 C17.6193833,15.0643123 18,16.0814126 18,17.2539033 L18,19.1892193 C18,19.3587361 17.8590308,19.5 17.6898678,19.5 L9.99295154,19.5 L2.31013216,19.5 C2.14096916,19.5 2,19.3587361 2,19.1892193 L2,17.2539033 C2,16.0814126 2.38061674,15.0643123 3.02907489,14.2591078 C3.70572687,13.4115242 4.6784141,12.8040892 5.84845815,12.4933086 L7.42731278,12.0553903 L7.59647577,11.1936803 C7.34273128,11.0241636 7.1030837,10.8405204 6.89162996,10.6286245 C6.5814978,10.3178439 6.3277533,9.96468401 6.13039648,9.58327138 Z M12.0370044,12.5356877 L12.0370044,12.5356877 L11.8114537,11.4903346 C11.2757709,11.7163569 10.6837004,11.8576208 10.0493392,11.8717472 C10.0493392,11.8717472 9.97885463,11.8717472 9.97885463,11.8717472 C9.31629956,11.8717472 8.71013216,11.7446097 8.17444934,11.504461 L7.96299559,12.5215613 L7.94889868,12.5215613 C7.94889868,12.5356877 7.94889868,12.5498141 7.94889868,12.5639405 C7.94889868,12.8040892 8.06167401,13.0301115 8.24493392,13.2137546 C8.47048458,13.4256506 8.78061674,13.5951673 9.20352423,13.694052 C9.42907489,13.7505576 9.6969163,13.7788104 9.99295154,13.7788104 C10.2889868,13.7788104 10.5568282,13.7505576 10.7964758,13.694052 C11.2052863,13.5951673 11.5295154,13.4256506 11.7409692,13.2137546 L11.7550661,13.2137546 C11.938326,13.0301115 12.0511013,12.8040892 12.0511013,12.5639405 L12.0370044,12.5356877 Z M2.62026432,18.8784387 L17.3797357,18.8784387 L17.3797357,17.2539033 C17.3797357,16.2226766 17.0555066,15.3468401 16.49163,14.6405204 C15.8854626,13.905948 15.0255507,13.369145 13.9823789,13.0866171 L12.6572687,12.7193309 C12.614978,13.0583643 12.4599119,13.3832714 12.1920705,13.6516729 L12.1779736,13.6657993 C11.8819383,13.9483271 11.4590308,14.1743494 10.9374449,14.2873606 C10.6555066,14.3579926 10.3453744,14.4003717 9.99295154,14.4003717 C9.65462555,14.4003717 9.34449339,14.3579926 9.06255507,14.2873606 C8.52687225,14.1743494 8.10396476,13.9483271 7.82202643,13.6657993 C7.54008811,13.3832714 7.37092511,13.0724907 7.34273128,12.7193309 L6.00352423,13.0866171 C4.97444934,13.369145 4.10044053,13.905948 3.50837004,14.6405204 C2.94449339,15.3468401 2.62026432,16.2226766 2.62026432,17.2539033 L2.62026432,18.8784387 Z M14.3207048,7.94460967 C14.5744493,7.45018587 14.7718062,6.87100372 14.8563877,6.24944238 C15.0114537,5.20408922 14.8704846,4.0739777 14.2643172,3.1133829 C13.954185,2.61895911 13.3198238,2.06802974 12.4740088,1.6866171 C11.7550661,1.34758364 10.8951542,1.12156134 9.95066079,1.12156134 C9.0061674,1.12156134 8.14625551,1.34758364 7.42731278,1.6866171 C6.59559471,2.06802974 5.96123348,2.61895911 5.63700441,3.1133829 C5.030837,4.0739777 4.88986784,5.20408922 5.04493392,6.24944238 C5.14361233,6.92750929 5.369163,7.54907063 5.66519824,8.07174721 C5.63700441,7.88810409 5.62290749,7.70446097 5.62290749,7.50669145 L5.62290749,7.49256506 L5.56651982,5.67026022 C5.56651982,5.57137546 5.58061674,5.4866171 5.60881057,5.40185874 C5.67929515,5.10520446 5.87665198,4.92156134 6.11629956,4.79442379 C6.3277533,4.69553903 6.56740088,4.65315985 6.76475771,4.65315985 C6.89162996,4.65315985 7.0185022,4.66728625 7.11718062,4.69553903 C7.42731278,4.7802974 7.72334802,4.94981413 8.01938326,5.13345725 C8.52687225,5.41598513 9.0907489,5.75501859 9.92246696,5.75501859 C10.754185,5.75501859 11.3180617,5.41598513 11.8255507,5.13345725 C12.1356828,4.94981413 12.4176211,4.7802974 12.7277533,4.69553903 C12.8264317,4.66728625 12.953304,4.65315985 13.0801762,4.65315985 C13.277533,4.65315985 13.5171806,4.69553903 13.7286344,4.79442379 C13.9682819,4.92156134 14.1656388,5.10520446 14.2361233,5.40185874 C14.2643172,5.4866171 14.2784141,5.57137546 14.2784141,5.67026022 C14.2643172,6.27769517 14.3207048,6.95576208 14.3348018,7.56319703 L14.3348018,7.57732342 C14.3348018,7.69033457 14.3207048,7.81747212 14.3207048,7.94460967 Z M6.18678414,5.67026022 L6.24317181,7.50669145 C6.24317181,8.55204461 6.65198238,9.49851301 7.32863436,10.1765799 C7.97709251,10.8405204 8.90748899,11.2501859 9.97885463,11.2501859 L9.97885463,11.2501859 L10.0493392,11.2501859 C11.1207048,11.2360595 12.0370044,10.7981413 12.6854626,10.1342007 C13.3339207,9.45613383 13.7145374,8.55204461 13.7145374,7.57732342 L13.7145374,7.57732342 C13.7145374,6.95576208 13.6863436,6.29182156 13.6581498,5.67026022 C13.6581498,5.62788104 13.6581498,5.59962825 13.6440529,5.55724907 C13.615859,5.47249071 13.5453744,5.40185874 13.460793,5.35947955 C13.3480176,5.30297398 13.2070485,5.27472119 13.0801762,5.27472119 C12.9955947,5.27472119 12.939207,5.28884758 12.8969163,5.30297398 C12.6572687,5.35947955 12.4035242,5.51486989 12.1356828,5.67026022 C11.5718062,5.99516729 10.923348,6.37657993 9.92246696,6.37657993 C8.9215859,6.37657993 8.27312775,5.99516729 7.7092511,5.67026022 C7.44140969,5.51486989 7.20176211,5.35947955 6.96211454,5.30297398 C6.90572687,5.28884758 6.84933921,5.27472119 6.76475771,5.27472119 C6.63788546,5.27472119 6.4969163,5.30297398 6.38414097,5.35947955 C6.29955947,5.40185874 6.22907489,5.47249071 6.20088106,5.55724907 C6.20088106,5.59962825 6.18678414,5.62788104 6.18678414,5.67026022 Z" id="Shape"></path>
            </g>
        </g>
    </g>
</svg>