<?xml version="1.0" encoding="UTF-8"?>
<svg width="20px" height="20px" viewBox="0 0 20 20" version="1.1" xmlns="http://www.w3.org/2000/svg" xmlns:xlink="http://www.w3.org/1999/xlink">
    <!-- Generator: sketchtool 53 (72520) - https://sketchapp.com -->
    <title>1D074F83-7945-4953-8917-48175CD343CD</title>
    <desc>Created with sketchtool.</desc>
    <defs>
        <path d="M10,0 C4.486,0 0,4.486 0,10 C0,15.513 4.486,20 10,20 C15.514,20 20,15.513 20,10 C20,4.486 15.514,0 10,0 M15.603,15.7 C14.199,14.841 12.257,14 10,14 C7.744,14 5.801,14.842 4.396,15.7 C2.919,14.248 2,12.23 2,10 C2,5.589 5.589,2 10,2 C14.411,2 18,5.589 18,10 C18,12.23 17.081,14.248 15.603,15.7 M6.149,17.009 C7.218,16.457 8.537,16 10,16 C11.464,16 12.782,16.457 13.851,17.008 C12.707,17.638 11.395,18 10,18 C8.604,18 7.292,17.638 6.149,17.009 M10,9.9998 C8.897,9.9998 8,9.1028 8,7.9998 C8,6.8968 8.897,5.9998 10,5.9998 C11.103,5.9998 12,6.8968 12,7.9998 C12,9.1028 11.103,9.9998 10,9.9998 M10,3.9998 C7.794,3.9998 6,5.7938 6,7.9998 C6,10.2058 7.794,11.9998 10,11.9998 C12.206,11.9998 14,10.2058 14,7.9998 C14,5.7938 12.206,3.9998 10,3.9998" id="path-1"></path>
    </defs>
    <g id="Login-&amp;-Onboarding" stroke="none" stroke-width="1" fill="none" fill-rule="evenodd">
        <g id="07.-SM---School-Academic-Details" transform="translate(-24.000000, -240.000000)">
            <g id="sidebar-normal" transform="translate(0.000000, 60.000000)">
                <g id="IconSet/Sidenav/Graphical-Result-Analysis/Default-Copy" transform="translate(24.000000, 180.000000)">
                    <mask id="mask-2" fill="white">
                        <use xlink:href="#path-1"></use>
                    </mask>
                    <use id="Icon" fill="#3A5077" xlink:href="#path-1"></use>
                </g>
            </g>
        </g>
    </g>
</svg>