<?xml version="1.0" encoding="UTF-8"?>
<svg width="20px" height="20px" viewBox="0 0 20 20" version="1.1" xmlns="http://www.w3.org/2000/svg" xmlns:xlink="http://www.w3.org/1999/xlink">
    <!-- Generator: sketchtool 53 (72520) - https://sketchapp.com -->
    <title>C1DE9DAE-5B58-485C-A002-98BFC3FD8838</title>
    <desc>Created with sketchtool.</desc>
    <g id="Login-&amp;-Onboarding" stroke="none" stroke-width="1" fill="none" fill-rule="evenodd">
        <g id="15.-AS---WingSetup---Wings" transform="translate(-20.000000, -331.000000)" fill="#3A5077">
            <g id="sidebar/selected" transform="translate(0.000000, 61.000000)">
                <g id="sidebar/menu/default-copy" transform="translate(0.000000, 260.000000)">
                    <g id="IconSet/Sidenav/Graphical-Result-Analysis/Default-Copy-4" transform="translate(20.000000, 10.000000)">
                        <path d="M19.8727929,18.401341 C20.0413848,18.7206988 20.0413848,19.1245958 19.878816,19.4317731 C19.7136432,19.7893514 19.3735347,19.9997206 19.0007962,19.9997206 L0.998300066,19.9997206 C0.644836575,19.9997206 0.300092964,19.7731572 0.126303346,19.4439536 C-0.042288555,19.1245958 -0.042288555,18.7206988 0.127430802,18.3992292 C1.52272361,15.8149091 3.72124677,13.8704232 6.30086258,12.9081323 C5.08054008,11.7770192 4.35530203,10.1435569 4.35530203,8.39361194 C4.35530203,7.94544864 4.40712693,7.49751319 4.51063348,7.05014848 L2.6701244,5.95758661 C2.36543684,5.76912652 2.16144946,5.40545009 2.16144946,5.04108327 C2.16144946,4.67671645 2.36543684,4.31304002 2.67417897,4.12212356 L9.38073228,0.143452131 C9.68922204,-0.0473597669 10.0517739,-0.0473597669 10.3557453,0.140721234 L17.1031341,4.12457992 C17.4078217,4.31304002 17.611809,4.67671645 17.611809,5.04108327 C17.611809,5.40545009 17.4078217,5.76912652 17.0991343,5.96001049 L15.2647092,7.0489154 C15.3649839,7.46959516 15.4179565,7.93920224 15.4179565,8.39361194 C15.4179565,10.1366851 14.7244417,11.7376344 13.5380459,12.8650201 C16.1916396,13.8013497 18.4781646,15.7847009 19.8727929,18.401341 Z M5.1807416,5.07543151 L9.83870552,7.81699388 L13.3051357,5.79147364 C13.3948489,5.67186899 13.513918,5.58457363 13.6199606,5.54895416 C13.6842524,5.51415824 13.7365019,5.49620637 13.7912783,5.48830674 L14.5310373,5.04344969 L9.87083666,2.30057085 L5.1807416,5.07543151 Z M6.36319061,8.14858194 C6.35532944,8.23342577 6.35218333,8.30817261 6.35218333,8.39361194 C6.35218333,10.5139583 7.94050538,12.223104 9.87049798,12.223104 C11.8004906,12.223104 13.3888126,10.5139583 13.3888126,8.39361194 C13.3888126,8.31990317 13.3845672,8.23947651 13.3762201,8.14940207 L10.3754254,9.92857347 C10.235148,10.0298011 10.054922,10.0818233 9.87049798,10.0818233 C9.68607398,10.0818233 9.50584795,10.0298011 9.38478685,9.94117077 L6.36319061,8.14858194 Z M2.90159076,17.8804961 L17.0923365,17.8804961 C15.2959458,15.6668266 12.7073708,14.3772507 9.99954813,14.3772507 C7.26098321,14.3772507 4.67064037,15.6671538 2.90159076,17.8804961 Z" id="Combined-Shape"></path>
                    </g>
                </g>
            </g>
        </g>
    </g>
</svg>