<?xml version="1.0" encoding="UTF-8"?>
<svg width="18px" height="20px" viewBox="0 0 18 20" version="1.1" xmlns="http://www.w3.org/2000/svg" xmlns:xlink="http://www.w3.org/1999/xlink">
    <!-- Generator: sketchtool 53 (72520) - https://sketchapp.com -->
    <title>8F283D29-21E0-45E5-A2C2-DDF7CB0E6A17</title>
    <desc>Created with sketchtool.</desc>
    <defs>
        <path d="M11.0002,2.09 L11.0002,1 C11.0002,0.447 10.5522,0 10.0002,0 C9.4482,0 9.0002,0.447 9.0002,1 L9.0002,2.09 C6.1672,2.568 3.0002,5.033 3.0002,8 C3.0002,10.957 3.0002,12.586 1.2932,14.293 C1.0072,14.579 0.9212,15.009 1.0762,15.383 C1.2312,15.757 1.5952,16 2.0002,16 L7.1832,16 C7.0692,16.313 7.0002,16.647 7.0002,17 C7.0002,18.654 8.3452,20 10.0002,20 C11.6542,20 13.0002,18.654 13.0002,17 C13.0002,16.647 12.9302,16.313 12.8162,16 L18.0002,16 C18.4042,16 18.7692,15.757 18.9242,15.383 C19.0782,15.009 18.9932,14.579 18.7072,14.293 C17.0002,12.586 17.0002,10.957 17.0002,8 C17.0002,5.033 13.8332,2.568 11.0002,2.09 Z M4.0112,14 C5.0002,12.208 5.0002,10.285 5.0002,8 C5.0002,5.794 7.7942,4 10.0002,4 C12.2052,4 15.0002,5.794 15.0002,8 C15.0002,10.285 15.0002,12.208 15.9892,14 L4.0112,14 Z M10.0002,18 C9.4482,18 9.0002,17.552 9.0002,17 C9.0002,16.448 9.4482,16 10.0002,16 C10.5512,16 11.0002,16.448 11.0002,17 C11.0002,17.552 10.5512,18 10.0002,18 Z" id="path-1"></path>
    </defs>
    <g id="Login-&amp;-Onboarding" stroke="none" stroke-width="1" fill="none" fill-rule="evenodd">
        <g id="07.-SM---School-Academic-Details" transform="translate(-1171.000000, -20.000000)">
            <g id="header/onboarding">
                <g id="IconSet/Notification/Default" transform="translate(1170.000000, 20.000000)">
                    <mask id="mask-2" fill="white">
                        <use xlink:href="#path-1"></use>
                    </mask>
                    <use id="Mask" fill="#8595A6" xlink:href="#path-1"></use>
                </g>
            </g>
        </g>
    </g>
</svg>