<?xml version="1.0" encoding="UTF-8"?>
<svg width="16px" height="14px" viewBox="0 0 16 14" version="1.1" xmlns="http://www.w3.org/2000/svg" xmlns:xlink="http://www.w3.org/1999/xlink">
    <!-- Generator: sketchtool 53 (72520) - https://sketchapp.com -->
    <title>0ABAF2E8-4963-42A5-8C3C-AFB241376176</title>
    <desc>Created with sketchtool.</desc>
    <defs>
        <path d="M15.9695998,7.78 C15.9511998,7.7184 14.1327998,1.6 7.99999989,1.6 C1.86719997,1.6 0.0487999993,7.7184 0.0303999996,7.78 C-0.0103999999,7.924 -0.0103999999,8.076 0.0303999996,8.22 C0.0487999993,8.2816 1.86719997,14.4 7.99999989,14.4 C14.1327998,14.4 15.9511998,8.2816 15.9695998,8.22 C16.0103998,8.076 16.0103998,7.924 15.9695998,7.78 M7.99999989,12.8 C3.62639992,12.8 1.99039992,8.9824 1.64159993,8 C1.99039992,7.0176 3.62639992,3.2 7.99999989,3.2 C12.3751999,3.2 14.0111999,7.0208 14.3583999,8 C14.0103999,8.9824 12.3735999,12.8 7.99999989,12.8 M7.99999989,9.6 C7.11759989,9.6 6.39999989,8.8824 6.39999989,8 C6.39999989,7.1176 7.11759989,6.4 7.99999989,6.4 C8.88239989,6.4 9.59999989,7.1176 9.59999989,8 C9.59999989,8.8824 8.88239989,9.6 7.99999989,9.6 M7.99999989,4.8 C6.23519989,4.8 4.79999989,6.2352 4.79999989,8 C4.79999989,9.7648 6.23519989,11.2 7.99999989,11.2 C9.76479989,11.2 11.1999999,9.7648 11.1999999,8 C11.1999999,6.2352 9.76479989,4.8 7.99999989,4.8" id="path-1"></path>
    </defs>
    <g id="Login-&amp;-Onboarding" stroke="none" stroke-width="1" fill="none" fill-rule="evenodd">
        <g id="01.-Login" transform="translate(-432.000000, -364.000000)">
            <g id="IconSet/View/Default" transform="translate(432.000000, 363.000000)">
                <mask id="mask-2" fill="white">
                    <use xlink:href="#path-1"></use>
                </mask>
                <use id="Icon" fill="#8595A6" xlink:href="#path-1"></use>
            </g>
        </g>
    </g>
</svg>