<?xml version="1.0" encoding="UTF-8"?>
<svg width="16px" height="16px" viewBox="0 0 16 16" version="1.1" xmlns="http://www.w3.org/2000/svg" xmlns:xlink="http://www.w3.org/1999/xlink">
    <!-- Generator: sketchtool 53.2 (72643) - https://sketchapp.com -->
    <title>7143EFE2-E2B5-4F55-88D4-46B69241B090</title>
    <desc>Created with sketchtool.</desc>
    <defs>
        <path d="M17.1024173,2.86922981 C15.9464396,1.71025673 13.9288785,1.71025673 12.7713008,2.86922981 L3.83467302,11.8228178 C3.74907467,11.9085786 3.69147578,12.0095679 3.65307652,12.1169693 C3.65067657,12.1241828 3.64347671,12.1289919 3.64107675,12.1362054 L2.04110759,16.9452223 C1.94510944,17.2329618 2.02030799,17.5511584 2.23470386,17.7651597 C2.38670093,17.9182467 2.59149698,18 2.80029296,18 C2.88509132,18 2.96988969,17.987176 3.05308808,17.9591234 L7.85299557,16.3561177 C7.86019543,16.3537132 7.86499534,16.3464997 7.8721952,16.3440952 C7.97939314,16.305623 8.08019119,16.2479148 8.16578954,16.162154 L17.1024173,7.20856606 C17.6808062,6.62907952 18,5.85803381 18,5.03889793 C18,4.21896055 17.6808062,3.44871634 17.1024173,2.86922981 L17.1024173,2.86922981 Z M15.9712391,6.07524108 L15.6000463,6.44713838 L13.5312861,4.3744521 L13.902479,4.00255479 C14.4552683,3.44871634 15.4184498,3.44871634 15.9712391,4.00255479 C16.2480338,4.27987477 16.4000308,4.64776456 16.4000308,5.03889793 C16.4000308,5.43003131 16.2480338,5.7979211 15.9712391,6.07524108 L15.9712391,6.07524108 Z M4.74985538,13.873062 L6.11942898,15.2452348 L4.06506858,15.9313212 L4.74985538,13.873062 Z M7.60020044,14.4621666 L5.53144032,12.3894803 L12.4001079,5.50777708 L14.4688681,7.58046337 L7.60020044,14.4621666 Z" id="path-1"></path>
    </defs>
    <g id="Login-&amp;-Onboarding" stroke="none" stroke-width="1" fill="none" fill-rule="evenodd">
        <g id="28.-SM---Add-Student-Manually---Update-Photo" transform="translate(-821.000000, -222.000000)">
            <g id="Group" transform="translate(819.000000, 219.000000)">
                <g id="IconSet/Delete/Default-Copy" transform="translate(0.000000, 1.000000)">
                    <mask id="mask-2" fill="white">
                        <use xlink:href="#path-1"></use>
                    </mask>
                    <use id="Mask" fill="#8595A6" xlink:href="#path-1"></use>
                </g>
            </g>
        </g>
    </g>
</svg>