<?xml version="1.0" encoding="UTF-8"?>
<svg width="16px" height="20px" viewBox="0 0 16 20" version="1.1" xmlns="http://www.w3.org/2000/svg" xmlns:xlink="http://www.w3.org/1999/xlink">
    <!-- Generator: sketchtool 53 (72520) - https://sketchapp.com -->
    <title>86AAAEFF-306A-4CEB-8714-8D802E854748</title>
    <desc>Created with sketchtool.</desc>
    <defs>
        <path d="M17,4 L14,4 L14,2 C14,0.897 13.103,0 12,0 L8,0 C6.897,0 6,0.897 6,2 L6,4 L3,4 C2.447,4 2,4.448 2,5 C2,5.552 2.447,6 3,6 L3,19 C3,19.552 3.447,20 4,20 L16,20 C16.553,20 17,19.552 17,19 L17,6 C17.553,6 18,5.552 18,5 C18,4.448 17.553,4 17,4 L17,4 Z M5,18 L15,18 L15,6 L5,6 L5,18 Z M8,4 L12,4 L12,2 L8,2 L8,4 Z M8,16 C8.553,16 9,15.552 9,15 L9,9 C9,8.448 8.553,8 8,8 C7.447,8 7,8.448 7,9 L7,15 C7,15.552 7.447,16 8,16 M12,16 C12.553,16 13,15.552 13,15 L13,9 C13,8.448 12.553,8 12,8 C11.447,8 11,8.448 11,9 L11,15 C11,15.552 11.447,16 12,16" id="path-1"></path>
    </defs>
    <g id="Login-&amp;-Onboarding" stroke="none" stroke-width="1" fill="none" fill-rule="evenodd">
        <g id="10.-SM---School-Photo" transform="translate(-992.000000, -201.000000)">
            <g id="IconSet/Delete/Default" transform="translate(990.000000, 201.000000)">
                <mask id="mask-2" fill="white">
                    <use xlink:href="#path-1"></use>
                </mask>
                <use id="Icon" fill="#8595A6" xlink:href="#path-1"></use>
            </g>
        </g>
    </g>
</svg>