<?xml version="1.0" encoding="UTF-8"?>
<svg width="20px" height="20px" viewBox="0 0 20 20" version="1.1" xmlns="http://www.w3.org/2000/svg" xmlns:xlink="http://www.w3.org/1999/xlink">
    <!-- Generator: sketchtool 53 (72520) - https://sketchapp.com -->
    <title>1D6C8AB2-39AD-435A-AB84-935D4B9C2686</title>
    <desc>Created with sketchtool.</desc>
    <defs>
        <path d="M19,17.9995 L19,8.9995 C19.552,8.9995 20,8.5525 20,7.9995 C20,7.4465 19.552,6.9995 19,6.9995 L1,6.9995 C0.448,6.9995 0,7.4465 0,7.9995 C0,8.5525 0.448,8.9995 1,8.9995 L1,17.9995 C0.448,17.9995 0,18.4465 0,18.9995 C0,19.5525 0.448,19.9995 1,19.9995 L19,19.9995 C19.552,19.9995 20,19.5525 20,18.9995 C20,18.4465 19.552,17.9995 19,17.9995 L19,17.9995 Z M3.394,4.9184 C2.886,5.1394 2.298,4.9014 2.081,4.3934 C1.863,3.8864 2.099,3.2984 2.606,3.0804 L9.606,0.0804 C9.858,-0.0266 10.142,-0.0266 10.394,0.0804 L17.394,3.0804 C17.901,3.2984 18.137,3.8864 17.919,4.3934 C17.757,4.7724 17.388,4.9994 16.999,4.9994 C16.868,4.9994 16.734,4.9744 16.606,4.9184 L10,2.0874 L3.394,4.9184 Z M3,17.9995 L17,17.9995 L17,8.9995 L3,8.9995 L3,17.9995 Z M10,10.9995 C9.448,10.9995 9,11.4465 9,11.9995 L9,14.9995 C9,15.5525 9.448,15.9995 10,15.9995 C10.552,15.9995 11,15.5525 11,14.9995 L11,11.9995 C11,11.4465 10.552,10.9995 10,10.9995 M14,10.9995 C13.448,10.9995 13,11.4465 13,11.9995 L13,14.9995 C13,15.5525 13.448,15.9995 14,15.9995 C14.552,15.9995 15,15.5525 15,14.9995 L15,11.9995 C15,11.4465 14.552,10.9995 14,10.9995 M6,10.9995 C5.448,10.9995 5,11.4465 5,11.9995 L5,14.9995 C5,15.5525 5.448,15.9995 6,15.9995 C6.552,15.9995 7,15.5525 7,14.9995 L7,11.9995 C7,11.4465 6.552,10.9995 6,10.9995" id="path-1"></path>
    </defs>
    <g id="Login-&amp;-Onboarding" stroke="none" stroke-width="1" fill="none" fill-rule="evenodd">
        <g id="09.-SM---School-Photo" transform="translate(-24.000000, -370.000000)">
            <g id="sidebar-normal" transform="translate(0.000000, 60.000000)">
                <g id="IconSet/Sidenav/Graphical-Result-Analysis/Default-Copy-3" transform="translate(24.000000, 310.000000)">
                    <mask id="mask-2" fill="white">
                        <use xlink:href="#path-1"></use>
                    </mask>
                    <use id="Icon" fill="#5C67E6" xlink:href="#path-1"></use>
                </g>
            </g>
        </g>
    </g>
</svg>