<?xml version="1.0" encoding="UTF-8"?>
<svg width="58px" height="58px" viewBox="0 0 58 58" version="1.1" xmlns="http://www.w3.org/2000/svg" xmlns:xlink="http://www.w3.org/1999/xlink">
    <!-- Generator: sketchtool 53 (72520) - https://sketchapp.com -->
    <title>73471F6E-A823-4EF0-89C7-8968DA406A55</title>
    <desc>Created with sketchtool.</desc>
    <defs>
        <path d="M49.3451987,33.4538998 C50.7527986,34.8614997 50.7527986,37.1366997 49.3451987,38.5442997 L38.5451991,49.3442996 C37.1375991,50.7518996 34.8623992,50.7518996 33.4547992,49.3442996 L22.6547996,38.5442997 C21.2471996,37.1366997 21.2471996,34.8614997 22.6547996,33.4538998 C24.0623996,32.0462998 26.3375995,32.0462998 27.7451994,33.4538998 L32.3999993,38.1086997 L32.3999993,10.7991 C32.3999993,8.81190005 34.0091992,7.19910007 35.9999991,7.19910007 C37.9907991,7.19910007 39.599999,8.81190005 39.599999,10.7991 L39.599999,38.1086997 L44.2547989,33.4538998 C44.9567988,32.7518998 45.8783988,32.3990998 46.7999988,32.3990998 C47.7215987,32.3990998 48.6431987,32.7518998 49.3451987,33.4538998 Z M61.2,64.7999996 L10.8,64.7999996 C8.8092,64.7999996 7.2,63.1871996 7.2,61.1999996 C7.2,59.2127996 8.8092,57.5999996 10.8,57.5999996 L61.2,57.5999996 C63.1908,57.5999996 64.8,59.2127996 64.8,61.1999996 C64.8,63.1871996 63.1908,64.7999996 61.2,64.7999996 Z" id="path-1"></path>
    </defs>
    <g id="Login-&amp;-Onboarding" stroke="none" stroke-width="1" fill="none" fill-rule="evenodd">
        <g id="33.-Staff---Upload-CSV" transform="translate(-1213.000000, -404.000000)">
            <g id="IconSet/Import_CSV/Default" transform="translate(1242.000000, 433.000000) scale(1, -1) translate(-1242.000000, -433.000000) translate(1206.000000, 397.000000)">
                <mask id="mask-2" fill="white">
                    <use xlink:href="#path-1"></use>
                </mask>
                <use id="Icon" fill="#8595A6" xlink:href="#path-1"></use>
            </g>
        </g>
    </g>
</svg>