<?xml version="1.0" encoding="UTF-8"?>
<svg width="313px" height="260px" viewBox="0 0 313 260" version="1.1" xmlns="http://www.w3.org/2000/svg" xmlns:xlink="http://www.w3.org/1999/xlink">
    <!-- Generator: sketchtool 53 (72520) - https://sketchapp.com -->
    <title>8CAE8E8D-E05A-4448-B39A-2D1BB092D321</title>
    <desc>Created with sketchtool.</desc>
    <g id="Login-&amp;-Onboarding" stroke="none" stroke-width="1" fill="none" fill-rule="evenodd">
        <g id="22.-SM---Empty-State" transform="translate(-684.000000, -180.000000)">
            <g id="pattern/EmptyState-Students" transform="translate(684.000000, 180.000000)">
                <g transform="translate(0.000000, 0.000000)">
                    <path d="M296.684573,224.329268 L15.6325,224.329268 C5.62091463,203.73061 0,180.601707 0,156.158537 C0,69.9146341 69.9146341,0 156.158537,0 C242.402439,0 312.317073,69.9146341 312.317073,156.158537 C312.317073,180.601707 306.696159,203.73061 296.684573,224.329268" id="Fill-4" fill="#E2E6EE"></path>
                    <path d="M102.746768,250.487012 C102.746768,255.740122 81.4529268,259.999207 55.1857927,259.999207 C28.9178659,259.999207 7.62481707,255.740122 7.62481707,250.487012 C7.62481707,245.233902 28.9178659,240.974817 55.1857927,240.974817 C81.4529268,240.974817 102.746768,245.233902 102.746768,250.487012" id="Fill-5" fill="#E2E6EE"></path>
                    <path d="M182.014268,250.487012 C182.014268,255.740122 160.72122,259.999207 134.454085,259.999207 C108.186159,259.999207 86.8931098,255.740122 86.8931098,250.487012 C86.8931098,245.233902 108.186159,240.974817 134.454085,240.974817 C160.72122,240.974817 182.014268,245.233902 182.014268,250.487012" id="Fill-6" fill="#E2E6EE"></path>
                    <path d="M250.977683,250.487012 C250.977683,255.740122 229.684634,259.999207 203.416707,259.999207 C177.149573,259.999207 155.856524,255.740122 155.856524,250.487012 C155.856524,245.233902 177.149573,240.974817 203.416707,240.974817 C229.684634,240.974817 250.977683,245.233902 250.977683,250.487012" id="Fill-7" fill="#E2E6EE"></path>
                    <path d="M308.050854,250.487012 C308.050854,255.740122 286.757012,259.999207 260.489878,259.999207 C234.222744,259.999207 212.928902,255.740122 212.928902,250.487012 C212.928902,245.233902 234.222744,240.974817 260.489878,240.974817 C286.757012,240.974817 308.050854,245.233902 308.050854,250.487012" id="Fill-8" fill="#E2E6EE"></path>
                    <path d="M107.271402,79.1176829 C107.271402,79.1176829 99.8828049,87.9553049 98.5788415,95.5880488 C97.2756707,103.220793 94.4505488,125.316037 97.2756707,129.333354 C100.1,133.350671 103.360305,133.350671 104.229085,133.350671 C105.097866,133.350671 145.299573,136.162317 145.082378,129.735244 C144.865183,123.307378 140.953293,80.9257927 140.953293,80.9257927 C140.953293,80.9257927 123.568963,71.8868293 107.271402,79.1176829" id="Fill-9" fill="#302C40"></path>
                    <path d="M148.50439,88.9596341 C148.50439,88.9596341 153.187561,122.746159 153.522073,127.763841 C153.856585,132.781524 152.518537,155.863659 152.518537,155.863659 L147.835366,155.529146 L138.082195,92.8707317 L148.50439,88.9596341" id="Fill-10" fill="#ED9C89"></path>
                    <path d="M138.490427,75.935061 C135.611402,75.2319512 126.325915,73.8962805 119.602378,73.8209756 L119.602378,73.7940244 C119.602378,73.7940244 119.532622,73.7979878 119.405,73.8067073 C119.278171,73.7979878 119.207622,73.7940244 119.207622,73.7940244 L119.207622,73.8209756 C116.713841,74.0088415 107.745427,73.8835976 104.878293,78.6634756 C101.717866,83.930061 100.103171,126.828476 100.103171,126.828476 L140.002073,126.828476 C140.002073,126.828476 139.658049,76.2204268 138.490427,75.935061" id="Fill-11" fill="#DE4D56"></path>
                    <path d="M104.334512,77.1320122 C104.334512,77.1320122 85.9918293,102.423354 84.0228049,108.661768 C82.0466463,114.918415 81.4220122,116.776463 86.0417683,119.011829 C91.1307927,121.473902 94.2420732,115.470122 95.3827439,111.185671 C97.209878,104.324207 101.845488,93.5072561 102.134817,92.6384756 C102.544634,91.4106098 104.334512,77.1320122 104.334512,77.1320122" id="Fill-12" fill="#E77D69"></path>
                    <polyline id="Fill-13" fill="#ED9C89" points="131.544939 217.88872 131.797012 238.76878 132.760122 241.084207 138.827317 242.60061 138.387378 213.407683 131.544939 217.88872"></polyline>
                    <polyline id="Fill-14" fill="#ED9C89" points="113.76189 220.935 112.52372 238.86628 107.766037 238.068049 106.602378 219.864878 113.76189 220.935"></polyline>
                    <path d="M100.103171,126.828476 L106.615854,224.055 L113.593841,224.358598 L116.221585,136.076707 L124.147622,136.340671 C124.147622,136.340671 128.639756,188.921707 128.375793,189.71439 C128.111037,190.507073 131.298415,224.497317 131.298415,224.497317 L139.242683,224.203232 L141.322683,188.921707 L140.002073,126.828476 L100.103171,126.828476" id="Fill-15" fill="#50619E"></path>
                    <path d="M137.830915,239.354573 C137.830915,239.354573 136.687073,236.707805 138.188415,236.49378 C139.690549,236.278963 140.47689,237.20878 140.47689,237.20878 L144.053476,241.35689 L145.91311,244.360366 L143.051524,243.0025 L137.830915,239.354573" id="Fill-16" fill="#C99E50"></path>
                    <path d="M132.037988,237.995122 C132.037988,237.995122 133.20561,240.932012 134.469939,240.427073 C135.184939,240.140915 136.472256,237.781098 137.402073,238.138598 C138.33189,238.496098 141.907683,241.214207 143.266341,241.929207 C144.625793,242.644207 140.47689,237.20878 140.47689,237.20878 C140.47689,237.20878 143.982134,240.927256 145.197317,241.571707 C146.413293,242.214573 156.711829,244.932683 156.926646,248.151768 L156.749085,250.225427 C156.749085,250.225427 153.350854,253.301037 145.412134,250.582927 C137.473415,247.864817 132.967805,247.364634 131.537012,246.792317 C130.107012,246.22 130.893354,238.067256 132.037988,237.995122" id="Fill-17" fill="#E1BF7F"></path>
                    <path d="M147.056951,249.510427 C143.266341,248.866768 136.972439,246.077317 134.54128,245.791159 C133.139817,245.62628 131.742317,245.129268 130.806159,244.737683 C130.891768,245.80939 131.119268,246.625061 131.537012,246.792317 C132.967805,247.364634 137.473415,247.864817 145.412134,250.582927 C153.350854,253.301037 156.749085,250.225427 156.749085,250.225427 L156.926646,248.151768 C155.996829,249.796585 150.847561,250.153293 147.056951,249.510427" id="Fill-18" fill="#FFFFFE"></path>
                    <path d="M139.905366,241.467073 L139.712744,241.417927 C139.521707,241.311707 139.451951,241.070732 139.558171,240.878902 C139.597012,240.809146 140.514939,239.171463 141.776098,238.928902 C142.283415,238.826646 142.787561,238.970915 143.231463,239.333963 C143.401098,239.47189 143.425671,239.721585 143.286951,239.89122 C143.148232,240.061646 142.899329,240.08622 142.729695,239.946707 C142.467317,239.732683 142.204146,239.654207 141.926707,239.706524 C141.183171,239.849207 140.465793,240.87811 140.251768,241.262561 C140.178841,241.393354 140.044085,241.467073 139.905366,241.467073" id="Fill-19" fill="#FFFFFE"></path>
                    <path d="M141.121341,242.610915 L140.929512,242.561768 C140.737683,242.455549 140.667927,242.214573 140.774146,242.022744 C140.812988,241.952988 141.730915,240.315305 142.992073,240.072744 C143.500183,239.970488 144.004329,240.113963 144.447439,240.477805 C144.617073,240.616524 144.641646,240.865427 144.502927,241.035061 C144.365,241.205488 144.115305,241.229268 143.945671,241.090549 C143.683293,240.876524 143.420122,240.798049 143.143476,240.851159 C142.399146,240.993049 141.681768,242.021951 141.467744,242.407195 C141.394817,242.537988 141.260854,242.610915 141.121341,242.610915" id="Fill-20" fill="#FFFFFE"></path>
                    <path d="M142.62189,243.398841 L142.430854,243.348902 C142.239817,243.242683 142.170061,243.0025 142.27628,242.809878 C142.315122,242.740915 143.233049,241.102439 144.494207,240.859878 C144.999939,240.759207 145.505671,240.90189 145.949573,241.264939 C146.118415,241.403659 146.14378,241.652561 146.005061,241.822195 C145.866341,241.992622 145.616646,242.016402 145.447805,241.878476 C145.184634,241.663659 144.921463,241.585183 144.644817,241.638293 C143.90128,241.780976 143.18311,242.809085 142.969878,243.194329 C142.896951,243.325122 142.762195,243.398841 142.62189,243.398841" id="Fill-21" fill="#FFFFFE"></path>
                    <path d="M144.196159,244.113049 L144.004329,244.06311 C143.813293,243.957683 143.743537,243.716707 143.849756,243.524878 C143.888598,243.455122 144.806524,241.817439 146.06689,241.574878 C146.574207,241.477378 147.078354,241.617683 147.522256,241.980732 C147.69189,242.118659 147.716463,242.368354 147.577744,242.537988 C147.439024,242.708415 147.189329,242.732195 147.020488,242.593476 C146.75811,242.378659 146.494146,242.300976 146.2175,242.353293 C145.473963,242.495183 144.757378,243.524878 144.543354,243.908537 C144.470427,244.039329 144.335671,244.113049 144.196159,244.113049" id="Fill-22" fill="#FFFFFE"></path>
                    <path d="M92.9381098,91.3456098 L102.420976,103.19939 L111.565366,74.75 C111.565366,74.75 101.404756,74.75 99.2034756,78.3059756 C97.385061,81.2436585 93.8378049,86.1059756 92.9381098,91.3456098" id="Fill-23" fill="#DE4D56"></path>
                    <polyline id="Fill-24" fill="#5F6AA3" points="129.729695 220.059878 140.270793 220.086829 139.88872 224.674878 130.416159 224.614634 129.729695 220.059878"></polyline>
                    <polyline id="Fill-25" fill="#5F6AA3" points="104.991646 219.9275 115.683354 219.94811 115.30128 224.536159 105.677317 224.483049 104.991646 219.9275"></polyline>
                    <path d="M100.195915,114.503049 C102.485976,112.911341 106.415305,95.8781707 107.191341,93.1996951 C108.824268,87.5645122 109.488537,80.6610366 109.433049,74.7943902 C107.433902,73.9914024 105.21122,74.6168293 103.200183,75.3912805 C101.110671,83.2110976 97.2653659,105.445061 97.5293293,113.53439 C98.2356098,114.182012 99.237561,114.502256 100.195915,114.503049" id="Fill-26" fill="#4C4757"></path>
                    <path d="M106.864756,91.9504268 C106.864756,94.6629878 104.665854,96.8626829 101.953293,96.8626829 C99.239939,96.8626829 97.0410366,94.6629878 97.0410366,91.9504268 C97.0410366,89.2378659 99.239939,87.0381707 101.953293,87.0381707 C104.665854,87.0381707 106.864756,89.2378659 106.864756,91.9504268" id="Fill-27" fill="#ED9C89"></path>
                    <path d="M98.3941463,94.3839634 L84.4120122,110.137744 C84.4120122,110.137744 78.3931707,118.248476 84.270122,121.145732 C88.4982927,123.229695 91.9559756,118.837439 94.1564634,116.14311 C94.5440854,115.6675 101.696463,97.0505488 101.696463,97.0505488 L98.3941463,94.3839634" id="Fill-28" fill="#ED9C89"></path>
                    <path d="M129.451463,74.6881707 C126.634268,74.2395122 123.234451,73.8621951 119.602378,73.8209756 L119.602378,73.7940244 C119.602378,73.7940244 119.532622,73.7979878 119.405,73.8067073 C119.278171,73.7979878 119.207622,73.7940244 119.207622,73.7940244 L119.207622,73.8209756 C117.892561,73.920061 114.77811,73.9390854 111.706463,74.6287195 C111.594695,76.2457927 120.37128,85.9260366 120.37128,85.9260366 C120.37128,85.9260366 129.06939,77.2556707 129.451463,74.6881707" id="Fill-29" fill="#ED9C89"></path>
                    <path d="M119.602378,64.4752439 L119.602378,64.4752439 C117.420915,64.4752439 115.652439,66.2437195 115.652439,68.4251829 L115.652439,75.7995122 C115.652439,77.9809756 117.420915,79.7494512 119.602378,79.7494512 C121.784634,79.7494512 123.55311,77.9809756 123.55311,75.7995122 L123.55311,68.4251829 C123.55311,66.2437195 121.784634,64.4752439 119.602378,64.4752439" id="Fill-30" fill="#ED9C89"></path>
                    <path d="M119.602378,62.0971951 L119.602378,62.0971951 C117.420915,62.0971951 115.652439,63.8656707 115.652439,66.0471341 L115.652439,71.1163415 C116.904085,71.4912805 118.228659,71.6989634 119.602378,71.6989634 C120.97689,71.6989634 122.301463,71.4912805 123.55311,71.1163415 L123.55311,66.0471341 C123.55311,63.8656707 121.784634,62.0971951 119.602378,62.0971951" id="Fill-31" fill="#E77D69"></path>
                    <path d="M133.352256,55.7612805 C133.352256,63.3551829 127.19628,69.5111585 119.602378,69.5111585 C112.008476,69.5111585 105.853293,63.3551829 105.853293,55.7612805 C105.853293,48.167378 112.008476,42.0114024 119.602378,42.0114024 C127.19628,42.0114024 133.352256,48.167378 133.352256,55.7612805" id="Fill-32" fill="#ED9C89"></path>
                    <path d="M110.509512,56.5531707 C110.509512,58.8368902 108.658598,60.6878049 106.374878,60.6878049 C104.091159,60.6878049 102.240244,58.8368902 102.240244,56.5531707 C102.240244,54.2694512 104.091159,52.4185366 106.374878,52.4185366 C108.658598,52.4185366 110.509512,54.2694512 110.509512,56.5531707" id="Fill-33" fill="#ED9C89"></path>
                    <path d="M136.572927,56.5531707 C136.572927,58.8368902 134.722805,60.6878049 132.439085,60.6878049 C130.155366,60.6878049 128.304451,58.8368902 128.304451,56.5531707 C128.304451,54.2694512 130.155366,52.4185366 132.439085,52.4185366 C134.722805,52.4185366 136.572927,54.2694512 136.572927,56.5531707" id="Fill-34" fill="#ED9C89"></path>
                    <path d="M115.733293,57.1294512 C115.733293,57.689878 115.275915,58.1440854 114.710732,58.1440854 C114.146341,58.1440854 113.688963,57.689878 113.688963,57.1294512 C113.688963,56.5690244 114.146341,56.1148171 114.710732,56.1148171 C115.275915,56.1148171 115.733293,56.5690244 115.733293,57.1294512" id="Fill-35" fill="#302C40"></path>
                    <path d="M125.316829,57.1294512 C125.316829,57.689878 124.859451,58.1440854 124.295061,58.1440854 C123.729878,58.1440854 123.2725,57.689878 123.2725,57.1294512 C123.2725,56.5690244 123.729878,56.1148171 124.295061,56.1148171 C124.859451,56.1148171 125.316829,56.5690244 125.316829,57.1294512" id="Fill-36" fill="#302C40"></path>
                    <path d="M111.550305,54.3669512 L110.971646,53.8255488 C113.015976,51.644878 115.697622,52.1514024 115.811768,52.1743902 L115.657195,52.9520122 C115.562073,52.9321951 113.28628,52.5152439 111.550305,54.3669512" id="Fill-37" fill="#302C40"></path>
                    <path d="M127.327866,54.3669512 C125.592683,52.5160366 123.317683,52.9329878 123.221768,52.9520122 L123.067195,52.1743902 C123.180549,52.1514024 125.862988,51.6456707 127.906524,53.8255488 L127.327866,54.3669512" id="Fill-38" fill="#302C40"></path>
                    <path d="M103.380122,252.736646 C103.380122,252.736646 102.789573,254.914146 103.107439,256.114268 C103.426098,257.312805 104.665854,259.472866 107.674878,259.566402 C110.683902,259.659939 114.60372,259.851768 114.369085,251.444573 L103.380122,252.736646" id="Fill-39" fill="#FFFFFE"></path>
                    <path d="M107.810427,239.319695 C108.077561,238.844878 107.227012,235.288902 109.710488,235.410183 C112.193963,235.532256 112.477744,236.717317 112.294634,238.465976 C112.110732,240.213841 110.96372,247.349573 110.96372,247.349573 L107.482256,247.666646 L107.810427,239.319695" id="Fill-40" fill="#C99E50"></path>
                    <path d="M107.289634,236.844146 C107.289634,236.844146 106.23061,242.988232 106.120427,243.226829 C106.010244,243.464634 102.836341,252.929268 103.294512,254.41872 C103.624268,255.492012 105.478354,257.027439 109.446524,256.878415 C112.499939,256.762683 114.754329,253.971646 114.301707,250.949939 C113.90061,248.269085 113.396463,243.201463 113.400427,243.125366 C113.407561,242.97872 112.908963,236.752195 112.908963,236.752195 C112.908963,236.752195 110.001402,241.115915 109.769146,246.486341 L108.698232,246.429268 C108.698232,246.429268 108.965366,236.542927 107.289634,236.844146" id="Fill-41" fill="#E1BF7F"></path>
                    <path d="M111.937927,239.93561 C111.834878,239.93561 111.732622,239.896768 111.654939,239.8175 C109.945915,238.076768 108.143354,239.558293 108.067256,239.6225 C107.900793,239.763598 107.651098,239.742988 107.508415,239.575732 C107.367317,239.408476 107.387134,239.160366 107.553598,239.018476 C108.386707,238.306646 110.435,237.444207 112.220915,239.261829 C112.373902,239.417988 112.371524,239.669268 112.215366,239.822256 C112.138476,239.898354 112.037805,239.93561 111.937927,239.93561" id="Fill-42" fill="#FFFFFE"></path>
                    <path d="M111.677134,241.968049 C111.574085,241.968049 111.471829,241.928415 111.394146,241.849939 C109.685915,240.109207 107.881768,241.590732 107.805671,241.654146 C107.64,241.796829 107.390305,241.775427 107.247622,241.608963 C107.106524,241.441707 107.126341,241.192805 107.292805,241.051707 C108.125915,240.339085 110.172622,239.474268 111.960122,241.293476 C112.11311,241.450427 112.110732,241.700915 111.954573,241.853902 C111.877683,241.93 111.777012,241.968049 111.677134,241.968049" id="Fill-43" fill="#FFFFFE"></path>
                    <path d="M111.416341,243.999695 C111.313293,243.999695 111.211037,243.960854 111.133354,243.881585 C109.423537,242.141646 107.621768,243.623171 107.544878,243.687378 C107.378415,243.828476 107.129512,243.807866 106.986829,243.64061 C106.845732,243.473354 106.865549,243.225244 107.03122,243.083354 C107.865122,242.371524 109.911829,241.506707 111.699329,243.325915 C111.852317,243.482073 111.849939,243.732561 111.69378,243.886341 C111.61689,243.962439 111.51622,243.999695 111.416341,243.999695" id="Fill-44" fill="#FFFFFE"></path>
                    <path d="M111.155549,246.032927 C111.0525,246.032927 110.950244,245.993293 110.872561,245.914024 C109.163537,244.174878 107.360183,245.65561 107.284085,245.719817 C107.117622,245.861707 106.86872,245.840305 106.726037,245.673841 C106.584939,245.506585 106.604756,245.257683 106.770427,245.116585 C107.604329,244.403963 109.651037,243.539146 111.437744,245.358354 C111.591524,245.515305 111.589146,245.765793 111.432988,245.91878 C111.355305,245.994878 111.255427,246.032927 111.155549,246.032927" id="Fill-45" fill="#FFFFFE"></path>
                    <path d="M150.122256,91.680122 L140.63939,103.533902 L131.495,75.0845122 C131.495,75.0845122 141.65561,75.0845122 143.85689,78.6404878 C145.675305,81.5781707 149.222561,86.4404878 150.122256,91.680122" id="Fill-46" fill="#DE4D56"></path>
                    <path d="M139.332256,114.503049 C137.042988,112.911341 133.112866,95.8781707 132.336829,93.1996951 C130.704695,87.5645122 130.040427,80.6610366 130.095122,74.7943902 C132.094268,73.9914024 134.316951,74.6168293 136.327988,75.3912805 C138.4175,83.2110976 142.262805,105.445061 141.999634,113.53439 C141.292561,114.182012 140.29061,114.502256 139.332256,114.503049" id="Fill-47" fill="#4C4757"></path>
                    <path d="M125.859024,46.0295122 C124.501159,47.2359756 121.645915,47.3746951 119.925,47.2835366 C118.621037,47.2137805 117.320244,47.0489024 116.035305,46.7896951 C114.881159,46.5566463 113.718293,46.2387805 112.710793,45.5578659 C111.153963,44.5043902 110.095732,42.6289024 109.69622,40.6194512 C109.2975,38.61 109.530549,34.1384756 110.129024,32.1940244 C114.330244,36.5569512 119.439085,35.5660976 123.522988,37.5914024 C124.383841,38.0186585 125.24628,38.7233537 125.440488,39.7673171 C125.970793,38.9722561 127.061524,39.5041463 127.845488,39.9528049 C129.544207,40.9262195 131.286524,42.0391463 132.305915,43.8639024 C132.88061,44.8920122 133.187378,46.0937195 133.29439,47.3057317 C133.516341,49.8129878 133.318963,52.9686585 131.976951,54.974939 C131.417317,52.6396951 131.116098,50.7967073 130.216402,49.1138415 C129.316707,47.4317683 127.590244,45.9716463 125.859024,46.0295122" id="Fill-48" fill="#302C40"></path>
                    <path d="M107.073232,54.017378 C106.352683,52.9987805 105.610732,51.9302439 105.377683,50.665122 C105.150183,49.4261585 105.440305,48.1451829 105.816037,46.9514024 C106.296402,45.4286585 106.920244,43.9598171 107.675671,42.5789634 C108.10372,41.7965854 108.612622,41.0046951 109.368049,40.627378 C110.537256,40.0439634 111.990244,40.6852439 112.438902,42.0161585 C112.86061,43.2693902 111.826159,44.7295122 111.285549,45.7988415 C109.896768,48.5454878 107.995915,51.0043902 107.073232,54.017378" id="Fill-49" fill="#302C40"></path>
                    <path d="M115.054756,61.3925 C115.406707,63.6532317 117.356707,65.3852439 119.716524,65.3852439 C122.076341,65.3852439 124.025549,63.6532317 124.378293,61.3925 L115.054756,61.3925" id="Fill-50" fill="#803846"></path>
                    <path d="M115.054756,61.3925 C115.139573,61.9354878 115.31872,62.447561 115.570793,62.9128659 L122.002622,62.9128659 C122.609024,62.9128659 123.10128,62.4206098 123.10128,61.8134146 L123.10128,61.3925 L115.054756,61.3925" id="Fill-51" fill="#FFFFFE"></path>
                    <path d="M100.737317,136.29628 L100.826098,136.262988 C104.720549,134.827439 107.17311,130.963902 106.814024,126.828476 L100.103171,126.828476 L100.737317,136.29628" id="Fill-52" fill="#384E89"></path>
                    <path d="M140.002073,126.828476 L131.736768,126.828476 L133.276159,131.599634 C133.884939,133.487805 134.999451,135.171463 136.492866,136.477805 C137.7675,137.59311 139.285488,138.874085 140.272378,139.558171 L140.002073,126.828476" id="Fill-53" fill="#384E89"></path>
                    <path d="M136.500793,157.404634 L136.630793,174.64628 L136.790122,175.107622 C137.573293,177.365976 140.629085,177.69811 141.879146,175.660915 L142.143902,175.228902 L143.015061,157.131951 L136.500793,157.404634" id="Fill-54" fill="#C4494F"></path>
                    <path d="M158.3725,156.885427 L143.015061,157.131951 L139.53439,177.011646 L155.774878,175.358902 C157.793049,175.192439 159.311037,173.448537 159.196098,171.426402 L158.3725,156.885427" id="Fill-55" fill="#C4494F"></path>
                    <path d="M137.283171,157.268293 L137.501159,173.427927 C137.501159,173.427927 137.432195,175.169451 139.084939,175.203537 C140.738476,175.237622 140.466585,173.148902 140.466585,173.148902 L140.969146,157.156524 L137.283171,157.268293" id="Fill-56" fill="#FFFFFE"></path>
                    <path d="M153.698049,158.519939 C153.698049,161.2325 151.499146,163.432195 148.785793,163.432195 C146.073232,163.432195 143.873537,161.2325 143.873537,158.519939 C143.873537,155.808171 146.073232,153.608476 148.785793,153.608476 C151.499146,153.608476 153.698049,155.808171 153.698049,158.519939" id="Fill-57" fill="#ED9C89"></path>
                    <path d="M60.3897561,80.9123171 C59.6660366,79.9531707 58.6363415,79.282561 57.4687195,78.9971951 C54.5889024,78.2932927 48.6429878,77.0670122 41.9194512,76.9917073 L41.9202439,76.9647561 C41.9202439,76.9647561 41.8496951,76.9687195 41.7228659,76.977439 C41.5952439,76.9687195 41.5246951,76.9647561 41.5246951,76.9647561 L41.5254878,76.9917073 C39.0309146,77.1795732 30.0625,77.0543293 27.1953659,81.8342073 C24.034939,87.1007927 22.4210366,129.999207 22.4210366,129.999207 L62.3191463,129.999207 C62.3191463,129.999207 61.5645122,110.656159 60.1115244,96.3529878 C63.892622,103.321463 68.9467683,112.350122 68.9467683,112.738537 C68.9467683,113.352073 74.0635366,121.743415 74.0635366,121.743415 C74.0635366,121.743415 80.257561,121.300305 83.2404268,119.305915 C87.0809756,116.738415 65.5342683,87.7301829 60.3897561,80.9123171" id="Fill-58" fill="#372930"></path>
                    <path d="M26.634939,78.7768293 C26.634939,78.7768293 23.4332927,88.707561 22.8593902,93.0578049 C22.2846951,97.4080488 15.7490244,129.008354 15.7490244,129.008354 L18.1270732,129.008354 C18.1270732,129.008354 24.5010366,94.2888415 24.9108537,92.7296341 C25.3214634,91.1704268 29.0264634,80.2583537 29.0264634,80.2583537 L26.634939,78.7768293" id="Fill-59" fill="#5D2539"></path>
                    <polyline id="Fill-60" fill="#C4494F" points="38.6860976 94.3562195 41.4279878 91.9139634 60.8360366 89.3464634 65.5532927 116.874756 45.2495122 119.382805 38.6860976 94.3562195"></polyline>
                    <path d="M39.6365244,94.8405488 C39.6365244,94.8405488 41.2488415,92.869939 41.4279878,92.869939 C41.6071341,92.869939 60.1789024,90.2421951 60.1789024,90.2421951 L64.5981098,116.337317 L62.2089634,118.248476 L43.6379878,119.5025 L39.6365244,94.8405488" id="Fill-61" fill="#FFFFFE"></path>
                    <polyline id="Fill-62" fill="#C4494F" points="63.0539634 118.664634 42.5805488 121.592012 38.6860976 94.3562195 59.1595122 91.4288415 63.0539634 118.664634"></polyline>
                    <polyline id="Fill-63" fill="#7375A9" points="34.7377439 98.7310366 37.4796341 96.2887805 56.8876829 93.7204878 61.604939 121.249573 41.3019512 123.756829 34.7377439 98.7310366"></polyline>
                    <path d="M35.6881707,99.2145732 C35.6881707,99.2145732 37.3004878,97.2439634 37.4796341,97.2439634 C37.6587805,97.2439634 56.2305488,94.6162195 56.2305488,94.6162195 L60.6497561,120.712134 L58.2606098,122.6225 L39.6896341,123.876524 L35.6881707,99.2145732" id="Fill-64" fill="#FFFFFE"></path>
                    <polyline id="Fill-65" fill="#7375A9" points="59.1056098 123.038659 38.6321951 125.966037 34.7377439 98.7310366 55.2111585 95.8028659 59.1056098 123.038659"></polyline>
                    <path d="M43.9843902,114.011585 C43.9843902,116.930244 41.6182317,119.296402 38.6995732,119.296402 C35.7817073,119.296402 33.4155488,116.930244 33.4155488,114.011585 C33.4155488,111.092927 35.7817073,108.727561 38.6995732,108.727561 C41.6182317,108.727561 43.9843902,111.092927 43.9843902,114.011585" id="Fill-66" fill="#ED9C89"></path>
                    <path d="M26.6515854,80.3027439 C26.6515854,80.3027439 7.14286585,105.274634 5.17304878,111.512256 C3.19689024,117.768902 3.01457317,122.079512 7.63512195,124.315671 C12.7233537,126.777744 18.0311585,119.676098 19.1718293,115.391646 C20.9989634,108.52939 24.162561,96.6779878 24.4526829,95.8092073 C24.8617073,94.5813415 26.6515854,80.3027439 26.6515854,80.3027439" id="Fill-67" fill="#372930"></path>
                    <polyline id="Fill-68" fill="#ED9C89" points="62.7622561 229.485671 64.2913415 243.63189 66.3943293 246.881098 70.9815854 244.969146 69.0704268 236.175915 67.3495122 227.764756 62.7622561 229.485671"></polyline>
                    <polyline id="Fill-69" fill="#ED9C89" points="38.4578049 228.069146 38.8977439 242.290671 37.2640244 245.799878 32.4564024 244.540305 33.1341463 235.567134 33.6755488 226.999024 38.4578049 228.069146"></polyline>
                    <path d="M22.4210366,129.999207 L26.6484146,191.299756 L32.7259146,232.255305 L39.067378,232.255305 L38.802622,189.979146 L42.5020732,139.247439 L44.880122,139.511402 C44.880122,139.511402 55.7137195,192.092439 55.4489634,192.885122 C55.185,193.677805 62.7289634,236.175915 62.7289634,236.175915 L69.0704268,236.175915 L68.3966463,192.092439 L62.3191463,129.999207 L22.4210366,129.999207" id="Fill-70" fill="#DE4D56"></path>
                    <path d="M69.7093293,241.957744 C69.7093293,241.957744 68.5646951,239.311768 70.0668293,239.097744 C71.5689634,238.882927 72.3553049,239.812744 72.3553049,239.812744 L75.9318902,243.960854 L77.7907317,246.965122 L74.929939,245.605671 L69.7093293,241.957744" id="Fill-71" fill="#302C40"></path>
                    <path d="M63.9164024,240.599085 C63.9164024,240.599085 65.0840244,243.535976 66.347561,243.031037 C67.0633537,242.744878 68.3506707,240.385061 69.2796951,240.742561 C70.2095122,241.100061 73.7853049,243.818171 75.1447561,244.532378 C76.5034146,245.248171 72.3553049,239.812744 72.3553049,239.812744 C72.3553049,239.812744 75.8597561,243.532012 77.0757317,244.175671 C78.2917073,244.819329 88.5902439,247.536646 88.805061,250.754939 L88.6275,252.82939 C88.6275,252.82939 85.2292683,255.905 77.2905488,253.18689 C69.3518293,250.469573 64.8462195,249.968598 63.4154268,249.39628 C61.9854268,248.823963 62.7717683,240.670427 63.9164024,240.599085" id="Fill-72" fill="#4C4757"></path>
                    <path d="M78.9353659,252.11439 C75.1447561,251.469939 68.8508537,248.68128 66.4196951,248.395122 C65.0182317,248.230244 63.619939,247.733232 62.6845732,247.341646 C62.7701829,248.412561 62.9976829,249.229024 63.4154268,249.39628 C64.8462195,249.968598 69.3518293,250.469573 77.2897561,253.18689 C85.2292683,255.904207 88.6275,252.82939 88.6275,252.82939 L88.805061,250.754939 C87.8752439,252.399756 82.7259756,252.757256 78.9353659,252.11439" id="Fill-73" fill="#FFFFFE"></path>
                    <path d="M71.7829878,244.071037 L71.5919512,244.02189 C71.400122,243.915671 71.3303659,243.674695 71.4365854,243.482866 C71.4746341,243.41311 72.3933537,241.775427 73.6537195,241.532866 C74.1618293,241.432195 74.6659756,241.574085 75.1090854,241.937927 C75.2787195,242.076646 75.3040854,242.325549 75.1653659,242.495183 C75.0266463,242.664817 74.7769512,242.690183 74.6081098,242.550671 C74.344939,242.337439 74.082561,242.258171 73.8035366,242.31128 C73.0568293,242.454756 72.342622,243.482866 72.1301829,243.866524 C72.0580488,243.997317 71.9225,244.071037 71.7829878,244.071037" id="Fill-74" fill="#E3E8EB"></path>
                    <path d="M72.9989634,245.215671 L72.8079268,245.165732 C72.6160976,245.059512 72.5463415,244.819329 72.652561,244.626707 C72.6906098,244.557744 73.6093293,242.919268 74.8704878,242.676707 C75.3770122,242.576829 75.8819512,242.717927 76.3258537,243.081768 C76.4946951,243.220488 76.520061,243.46939 76.3813415,243.639024 C76.2434146,243.808659 75.9937195,243.833232 75.8240854,243.695305 C75.5609146,243.480488 75.2985366,243.402012 75.0203049,243.455122 C74.2728049,243.59939 73.5578049,244.626707 73.3461585,245.011159 C73.2740244,245.141951 73.1384756,245.215671 72.9989634,245.215671" id="Fill-75" fill="#E3E8EB"></path>
                    <path d="M74.5010976,246.002012 L74.3092683,245.952073 C74.1182317,245.846646 74.0484756,245.605671 74.1546951,245.413841 C74.1927439,245.344085 75.1106707,243.70561 76.3718293,243.463841 C76.8791463,243.366341 77.3840854,243.505854 77.8279878,243.868902 C77.9968293,244.007622 78.0221951,244.25811 77.8826829,244.426159 C77.7447561,244.595793 77.495061,244.621951 77.3254268,244.482439 C77.0630488,244.266829 76.8006707,244.189939 76.522439,244.241463 C75.7789024,244.384146 75.0615244,245.413049 74.8482927,245.7975 C74.7761585,245.928293 74.6406098,246.002012 74.5010976,246.002012" id="Fill-76" fill="#E3E8EB"></path>
                    <path d="M76.0745732,246.717012 L75.8827439,246.667866 C75.6917073,246.561646 75.6219512,246.320671 75.7281707,246.128841 C75.7662195,246.059085 76.6841463,244.421402 77.9453049,244.178841 C78.452622,244.077378 78.9567683,244.220854 79.4006707,244.583902 C79.5703049,244.722622 79.5956707,244.971524 79.4569512,245.141159 C79.3182317,245.310793 79.0685366,245.335366 78.8989024,245.196646 C78.6365244,244.983415 78.374939,244.904146 78.095122,244.956463 C77.347622,245.100732 76.6334146,246.128841 76.4217683,246.5125 C76.3488415,246.643293 76.2140854,246.717012 76.0745732,246.717012" id="Fill-77" fill="#E3E8EB"></path>
                    <path d="M33.5804268,241.298232 C33.5804268,241.298232 34.725061,238.652256 33.2229268,238.438232 C31.7215854,238.222622 30.9344512,239.153232 30.9344512,239.153232 L27.3586585,243.301341 L25.4990244,246.30561 L28.3598171,244.946159 L33.5804268,241.298232" id="Fill-78" fill="#302C40"></path>
                    <path d="M39.3733537,239.939573 C39.3733537,239.939573 38.2057317,242.876463 36.9421951,242.371524 C36.2271951,242.085366 34.939878,239.725549 34.010061,240.083049 C33.0802439,240.440549 29.5044512,243.157866 28.145,243.872866 C26.7863415,244.588659 30.9344512,239.153232 30.9344512,239.153232 C30.9344512,239.153232 27.43,242.8725 26.2140244,243.515366 C24.9988415,244.159817 14.6995122,246.877134 14.4846951,250.095427 L14.6622561,252.169878 C14.6622561,252.169878 18.0612805,255.244695 26,252.526585 C33.9379268,249.810061 38.4443293,249.309085 39.8743293,248.736768 C41.305122,248.164451 40.5179878,240.010915 39.3733537,239.939573" id="Fill-79" fill="#4C4757"></path>
                    <path d="M24.3551829,251.454878 C28.145,250.810427 34.4389024,248.021768 36.8708537,247.734817 C38.2715244,247.569939 39.6698171,247.07372 40.6059756,246.682134 C40.5203659,247.753049 40.2928659,248.569512 39.8743293,248.736768 C38.4443293,249.309085 33.9379268,249.810061 26,252.526585 C18.0612805,255.244695 14.6622561,252.169085 14.6622561,252.169085 L14.4846951,250.095427 C15.4145122,251.740244 20.5637805,252.097744 24.3551829,251.454878" id="Fill-80" fill="#FFFFFE"></path>
                    <path d="M31.507561,243.411524 C31.3680488,243.411524 31.2325,243.337805 31.1603659,243.207012 C30.9463415,242.822561 30.2289634,241.793659 29.4854268,241.651768 C29.2064024,241.59628 28.9448171,241.677134 28.682439,241.891159 C28.5128049,242.030671 28.2631098,242.005305 28.1243902,241.835671 C27.9864634,241.666037 28.0110366,241.417134 28.1806707,241.278415 C28.6245732,240.915366 29.1287195,240.77189 29.6360366,240.873354 C30.8971951,241.115915 31.815122,242.753598 31.8539634,242.823354 C31.9593902,243.015183 31.8896341,243.256159 31.6985976,243.362378 L31.507561,243.411524" id="Fill-81" fill="#E3E8EB"></path>
                    <path d="M30.2915854,244.556159 C30.1520732,244.556159 30.0173171,244.482439 29.9443902,244.351646 C29.7303659,243.966402 29.0129878,242.938293 28.2694512,242.79561 C27.9904268,242.740915 27.7288415,242.820976 27.4664634,243.035793 C27.2968293,243.17372 27.0479268,243.149146 26.9084146,242.979512 C26.7696951,242.809878 26.795061,242.560976 26.9646951,242.422256 C27.4078049,242.059207 27.9111585,241.916524 28.420061,242.017195 C29.6812195,242.259756 30.5991463,243.898232 30.6379878,243.967195 C30.7442073,244.159817 30.6744512,244.4 30.4834146,244.50622 L30.2915854,244.556159" id="Fill-82" fill="#E3E8EB"></path>
                    <path d="M28.7894512,245.3425 C28.649939,245.3425 28.5143902,245.26878 28.4422561,245.137988 C28.2282317,244.753537 27.5108537,243.724634 26.7673171,243.581951 C26.489878,243.528049 26.2267073,243.60811 25.9643293,243.822134 C25.7954878,243.960854 25.545,243.935488 25.4070732,243.765854 C25.2683537,243.597012 25.2937195,243.347317 25.4633537,243.208598 C25.9064634,242.845549 26.4106098,242.704451 26.9179268,242.804329 C28.1790854,243.046098 29.0970122,244.684573 29.1358537,244.754329 C29.2420732,244.946159 29.1723171,245.186341 28.9812805,245.292561 L28.7894512,245.3425" id="Fill-83" fill="#E3E8EB"></path>
                    <path d="M27.2159756,246.0575 C27.0764634,246.0575 26.9409146,245.98378 26.8687805,245.852988 C26.6547561,245.468537 25.9381707,244.439634 25.1938415,244.296951 C24.9148171,244.242256 24.6532317,244.32311 24.3916463,244.537134 C24.2212195,244.675854 23.9723171,244.650488 23.8335976,244.481646 C23.694878,244.312012 23.7202439,244.06311 23.889878,243.92439 C24.3329878,243.561341 24.8371341,243.418659 25.3452439,243.519329 C26.6056098,243.76189 27.5243293,245.399573 27.562378,245.469329 C27.6685976,245.661159 27.5988415,245.902134 27.4078049,246.008354 L27.2159756,246.0575" id="Fill-84" fill="#E3E8EB"></path>
                    <polyline id="Fill-85" fill="#B33B42" points="61.7119512 233.288963 70.0256098 233.30878 69.6435366 237.896037 62.3984146 237.84372 61.7119512 233.288963"></polyline>
                    <polyline id="Fill-86" fill="#B33B42" points="31.7620122 231.309634 40.0756707 231.329451 39.6935976 235.9175 32.4484756 235.865183 31.7620122 231.309634"></polyline>
                    <path d="M41.3170122,113.147561 C41.3170122,113.147561 73.5245122,110.274878 75.040122,112.944634 C77.9841463,118.135122 77.542622,120.515549 74.0635366,121.743415 C70.5836585,122.97128 39.0657927,117.65 39.0657927,117.65 L41.3170122,113.147561" id="Fill-87" fill="#ED9C89"></path>
                    <path d="M25.3539634,103.437988 C27.6432317,101.84628 28.7331707,99.0489024 29.5084146,96.3704268 C31.1413415,90.7352439 31.9467073,84.8614634 31.8920122,78.9948171 C29.8928659,78.1918293 27.5282927,77.787561 25.5180488,78.5620122 C23.4285366,86.3818293 22.4234146,94.38 22.687378,102.470122 C23.3936585,103.116951 24.3956098,103.437195 25.3539634,103.437988" id="Fill-88" fill="#D1894C"></path>
                    <path d="M50.1427439,84.6942073 C50.765,83.9482927 51.3864634,80.4264024 51.7693293,77.8589024 C48.9513415,77.4102439 45.5515244,77.0329268 41.9194512,76.9917073 L41.9202439,76.9647561 C41.9202439,76.9647561 41.8496951,76.9687195 41.7228659,76.977439 C41.5952439,76.9687195 41.5246951,76.9647561 41.5246951,76.9647561 L41.5254878,76.9917073 C40.2104268,77.0907927 37.0951829,77.1098171 34.0235366,77.7994512 C33.912561,79.4165244 33.8110976,82.7021951 34.7036585,83.8920122 C35.9069512,85.4964024 49.1407927,85.8975 50.1427439,84.6942073" id="Fill-89" fill="#ED9C89"></path>
                    <polyline id="Fill-90" fill="#B33B42" points="42.5020732 139.247439 33.2260976 139.05878 38.802622 189.979146 42.5020732 139.247439"></polyline>
                    <path d="M41.9202439,67.6459756 L41.9202439,67.6459756 C39.7379878,67.6459756 37.9695122,69.4144512 37.9695122,71.5959146 L37.9695122,78.9702439 C37.9695122,81.1517073 39.7379878,82.9201829 41.9202439,82.9201829 C44.1017073,82.9201829 45.8701829,81.1517073 45.8701829,78.9702439 L45.8701829,71.5959146 C45.8701829,69.4144512 44.1017073,67.6459756 41.9202439,67.6459756" id="Fill-91" fill="#ED9C89"></path>
                    <path d="M41.9202439,66.0606098 L41.9202439,66.0606098 C39.7379878,66.0606098 37.9695122,67.8290854 37.9695122,70.0105488 L37.9695122,75.0797561 C39.2211585,75.4546951 40.5457317,75.662378 41.9202439,75.662378 C43.2939634,75.662378 44.6185366,75.4546951 45.8701829,75.0797561 L45.8701829,70.0105488 C45.8701829,67.8290854 44.1017073,66.0606098 41.9202439,66.0606098" id="Fill-92" fill="#E77D69"></path>
                    <path d="M51.1795732,41.4914024 C51.1795732,46.6057927 47.0338415,50.7515244 41.9202439,50.7515244 C36.8058537,50.7515244 32.660122,46.6057927 32.660122,41.4914024 C32.660122,36.3778049 36.8058537,32.2320732 41.9202439,32.2320732 C47.0338415,32.2320732 51.1795732,36.3778049 51.1795732,41.4914024" id="Fill-93" fill="#8D565F"></path>
                    <path d="M55.670122,56.5539634 C55.670122,64.1478659 49.5141463,70.3038415 41.9202439,70.3038415 C34.3263415,70.3038415 28.1703659,64.1478659 28.1703659,56.5539634 C28.1703659,48.960061 34.3263415,42.8040854 41.9202439,42.8040854 C49.5141463,42.8040854 55.670122,48.960061 55.670122,56.5539634" id="Fill-94" fill="#DE4D56"></path>
                    <path d="M55.670122,59.7246951 C55.670122,67.3185976 49.5141463,73.4745732 41.9202439,73.4745732 C34.3263415,73.4745732 28.1703659,67.3185976 28.1703659,59.7246951 C28.1703659,52.1307927 34.3263415,45.9748171 41.9202439,45.9748171 C49.5141463,45.9748171 55.670122,52.1307927 55.670122,59.7246951" id="Fill-95" fill="#ED9C89"></path>
                    <path d="M32.8265854,60.5165854 C32.8265854,62.8003049 30.9756707,64.6512195 28.6919512,64.6512195 C26.4090244,64.6512195 24.5581098,62.8003049 24.5581098,60.5165854 C24.5581098,58.2336585 26.4090244,56.3819512 28.6919512,56.3819512 C30.9756707,56.3819512 32.8265854,58.2336585 32.8265854,60.5165854" id="Fill-96" fill="#ED9C89"></path>
                    <path d="M58.8907927,60.5165854 C58.8907927,62.8003049 57.039878,64.6512195 54.7561585,64.6512195 C52.4732317,64.6512195 50.6223171,62.8003049 50.6223171,60.5165854 C50.6223171,58.2336585 52.4732317,56.3819512 54.7561585,56.3819512 C57.039878,56.3819512 58.8907927,58.2336585 58.8907927,60.5165854" id="Fill-97" fill="#ED9C89"></path>
                    <path d="M28.337622,57.2879878 C28.337622,57.2879878 38.1843293,45.4778049 49.7471951,48.2862805 C49.7471951,48.2862805 42.9507317,41.4604878 36.0092073,44.9998171 C27.5845732,49.2945732 28.337622,57.2879878 28.337622,57.2879878" id="Fill-98" fill="#8D565F"></path>
                    <path d="M38.0503659,59.5075 C38.0503659,60.0679268 37.5929878,60.5221341 37.0285976,60.5221341 C36.4634146,60.5221341 36.0060366,60.0679268 36.0060366,59.5075 C36.0060366,58.9470732 36.4634146,58.4928659 37.0285976,58.4928659 C37.5929878,58.4928659 38.0503659,58.9470732 38.0503659,59.5075" id="Fill-99" fill="#602924"></path>
                    <path d="M47.6346951,59.5075 C47.6346951,60.0679268 47.1773171,60.5221341 46.6121341,60.5221341 C46.0477439,60.5221341 45.5903659,60.0679268 45.5903659,59.5075 C45.5903659,58.9470732 46.0477439,58.4928659 46.6121341,58.4928659 C47.1773171,58.4928659 47.6346951,58.9470732 47.6346951,59.5075" id="Fill-100" fill="#602924"></path>
                    <path d="M38.1090244,54.6491463 C38.0939634,54.6467683 37.7919512,54.5865244 37.3171341,54.5865244 C36.3722561,54.5857317 34.7147561,54.8275 33.3616463,56.2709756 L33.7952439,56.677622 C34.9969512,55.395061 36.4634146,55.182622 37.3171341,55.1810366 C37.5295732,55.1810366 37.7015854,55.1945122 37.8196951,55.2079878 L37.9528659,55.2254268 L37.9925,55.232561 L38.1090244,54.6491463" id="Fill-101" fill="#602924"></path>
                    <path d="M45.5206098,55.232561 L45.5602439,55.2254268 C45.6482317,55.2119512 45.8773171,55.1810366 46.1959756,55.1810366 C47.0496951,55.182622 48.5161585,55.395061 49.7178659,56.677622 L50.1514634,56.2709756 C48.7983537,54.8275 47.1408537,54.5857317 46.1959756,54.5865244 C45.7211585,54.5865244 45.4191463,54.6467683 45.4040854,54.6491463 L45.5206098,55.232561" id="Fill-102" fill="#602924"></path>
                    <path d="M47.7892683,64.6092073 L47.7718293,64.6266463 C47.5689024,64.8264024 45.6957927,66.5552439 42.8984146,66.5504878 C42.4117073,66.5504878 41.8956707,66.4989634 41.3534756,66.3784756 L41.2242683,66.9587195 C41.810061,67.0887195 42.3696951,67.145 42.8984146,67.145 C46.1531707,67.1386585 48.1887805,65.047561 48.214939,65.0245732 L47.7892683,64.6092073" id="Fill-103" fill="#602924"></path>
                    <path d="M4.60310976,141.303659 C3.59243902,143.516829 2.84414634,145.951951 3.185,148.360915 C3.57341463,151.106768 5.35140244,153.499085 7.51542683,155.23189 C8.76073171,156.229878 10.2279878,157.074085 11.8228659,157.118476 C13.8854268,157.174756 15.7918293,155.850976 16.9689634,154.157805 C21.3247561,147.888476 23.3135976,135.553537 18.4306707,128.989329 C16.804878,126.802317 14.8406098,125.601402 12.5933537,127.6275 C10.8882927,129.164512 9.84908537,132.239329 8.6497561,134.188537 C7.21817073,136.514268 5.73981707,138.813049 4.60310976,141.303659" id="Fill-104" fill="#D1894C"></path>
                    <path d="M5.35457317,152.439268 C7.42823171,148.210305 9.50109756,143.982134 11.5739634,139.753171 C13.1878659,136.460366 15.0554268,132.67372 15.6713415,129.058293 C17.55,127.698049 20.3029878,127.981829 22.1697561,129.35872 C24.0365244,130.736402 25.0915854,133.00189 25.4617683,135.291951 C25.8311585,137.582012 25.5870122,139.923598 25.2905488,142.223963 C24.5176829,148.230915 23.3294512,154.364695 20.0635976,159.46561 C16.3308537,160.91939 12.0844512,160.70378 8.71871951,158.533415 C6.77981707,157.283354 5.65817073,154.726159 5.35457317,152.439268" id="Fill-105" fill="#B77949"></path>
                    <path d="M19.6537805,127.138415 C17.8337805,125.700488 15.3978659,124.845183 13.1609146,125.460305 C12.1835366,125.729817 11.2996951,126.259329 10.447561,126.808659 C7.98945122,128.392439 5.67243902,130.195 3.5329878,132.187805 C3.16280488,132.532622 2.77676829,132.920244 2.69670732,133.419634 C2.63567073,133.797744 2.76012195,134.177439 2.8972561,134.534939 C3.41329268,135.884085 4.12353659,137.159512 4.99945122,138.308902 C5.4370122,138.883598 5.93878049,139.444817 6.59987805,139.73811 C7.30060976,140.048841 8.10676829,140.024268 8.85981707,139.878415 C10.9429878,139.475732 12.7471341,138.224878 14.4823171,137.004146 C18.6058537,134.104512 25.6020732,131.838232 19.6537805,127.138415" id="Fill-106" fill="#AE6A3F"></path>
                    <path d="M20.6612805,134.129085 C19.092561,134.129085 17.8163415,135.405305 17.8163415,136.974024 C17.8163415,138.542744 19.092561,139.818963 20.6612805,139.818963 C22.23,139.818963 23.5062195,138.542744 23.5062195,136.974024 C23.5062195,135.405305 22.23,134.129085 20.6612805,134.129085 Z M20.6612805,140.611646 C18.6557927,140.611646 17.0236585,138.980305 17.0236585,136.974024 C17.0236585,134.968537 18.6557927,133.336402 20.6612805,133.336402 C22.6667683,133.336402 24.2989024,134.968537 24.2989024,136.974024 C24.2989024,138.980305 22.6667683,140.611646 20.6612805,140.611646 L20.6612805,140.611646 Z" id="Fill-107" fill="#E1BF7F"></path>
                    <path d="M5.74060976,133.777134 C5.74060976,133.777134 3.92219512,136.944695 4.60310976,141.303659 L5.23091463,141.832378 C5.23091463,141.832378 5.8872561,134.978841 6.74890244,134.855183 L5.74060976,133.777134" id="Fill-108" fill="#5D2539"></path>
                    <polyline id="Fill-109" fill="#673629" points="30.0815244 78.3789024 22.2886585 135.944329 19.1179268 135.547988 27.6527439 78.2021341 30.0815244 78.3789024"></polyline>
                    <path d="M29.1818293,95.5832927 C29.1818293,98.2966463 26.9829268,100.495549 24.2703659,100.495549 C21.5578049,100.495549 19.3581098,98.2966463 19.3581098,95.5832927 C19.3581098,92.8707317 21.5578049,90.6718293 24.2703659,90.6718293 C26.9829268,90.6718293 29.1818293,92.8707317 29.1818293,95.5832927" id="Fill-110" fill="#ED9C89"></path>
                    <path d="M20.7112195,97.5546951 L6.72987805,113.308476 C6.72987805,113.308476 1.49579268,119.743476 7.52652439,122.304634 C13.5572561,124.865793 12.7661585,123.049756 14.9666463,120.355427 C15.355061,119.879817 24.0135366,100.22128 24.0135366,100.22128 L20.7112195,97.5546951" id="Fill-111" fill="#ED9C89"></path>
                    <path d="M49.6996341,49.8882927 C50.6730488,51.9421341 52.0364634,53.7819512 53.3911585,55.6067073 C53.6543293,55.9602439 53.9214634,56.3193293 54.272622,56.5856707 C54.5889024,56.8266463 54.9670122,56.9851829 55.3601829,57.0406707 C55.492561,55.5916463 54.5730488,54.290061 53.8778659,53.0114634 C53.3618293,52.062622 52.9432927,51.0448171 52.2433537,50.2220122 C51.6290244,49.5014634 50.8284146,48.9664024 50.0103659,48.5026829 C49.5989634,48.2696341 49.3643293,48.0294512 49.254939,48.5343902 C49.1725,48.9140854 49.5426829,49.5569512 49.6996341,49.8882927" id="Fill-112" fill="#8D565F"></path>
                    <path d="M176.154756,68.9515244 C174.995061,70.5535366 173.532561,72.0984756 173.279695,74.0595732 C173.121159,75.287439 173.471524,76.5279878 173.966159,77.6631098 C175.968476,82.2543293 180.352012,85.5273171 185.131098,87.0254878 C189.910976,88.5228659 195.061829,88.4166463 200.01372,87.6620122 C203.425427,87.1428049 206.974268,86.2256707 209.431585,83.8032317 C210.252012,82.9946951 210.94878,81.9697561 211.009024,80.8195732 C211.038354,80.2607317 210.915488,79.7042683 210.75378,79.1684146 C209.968232,76.5628659 208.284573,74.3259146 207.248537,71.809939 C205.923171,68.5908537 205.70439,65.0443902 205.109878,61.6144512 C204.515366,58.1837195 203.415122,54.630122 200.816707,52.3139024 C198.363354,50.1268902 194.820061,49.3754268 191.588293,49.967561 C187.12311,50.7864024 182.928232,53.9912195 180.795122,57.9720732 C178.875244,61.5557927 178.621585,65.5429878 176.154756,68.9515244" id="Fill-113" fill="#8D565F"></path>
                    <path d="M177.842378,85.6747561 C177.842378,85.6747561 170.454573,94.512378 169.15061,102.145122 C167.846646,109.777866 165.022317,131.872317 167.846646,135.889634 C170.671768,139.906951 173.93128,139.906951 174.800854,139.906951 C175.669634,139.906951 215.871341,142.71939 215.654146,136.291524 C215.436159,129.863659 211.525061,87.4820732 211.525061,87.4820732 C211.525061,87.4820732 194.140732,78.4431098 177.842378,85.6747561" id="Fill-114" fill="#DE4D56"></path>
                    <path d="M216.504695,96.137378 C214.468293,92.2762195 212.599146,88.8177439 211.476707,86.7535976 C210.777561,85.4670732 209.581402,84.5332927 208.161707,84.1718293 C204.370305,83.2063415 196.624207,81.3784146 192.03061,81.299939 C185.774756,81.1945122 179.073415,83.0002439 176.19439,83.7041463 C175.027561,83.9903049 173.997073,84.660122 173.273354,85.620061 C168.128841,92.4371341 146.581341,121.445366 150.422683,124.012866 C153.405549,126.007256 159.600366,126.450366 159.600366,126.450366 C159.600366,126.450366 164.716341,118.059024 164.716341,117.445488 C164.716341,117.057866 169.770488,108.028415 173.550793,101.059939 C172.097805,115.36311 171.46128,129.019451 171.46128,129.019451 L210.5675,129.019451 C210.5675,129.019451 210.6325,118.507683 209.429207,104.796646 C209.721707,105.881829 210.304329,107.246829 211.026463,108.747378" id="Fill-115" fill="#E1BF7F"></path>
                    <path d="M172.633659,142.290549 C172.633659,142.290549 176.332317,188.530915 177.65372,193.287012 C178.975122,198.04311 184.513598,239.64311 184.513598,239.64311 C184.513598,239.64311 187.165915,240.055305 188.222561,239.790549 C189.28,239.526585 191.658049,202.006524 189.015244,193.022256 C187.875366,189.144451 188.75128,146.253963 188.75128,146.253963 L194.82878,145.99 L195.356707,191.172927 C195.356707,191.172927 194.648049,203.763902 194.82878,207.026585 C195.356707,216.53878 199.056159,239.790549 199.056159,239.790549 C199.056159,239.790549 202.490854,240.847988 202.75561,239.262622 C203.019573,237.677256 206.190305,193.022256 206.190305,193.022256 L209.625,134.36372 L175.80439,135.949085 L172.633659,142.290549" id="Fill-116" fill="#ED9C89"></path>
                    <path d="M216.140854,96.1381707 C223.94878,107.121585 234.079268,125.836829 230.941829,126.150732 C223.480305,126.895854 221.757805,125.310488 221.757805,125.310488 C221.757805,125.310488 220.135183,119.539756 218.235122,116.737622 C217.509024,115.668293 212.974085,110.099695 209.613902,103.962744 C213.081098,102.489939 215.332317,98.0017683 216.140854,96.1381707" id="Fill-117" fill="#ED9C89"></path>
                    <path d="M171.459695,129.054329 L165.653293,168.139146 C165.653293,168.139146 172.244451,173.413659 195.095915,173.413659 C217.947378,173.413659 220.583841,167.260854 220.583841,167.260854 L210.565122,129.054329 L171.459695,129.054329" id="Fill-118" fill="#372930"></path>
                    <path d="M184.23061,237.919817 C184.23061,237.919817 185.30628,235.433171 183.894512,235.231829 C182.483537,235.029695 181.743963,235.904024 181.743963,235.904024 L178.38378,239.802439 L176.635915,242.62439 L179.324695,241.347378 L184.23061,237.919817" id="Fill-119" fill="#B33B42"></path>
                    <path d="M189.673963,236.642805 C189.673963,236.642805 188.576098,239.402927 187.389451,238.92811 C186.717256,238.65939 185.507622,236.441463 184.634085,236.777561 C183.759756,237.113659 180.399573,239.667683 179.123354,240.339085 C177.845549,241.01128 181.743963,235.904024 181.743963,235.904024 C181.743963,235.904024 178.450366,239.398963 177.30811,240.002988 C176.165854,240.607805 166.487195,243.162622 166.285854,246.185915 L166.452317,248.135122 C166.452317,248.135122 169.646829,251.026037 177.106768,248.47122 C184.566707,245.917195 188.80122,245.447134 190.144817,244.909695 C191.489207,244.371463 190.750427,236.710183 189.673963,236.642805" id="Fill-120" fill="#DE4D56"></path>
                    <path d="M175.561037,247.46372 C179.123354,246.858902 185.037561,244.2375 187.322073,243.967988 C188.63872,243.813415 189.952988,243.347317 190.832073,242.97872 C190.752012,243.985427 190.537195,244.752744 190.144817,244.909695 C188.80122,245.447134 184.566707,245.917195 177.106768,248.47122 C169.646829,251.026037 166.452317,248.135122 166.452317,248.135122 L166.285854,246.185915 C167.160183,247.731646 171.99872,248.067744 175.561037,247.46372" id="Fill-121" fill="#FFFFFE"></path>
                    <path d="M182.282195,239.905488 C182.15061,239.905488 182.02378,239.836524 181.95561,239.713659 C181.755061,239.352195 181.080488,238.385122 180.382134,238.251159 C180.120549,238.199634 179.874024,238.275732 179.6275,238.477073 C179.467378,238.607866 179.233537,238.583293 179.103537,238.424756 C178.972744,238.265427 178.997317,238.030793 179.156646,237.900793 C179.572805,237.559146 180.046829,237.42439 180.523232,237.521098 C181.708293,237.748598 182.571524,239.287195 182.607195,239.352988 C182.707073,239.53372 182.64128,239.759634 182.462134,239.859512 L182.282195,239.905488" id="Fill-122" fill="#E3E8EB"></path>
                    <path d="M181.139939,240.981159 C181.009146,240.981159 180.881524,240.911402 180.813354,240.789329 C180.612805,240.427866 179.938232,239.460793 179.239085,239.326829 C178.9775,239.274512 178.731768,239.35061 178.484451,239.551951 C178.325915,239.681951 178.09128,239.658963 177.960488,239.499634 C177.830488,239.340305 177.854268,239.106463 178.012805,238.976463 C178.429756,238.634817 178.902988,238.500061 179.380976,238.595183 C180.566037,238.823476 181.429268,240.362866 181.464939,240.428659 C181.564817,240.608598 181.499024,240.834512 181.319085,240.93439 L181.139939,240.981159" id="Fill-123" fill="#E3E8EB"></path>
                    <path d="M179.727378,241.719146 C179.596585,241.719146 179.469756,241.650976 179.401585,241.527317 C179.200244,241.165854 178.527256,240.19878 177.82811,240.066402 C177.566524,240.014878 177.32,240.090183 177.073476,240.291524 C176.914146,240.421524 176.679512,240.397744 176.549512,240.238415 C176.419512,240.079085 176.443293,239.845244 176.601829,239.715244 C177.01878,239.373598 177.492805,239.24122 177.97,239.334756 C179.155061,239.562256 180.0175,241.101646 180.053963,241.166646 C180.153841,241.347378 180.088049,241.574085 179.90811,241.673171 L179.727378,241.719146" id="Fill-124" fill="#E3E8EB"></path>
                    <path d="M178.249024,242.392134 C178.118232,242.392134 177.991402,242.322378 177.923232,242.200305 C177.722683,241.838841 177.048902,240.871768 176.349756,240.737805 C176.087378,240.68628 175.840854,240.761585 175.595122,240.962927 C175.435,241.092927 175.200366,241.069146 175.070366,240.91061 C174.940366,240.752073 174.964939,240.517439 175.123476,240.387439 C175.540427,240.045793 176.014451,239.911829 176.490854,240.006159 C177.676707,240.234451 178.538354,241.773841 178.574817,241.839634 C178.674695,242.019573 178.608902,242.24628 178.429756,242.345366 L178.249024,242.392134" id="Fill-125" fill="#E3E8EB"></path>
                    <path d="M206.00561,237.905549 C205.623537,237.180244 204.858598,236.729207 204.039756,236.780732 C203.589512,236.809268 203.102805,236.877439 202.745305,237.026463 C201.876524,237.38872 201.876524,239.345061 202.165854,239.707317 C202.455976,240.069573 206.297317,246.4475 206.297317,246.4475 C206.297317,246.4475 210.065732,245.215671 209.993598,244.708354 C209.920671,244.201037 206.804634,239.635183 206.804634,239.635183 C206.804634,239.635183 206.435244,238.722805 206.00561,237.905549" id="Fill-126" fill="#B33B42"></path>
                    <path d="M198.865915,238.869451 C198.865915,238.869451 197.622195,243.393293 198.056585,245.712683 C198.056585,245.712683 197.982866,246.352378 200.302256,247.372561 C202.622439,248.393537 204.037378,252.537683 210.633293,251.885305 C217.228415,251.232927 216.503902,250.29122 216.503902,250.29122 C216.503902,250.29122 217.294207,245.304451 211.109695,243.214939 C208.095122,242.196341 206.554939,238.367683 206.554939,238.367683 C206.554939,238.367683 205.459451,237.885732 205.677439,238.827439 C205.894634,239.769146 209.395915,244.009207 209.395915,244.009207 L208.309939,244.218476 C208.309939,244.218476 205.377012,238.754512 204.14439,238.609451 C202.911768,238.46439 201.245549,240.276463 200.230915,239.986341 C199.21628,239.697012 198.865915,238.869451 198.865915,238.869451" id="Fill-127" fill="#DE4D56"></path>
                    <path d="M210.633293,251.885305 C217.228415,251.232927 216.503902,250.29122 216.503902,250.29122 C216.503902,250.29122 216.618049,249.531829 216.400061,248.487073 C215.721524,248.980122 213.652622,250.16122 209.353902,250.19372 C203.922439,250.235732 203.797195,247.101463 201.457195,246.349207 C199.862317,245.837134 198.613049,244.946159 197.968598,244.424573 C197.962256,244.891463 197.986037,245.332988 198.056585,245.712683 C198.056585,245.712683 197.982866,246.352378 200.302256,247.372561 C202.622439,248.393537 204.037378,252.537683 210.633293,251.885305" id="Fill-128" fill="#FFFFFE"></path>
                    <path d="M204.047683,240.779024 C203.945427,240.779024 203.843171,240.744146 203.759146,240.673598 C203.57128,240.514268 203.545915,240.232866 203.704451,240.044207 C203.749634,239.99189 204.813415,238.741037 206.04128,238.687134 C206.569207,238.67128 207.0575,238.863902 207.45622,239.264207 C207.631402,239.438598 207.631402,239.721585 207.45622,239.896768 C207.281829,240.070366 206.998841,240.070366 206.823659,239.896768 C206.600915,239.672439 206.336159,239.559878 206.0825,239.580488 C205.389695,239.609024 204.626341,240.340671 204.390122,240.620488 C204.300549,240.725122 204.17372,240.779024 204.047683,240.779024" id="Fill-129" fill="#FFFFFE"></path>
                    <path d="M204.966402,242.282744 C204.864146,242.282744 204.76189,242.247866 204.677866,242.17811 C204.49,242.017988 204.464634,241.737378 204.623963,241.54872 C204.668354,241.494817 205.732927,240.244756 206.961585,240.191646 C207.484756,240.175793 207.974634,240.368415 208.374939,240.767927 C208.550122,240.942317 208.550122,241.225305 208.374939,241.399695 C208.200549,241.574878 207.917561,241.574878 207.742378,241.399695 C207.520427,241.177744 207.287378,241.083415 207.00122,241.085 C206.31,241.113537 205.545061,241.845183 205.308049,242.124207 C205.220061,242.228841 205.092439,242.282744 204.966402,242.282744" id="Fill-130" fill="#FFFFFE"></path>
                    <path d="M206.304451,243.536768 C206.202988,243.536768 206.100732,243.502683 206.016707,243.432927 C205.827256,243.272805 205.802683,242.991402 205.962012,242.802744 C206.006402,242.749634 207.070976,241.49878 208.298049,241.444878 C208.822805,241.429024 209.312683,241.621646 209.712988,242.021159 C209.886585,242.195549 209.886585,242.478537 209.712988,242.652927 C209.537805,242.82811 209.254024,242.82811 209.080427,242.652927 C208.856098,242.428598 208.600854,242.332683 208.337683,242.338232 C207.640122,242.369146 206.880732,243.099207 206.646098,243.377439 C206.55811,243.482866 206.432073,243.536768 206.304451,243.536768" id="Fill-131" fill="#FFFFFE"></path>
                    <path d="M207.432439,244.916829 C207.330183,244.916829 207.227927,244.881951 207.14311,244.81061 C206.955244,244.652073 206.930671,244.370671 207.089207,244.182012 C207.13439,244.128902 208.198171,242.877256 209.426829,242.823354 C209.949207,242.808293 210.440671,243.000915 210.840183,243.400427 C211.015366,243.574817 211.015366,243.857805 210.840183,244.032195 C210.666585,244.207378 210.382805,244.207378 210.208415,244.032195 C209.984878,243.808659 209.739146,243.715915 209.468049,243.7175 C208.775244,243.746037 208.010305,244.477683 207.774085,244.756707 C207.685305,244.862134 207.558476,244.916829 207.432439,244.916829" id="Fill-132" fill="#FFFFFE"></path>
                    <path d="M209.904024,121.059329 C207.613963,119.467622 203.684634,102.435244 202.908598,99.7567683 C201.275671,94.1215854 200.611402,87.2173171 200.666098,81.3506707 C202.666037,80.5484756 204.88872,81.1739024 206.899756,81.947561 C208.988476,89.767378 212.834573,112.001341 212.57061,120.091463 C211.863537,120.738293 210.862378,121.058537 209.904024,121.059329" id="Fill-133" fill="#302C40"></path>
                    <polyline id="Fill-134" fill="#00A88B" points="202.436951 99.5839634 199.695061 97.1417073 180.287012 94.5742073 175.569756 122.1025 195.873537 124.610549 202.436951 99.5839634"></polyline>
                    <path d="M201.486524,100.0675 C201.486524,100.0675 199.874207,98.0968902 199.695061,98.0968902 C199.515915,98.0968902 180.944939,95.4691463 180.944939,95.4691463 L176.524939,121.565061 L178.914085,123.47622 L197.485854,124.730244 L201.486524,100.0675" id="Fill-135" fill="#FFFFFE"></path>
                    <polyline id="Fill-136" fill="#00A88B" points="178.069878 123.891585 198.543293 126.818963 202.436951 99.5839634 181.963537 96.6565854 178.069878 123.891585"></polyline>
                    <polyline id="Fill-137" fill="#DE4D56" points="206.385305 103.957988 203.643415 101.515732 184.236159 98.9482317 179.518902 126.477317 199.82189 128.985366 206.385305 103.957988"></polyline>
                    <path d="M205.434878,104.442317 C205.434878,104.442317 203.822561,102.470915 203.643415,102.470915 C203.464268,102.470915 184.8925,99.8439634 184.8925,99.8439634 L180.474085,125.939085 L182.862439,127.850244 L201.433415,129.104268 L205.434878,104.442317" id="Fill-138" fill="#FFFFFE"></path>
                    <polyline id="Fill-139" fill="#DE4D56" points="182.017439 128.266402 202.490854 131.19378 206.385305 103.957988 185.91189 101.03061 182.017439 128.266402"></polyline>
                    <path d="M191.742866,72.3529268 L191.743659,72.3529268 C193.925122,72.3529268 195.692805,74.1214024 195.692805,76.3028659 L195.692805,83.6771951 C195.692805,85.8586585 193.925122,87.6271341 191.743659,87.6271341 L191.742866,87.6271341 C189.561402,87.6271341 187.792927,85.8586585 187.792927,83.6771951 L187.792927,76.3028659 C187.792927,74.1214024 189.561402,72.3529268 191.742866,72.3529268" id="Fill-140" fill="#ED9C89"></path>
                    <path d="M191.742866,70.767561 L191.742866,70.767561 C193.925122,70.767561 195.692805,72.5360366 195.692805,74.7175 L195.692805,79.7867073 C194.441159,80.1616463 193.116585,80.3693293 191.742866,80.3693293 C190.369146,80.3693293 189.044573,80.1616463 187.792134,79.7867073 L187.792134,74.7175 C187.792134,72.5360366 189.561402,70.767561 191.742866,70.767561" id="Fill-141" fill="#E77D69"></path>
                    <path d="M177.992988,61.2609146 C177.992988,68.8548171 184.149756,75.0107927 191.742866,75.0107927 C199.336768,75.0107927 205.492744,68.8548171 205.492744,61.2609146 C205.492744,53.6670122 199.336768,47.5110366 191.742866,47.5110366 C184.149756,47.5110366 177.992988,53.6670122 177.992988,61.2609146" id="Fill-142" fill="#8D565F"></path>
                    <path d="M177.992988,64.4316463 C177.992988,72.0255488 184.149756,78.1815244 191.742866,78.1815244 C199.336768,78.1815244 205.492744,72.0255488 205.492744,64.4316463 C205.492744,56.8377439 199.336768,50.6817683 191.742866,50.6817683 C184.149756,50.6817683 177.992988,56.8377439 177.992988,64.4316463" id="Fill-143" fill="#ED9C89"></path>
                    <path d="M200.835732,65.2235366 C200.835732,67.5072561 202.687439,69.3581707 204.970366,69.3581707 C207.254085,69.3581707 209.105,67.5072561 209.105,65.2235366 C209.105,62.9406098 207.254085,61.0896951 204.970366,61.0896951 C202.687439,61.0896951 200.835732,62.9406098 200.835732,65.2235366" id="Fill-144" fill="#ED9C89"></path>
                    <path d="M174.772317,65.2235366 C174.772317,67.5072561 176.623232,69.3581707 178.906159,69.3581707 C181.189878,69.3581707 183.040793,67.5072561 183.040793,65.2235366 C183.040793,62.9406098 181.189878,61.0896951 178.906159,61.0896951 C176.623232,61.0896951 174.772317,62.9406098 174.772317,65.2235366" id="Fill-145" fill="#ED9C89"></path>
                    <path d="M195.611951,64.2144512 C195.611951,64.774878 196.070122,65.2290854 196.634512,65.2290854 C197.198902,65.2290854 197.657073,64.774878 197.657073,64.2144512 C197.657073,63.6540244 197.198902,63.1998171 196.634512,63.1998171 C196.070122,63.1998171 195.611951,63.6540244 195.611951,64.2144512" id="Fill-146" fill="#302C40"></path>
                    <path d="M186.028415,64.2144512 C186.028415,64.774878 186.486585,65.2290854 187.050976,65.2290854 C187.615366,65.2290854 188.073537,64.774878 188.073537,64.2144512 C188.073537,63.6540244 187.615366,63.1998171 187.050976,63.1998171 C186.486585,63.1998171 186.028415,63.6540244 186.028415,64.2144512" id="Fill-147" fill="#302C40"></path>
                    <path d="M199.867866,61.3845732 C198.085122,59.4837195 195.693598,59.9339634 195.67061,59.9395122 L195.554085,59.3560976 C195.665061,59.3331098 198.293598,58.8376829 200.301463,60.9779268 L199.867866,61.3845732" id="Fill-148" fill="#8D565F"></path>
                    <path d="M183.945244,61.3845732 L183.511646,60.9779268 C185.517927,58.8384756 188.148049,59.3346951 188.259024,59.3560976 L188.143293,59.9395122 C188.047378,59.9204878 185.720061,59.492439 183.945244,61.3845732" id="Fill-149" fill="#8D565F"></path>
                    <path d="M191.647744,110.392195 C192.888293,112.805122 195.849756,113.754756 198.26189,112.513415 C200.674024,111.272866 201.623659,108.311402 200.38311,105.899268 C199.142561,103.486341 196.181098,102.536707 193.768171,103.777256 C191.356037,105.018598 190.406402,107.980061 191.647744,110.392195" id="Fill-150" fill="#ED9C89"></path>
                    <path d="M165.065915,96.8230488 C157.25878,107.807256 147.76561,122.236463 150.422683,124.012866 C153.405549,126.007256 159.600366,126.450366 159.600366,126.450366 C159.600366,126.450366 164.716341,118.059024 164.716341,117.445488 C164.716341,117.122073 168.232683,110.786159 171.594451,104.648415 C168.127256,103.17561 165.875244,98.687439 165.065915,96.8230488" id="Fill-151" fill="#ED9C89"></path>
                    <path d="M170.767683,121.059329 C173.056951,119.467622 176.98628,102.435244 177.76311,99.7567683 C179.394451,94.1215854 180.059512,87.2173171 180.004817,81.3506707 C178.005671,80.5484756 175.782988,81.1739024 173.771951,81.947561 C171.682439,89.767378 167.836341,112.001341 168.100305,120.091463 C168.807378,120.738293 169.809329,121.058537 170.767683,121.059329" id="Fill-152" fill="#302C40"></path>
                    <path d="M192.346098,117.854512 C192.346098,117.854512 160.138598,114.981829 158.622988,117.651585 C155.678963,122.842073 156.120488,125.2225 159.599573,126.450366 C163.078659,127.678232 194.597317,122.356951 194.597317,122.356951 L192.346098,117.854512" id="Fill-153" fill="#ED9C89"></path>
                    <path d="M195.489878,119.694329 C195.489878,122.612988 193.12372,124.979146 190.205061,124.979146 C187.287195,124.979146 184.921037,122.612988 184.921037,119.694329 C184.921037,116.775671 187.287195,114.409512 190.205061,114.409512 C193.12372,114.409512 195.489878,116.775671 195.489878,119.694329" id="Fill-154" fill="#ED9C89"></path>
                    <path d="M195.182317,106.083171 C195.182317,106.083171 226.276098,114.959634 226.731098,117.99561 C227.617317,123.897134 226.35061,125.960488 222.662256,125.857439 C218.973902,125.755183 191.465427,109.477439 191.465427,109.477439 L195.182317,106.083171" id="Fill-155" fill="#ED9C89"></path>
                    <path d="M192.295366,54.2234756 C191.428963,55.6717073 190.204268,56.872622 188.918537,57.964939 C185.849268,60.5728659 181.980976,62.7479878 177.989817,62.2105488 C178.107134,60.3754878 178.256951,58.5047561 178.960061,56.8044512 C180.03811,54.1933537 182.353537,52.229878 184.940854,51.0939634 C186.726768,50.3107927 190.289085,48.9671951 192.257317,49.5442683 C194.482378,50.197439 193.155427,52.7847561 192.295366,54.2234756" id="Fill-156" fill="#8D565F"></path>
                    <path d="M187.239634,69.1877439 C187.591585,71.4484756 189.541585,73.1804878 191.901402,73.1804878 C194.260427,73.1804878 196.210427,71.4484756 196.563171,69.1877439 L187.239634,69.1877439" id="Fill-157" fill="#803846"></path>
                    <path d="M187.239634,69.1869512 C187.323659,69.7307317 187.502805,70.2420122 187.755671,70.7081098 L194.1875,70.7081098 C194.793902,70.7081098 195.286159,70.2158537 195.286159,69.6086585 L195.286159,69.1869512 L187.239634,69.1869512" id="Fill-158" fill="#FFFFFE"></path>
                    <polyline id="Fill-159" fill="#ED9C89" points="252.360915 218.052805 252.433049 238.933659 251.50561 241.263354 245.462988 242.874085 245.450305 213.677195 252.360915 218.052805"></polyline>
                    <polyline id="Fill-160" fill="#ED9C89" points="270.189146 220.821646 271.706341 238.732317 276.450549 237.860366 277.33122 219.640549 270.189146 220.821646"></polyline>
                    <path d="M282.384573,126.514573 L277.382744,223.831463 L270.411098,224.242866 L266.412805,136.011707 L258.491524,136.399329 C258.491524,136.399329 254.815854,189.04378 255.093293,189.8325 C255.369146,190.62122 252.710488,224.656646 252.710488,224.656646 L244.762256,224.485427 L242.134512,189.240366 L242.49122,127.134451 L282.384573,126.514573" id="Fill-161" fill="#302C40"></path>
                    <polyline id="Fill-162" fill="#ABA9B6" points="254.209451 220.194634 243.669939 220.385671 244.124146 224.967378 253.594329 224.760488 254.209451 220.194634"></polyline>
                    <polyline id="Fill-163" fill="#ABA9B6" points="278.942744 219.67939 268.252622 219.864878 268.706037 224.445793 278.327622 224.244451 278.942744 219.67939"></polyline>
                    <path d="M281.897866,135.991098 L281.809085,135.960183 C277.892439,134.584878 275.380427,130.75939 275.675305,126.619207 L282.384573,126.514573 L281.897866,135.991098" id="Fill-164" fill="#ABA9B6"></path>
                    <path d="M242.49122,127.134451 L250.754939,127.006037 L251.172683,134.930488 C250.593232,136.828171 249.505671,138.529268 248.032073,139.858598 C246.774085,140.99372 243.789634,141.895793 242.418293,139.866524 L242.49122,127.134451" id="Fill-165" fill="#ABA9B6"></path>
                    <path d="M299.17439,137.71122 C300.184268,139.92439 300.933354,142.360305 300.591707,144.768476 C300.203293,147.515122 298.426098,149.905854 296.26128,151.640244 C295.015976,152.637439 293.549512,153.481646 291.954634,153.526037 C289.892073,153.582317 287.985671,152.258537 286.807744,150.564573 C282.452744,144.296037 280.46311,131.961098 285.346829,125.396098 C286.972622,123.209878 288.93689,122.008963 291.184146,124.035061 C292.888415,125.572866 293.927622,128.64689 295.126951,130.596098 C296.558537,132.921829 298.037683,135.22061 299.17439,137.71122" id="Fill-166" fill="#384E89"></path>
                    <path d="M298.422927,148.846829 C296.349268,144.617866 294.276402,140.388902 292.203537,136.159939 C290.588841,132.867927 288.722073,129.080488 288.106159,125.466646 C286.2275,124.10561 283.474512,124.38939 281.607744,125.76628 C279.740976,127.143171 278.685122,129.409451 278.314939,131.699512 C277.946341,133.989573 278.190488,136.330366 278.486159,138.631524 C279.259817,144.638476 280.448049,150.773049 283.713902,155.873171 C287.445854,157.326951 291.692256,157.111341 295.05878,154.940976 C296.997683,153.690915 298.119329,151.13372 298.422927,148.846829" id="Fill-167" fill="#50619E"></path>
                    <path d="M284.12372,123.545976 C285.94372,122.107256 288.379634,121.252744 290.615793,121.867866 C291.593171,122.137378 292.477805,122.66689 293.329939,123.21622 C295.787256,124.8 298.104268,126.602561 300.244512,128.595366 C300.614695,128.940183 300.999939,129.327805 301.080793,129.827988 C301.141037,130.204512 301.016585,130.585793 300.879451,130.9425 C300.364207,132.291646 299.653171,133.567073 298.778049,134.716463 C298.339695,135.291159 297.837927,135.851585 297.177622,136.144878 C296.47689,136.456402 295.670732,136.431829 294.917683,136.286768 C292.834512,135.883293 291.030366,134.632439 289.29439,133.411707 C285.171646,130.512073 278.175427,128.246585 284.12372,123.545976" id="Fill-168" fill="#5F6AA3"></path>
                    <path d="M280.27128,133.381585 C280.27128,134.950305 281.5475,136.226524 283.11622,136.226524 C284.684939,136.226524 285.961159,134.950305 285.961159,133.381585 C285.961159,131.812866 284.684939,130.536646 283.11622,130.536646 C281.5475,130.536646 280.27128,131.812866 280.27128,133.381585 Z M279.478598,133.381585 C279.478598,131.375305 281.110732,129.743963 283.11622,129.743963 C285.121707,129.743963 286.753841,131.375305 286.753841,133.381585 C286.753841,135.387073 285.121707,137.019207 283.11622,137.019207 C281.110732,137.019207 279.478598,135.387073 279.478598,133.381585 L279.478598,133.381585 Z" id="Fill-169" fill="#E3E8EB"></path>
                    <path d="M298.03689,130.184695 C298.03689,130.184695 299.854512,133.352256 299.17439,137.71122 L298.546585,138.239939 C298.546585,138.239939 297.890244,131.386402 297.028598,131.263537 L298.03689,130.184695" id="Fill-170" fill="#302C40"></path>
                    <path d="M243.211768,76.2243902 C246.079695,75.4753049 255.34378,73.9961585 262.064939,73.8170122 L262.064146,73.7892683 C262.064146,73.7892683 262.134695,73.792439 262.262317,73.7995732 C262.389939,73.7884756 262.459695,73.7837195 262.459695,73.7837195 L262.460488,73.8106707 C264.956646,73.9596951 273.92189,73.694939 276.862744,78.4296341 C280.104817,83.6470732 282.384573,126.514573 282.384573,126.514573 L242.49122,127.134451 C242.49122,127.134451 242.048902,76.5271951 243.211768,76.2243902" id="Fill-171" fill="#FFFFFE"></path>
                    <path d="M277.383537,76.8902439 C277.383537,76.8902439 296.115427,101.893841 298.181951,108.100549 C300.254817,114.32628 300.907988,116.174024 296.32311,118.480732 C291.272927,121.022073 288.068902,115.066646 286.862439,110.800427 C284.928293,103.968293 280.125427,93.2242683 279.822622,92.3610366 C279.394573,91.1395122 277.383537,76.8902439 277.383537,76.8902439" id="Fill-172" fill="#E77D69"></path>
                    <path d="M288.99872,90.9246951 L279.701341,102.924329 L270.11622,74.6207927 C270.11622,74.6207927 280.274451,74.4630488 282.53122,77.9841463 C284.394817,80.8932927 288.018171,85.700122 288.99872,90.9246951" id="Fill-173" fill="#DE4D56"></path>
                    <path d="M252.230122,74.8364024 C255.040976,74.3441463 258.433659,73.9137195 262.064939,73.8170122 L262.064146,73.7892683 C262.064146,73.7892683 262.134695,73.792439 262.262317,73.7995732 C262.389939,73.7884756 262.459695,73.7837195 262.459695,73.7837195 L262.460488,73.8106707 C263.776341,73.8891463 266.89,73.8598171 269.972744,74.5018902 C269.996524,74.7888415 269.745244,75.3334146 269.314817,76.034939 C265.532927,82.2067683 256.423415,82.2852439 252.750122,76.0484146 C252.467927,75.5696341 252.284024,75.1558537 252.230122,74.8364024" id="Fill-174" fill="#ED9C89"></path>
                    <path d="M261.919878,64.4712805 L261.919878,64.4712805 C264.101341,64.4379878 265.896768,66.1787195 265.930854,68.3601829 L266.045793,75.7337195 C266.079085,77.9143902 264.338354,79.7106098 262.15689,79.7446951 C259.975427,79.7779878 258.18,78.0372561 258.145915,75.8557927 L258.031768,68.4830488 C257.997683,66.3015854 259.738415,64.5053659 261.919878,64.4712805" id="Fill-175" fill="#ED9C89"></path>
                    <path d="M261.882622,62.0940244 L261.882622,62.0940244 C264.064085,62.059939 265.860305,63.8006707 265.89439,65.9821341 L265.972866,71.0505488 C264.726768,71.4453049 263.406159,71.6735976 262.031646,71.695 C260.657927,71.7164024 259.330183,71.5293293 258.072988,71.1734146 L257.994512,66.105 C257.960427,63.9235366 259.701159,62.1273171 261.882622,62.0940244" id="Fill-176" fill="#E77D69"></path>
                    <path d="M248.036037,55.9721341 C248.154146,63.5652439 254.404451,69.6245122 261.998354,69.5071951 C269.591463,69.3890854 275.650732,63.1379878 275.532622,55.5456707 C275.414512,47.952561 269.164207,41.8925 261.570305,42.0106098 C253.977988,42.1287195 247.91872,48.3798171 248.036037,55.9721341" id="Fill-177" fill="#ED9C89"></path>
                    <path d="M270.889085,56.4096951 C270.924756,58.692622 272.803415,60.515 275.087134,60.4793293 C277.370061,60.4436585 279.192439,58.5642073 279.156768,56.2812805 C279.121098,53.9983537 277.241646,52.1759756 274.95872,52.2116463 C272.675793,52.2473171 270.853415,54.1267683 270.889085,56.4096951" id="Fill-178" fill="#ED9C89"></path>
                    <path d="M244.828049,56.8139634 C244.86372,59.0976829 246.743171,60.9192683 249.026098,60.8843902 C251.309024,60.8487195 253.131402,58.9692683 253.095732,56.6863415 C253.060061,54.402622 251.18061,52.5810366 248.897683,52.6159146 C246.614756,52.6515854 244.792378,54.5310366 244.828049,56.8139634" id="Fill-179" fill="#ED9C89"></path>
                    <path d="M265.674817,57.0668293 C265.683537,57.6272561 266.148049,58.0743293 266.712439,58.0648171 C267.277622,58.0568902 267.727866,57.5955488 267.718354,57.035122 C267.710427,56.4746951 267.245915,56.027622 266.681524,56.0363415 C266.116341,56.045061 265.665305,56.5064024 265.674817,57.0668293" id="Fill-180" fill="#302C40"></path>
                    <path d="M256.09128,57.2158537 C256.100793,57.7762805 256.565305,58.2233537 257.129695,58.2138415 C257.694878,58.205122 258.145122,57.7445732 258.13561,57.1841463 C258.127683,56.6237195 257.663171,56.1766463 257.09878,56.1853659 C256.533598,56.1940854 256.083354,56.6554268 256.09128,57.2158537" id="Fill-181" fill="#302C40"></path>
                    <path d="M269.815,54.240122 L270.384939,53.6892073 C268.306524,51.5402439 265.632805,52.0887805 265.519451,52.1133537 L265.685915,52.8885976 C265.781037,52.8671951 268.049695,52.4153659 269.815,54.240122" id="Fill-182" fill="#A65232"></path>
                    <path d="M254.038232,54.485061 C255.744878,52.6071951 258.02622,52.9884756 258.122927,53.0059146 L258.26561,52.2259146 C258.151463,52.2053049 255.461098,51.7415854 253.451646,53.952378 L254.038232,54.485061" id="Fill-183" fill="#A65232"></path>
                    <path d="M231.825671,92.1470122 L241.491646,103.852561 L250.19372,75.2644512 C250.19372,75.2644512 240.034695,75.4221951 237.88811,79.0122561 C236.115671,81.9776829 232.64372,86.8946951 231.825671,92.1470122" id="Fill-184" fill="#DE4D56"></path>
                    <polyline id="Fill-185" fill="#302C40" points="273.69439 74.1451829 281.488049 132.35189 284.65878 131.955549 276.10811 74.2196951 273.69439 74.1451829"></polyline>
                    <path d="M275.082378,91.7459146 C275.12439,94.4584756 277.357378,96.6232927 280.069939,96.5812805 C282.7825,96.5392683 284.94811,94.3062805 284.905305,91.5937195 C284.863293,88.8811585 282.630305,86.7163415 279.917744,86.7583537 C277.205183,86.8003659 275.041159,89.0333537 275.082378,91.7459146" id="Fill-186" fill="#ED9C89"></path>
                    <path d="M283.590244,94.0478659 L297.814939,109.582866 C297.814939,109.582866 303.959817,117.598476 298.128841,120.58689 C293.933171,122.736646 290.406524,118.399085 288.16561,115.738049 C287.770061,115.26878 280.329146,96.7651829 280.329146,96.7651829 L283.590244,94.0478659" id="Fill-187" fill="#ED9C89"></path>
                    <path d="M232.599329,92.8477439 C232.599329,92.8477439 228.104817,108.615 227.847195,113.637439 C227.591159,118.659878 243.795183,140.74878 243.795183,140.74878 C246.807378,142.091585 250.240488,140.040122 250.484634,136.750488 L250.493354,136.633963 L239.010549,117.146646 L243.080183,96.5971341 L232.599329,92.8477439" id="Fill-188" fill="#ED9C89"></path>
                    <path d="M277.31061,237.704207 C277.31061,237.704207 276.12,235.078841 277.618171,234.837866 C279.115549,234.59689 279.918537,235.512439 279.918537,235.512439 L283.566463,239.597927 L285.478415,242.568902 L282.594634,241.25939 L277.31061,237.704207" id="Fill-189" fill="#302C40"></path>
                    <path d="M271.493902,236.447012 C271.493902,236.447012 272.713841,239.363293 273.967866,238.836159 C274.678902,238.537317 275.924207,236.155305 276.860366,236.496951 C277.795732,236.837805 281.419085,239.4925 282.789634,240.18372 C284.160976,240.874939 279.918537,235.512439 279.918537,235.512439 C279.918537,235.512439 283.487988,239.170671 284.715061,239.792134 C285.941341,240.41439 296.285854,242.951768 296.556951,246.166098 L296.415854,248.242927 C296.415854,248.242927 293.072317,251.377195 285.086037,248.798598 C277.101341,246.22 272.587805,245.798293 271.1475,245.252134 C269.707195,244.70439 270.351646,236.538171 271.493902,236.447012" id="Fill-190" fill="#4C4757"></path>
                    <path d="M286.712622,247.696768 C282.910915,247.119695 276.569451,244.44122 274.133537,244.197866 C272.730488,244.057561 271.323476,243.585915 270.380976,243.210183 C270.48561,244.279512 270.726585,245.09122 271.1475,245.252134 C272.587805,245.798293 277.101341,246.22 285.086037,248.798598 C293.072317,251.377195 296.415854,248.242927 296.415854,248.242927 L296.556951,246.166098 C295.655671,247.826768 290.513537,248.274634 286.712622,247.696768" id="Fill-191" fill="#FFFFFE"></path>
                    <path d="M279.420732,239.781037 L279.228902,239.735061 C279.035488,239.632012 278.961768,239.392622 279.064024,239.199207 C279.10128,239.128659 279.990671,237.474329 281.247073,237.210366 C281.752805,237.100183 282.259329,237.233354 282.70878,237.589268 C282.880793,237.724817 282.910122,237.97372 282.774573,238.145732 C282.639024,238.317744 282.390122,238.347866 282.21811,238.211524 C281.951768,238.002256 281.687012,237.927744 281.410366,237.98561 C280.665244,238.142561 279.969268,239.182561 279.764756,239.570976 C279.695,239.702561 279.560244,239.777866 279.420732,239.781037" id="Fill-192" fill="#E3E8EB"></path>
                    <path d="M280.656524,240.903476 L280.463902,240.8575 C280.270488,240.755244 280.196768,240.515061 280.299024,240.321646 C280.33628,240.251098 281.225671,238.597561 282.482866,238.332805 C282.987805,238.223415 283.495122,238.355793 283.945366,238.7125 C284.117378,238.847256 284.146707,239.096951 284.011159,239.268963 C283.87561,239.440183 283.626707,239.469512 283.454695,239.333963 C283.187561,239.123902 282.92439,239.04939 282.646159,239.108841 C281.901829,239.265 281.205061,240.305 280.999756,240.693415 C280.929207,240.825793 280.795244,240.901098 280.656524,240.903476" id="Fill-193" fill="#E3E8EB"></path>
                    <path d="M282.172134,241.663659 L281.979512,241.617683 C281.786098,241.514634 281.713171,241.275244 281.815427,241.081829 C281.85189,241.01128 282.74128,239.356951 283.997683,239.092988 C284.503415,238.986768 285.010732,239.117561 285.460976,239.472683 C285.632195,239.608232 285.661524,239.85872 285.525976,240.029939 C285.390427,240.201159 285.141524,240.23128 284.969512,240.094939 C284.703171,239.884085 284.44,239.811159 284.161768,239.868232 C283.421402,240.023598 282.722256,241.06439 282.515366,241.453598 C282.444817,241.585976 282.310854,241.66128 282.172134,241.663659" id="Fill-194" fill="#E3E8EB"></path>
                    <path d="M283.7575,242.350915 L283.565671,242.304939 C283.371463,242.202683 283.298537,241.9625 283.400793,241.769085 C283.438049,241.698537 284.326646,240.045 285.583841,239.780244 C286.089573,239.670061 286.596098,239.804024 287.045549,240.159939 C287.218354,240.295488 287.247683,240.54439 287.112134,240.716402 C286.975793,240.888415 286.72689,240.917744 286.554878,240.781402 C286.289329,240.572134 286.025366,240.497622 285.747134,240.55628 C285.002805,240.713232 284.306037,241.753232 284.100732,242.140854 C284.030976,242.273232 283.897012,242.348537 283.7575,242.350915" id="Fill-195" fill="#E3E8EB"></path>
                    <path d="M246.307195,240.293902 C246.307195,240.293902 247.451037,237.647927 245.948902,237.43311 C244.447561,237.218293 243.66122,238.148902 243.66122,238.148902 L240.084634,242.29622 L238.225,245.300488 L241.086585,243.941037 L246.307195,240.293902" id="Fill-196" fill="#302C40"></path>
                    <path d="M252.100122,238.935244 C252.100122,238.935244 250.9325,241.872134 249.668963,241.366402 C248.953171,241.081037 247.665854,238.720427 246.736829,239.077927 C245.807012,239.43622 242.230427,242.152744 240.871768,242.868537 C239.512317,243.583537 243.66122,238.148902 243.66122,238.148902 C243.66122,238.148902 240.156768,241.867378 238.940793,242.511037 C237.724024,243.154695 227.425488,245.872805 227.211463,249.090305 L227.388232,251.164756 C227.388232,251.164756 230.787256,254.239573 238.725976,251.522256 C246.664695,248.804939 251.170305,248.303963 252.601098,247.731646 C254.031098,247.160122 253.244756,239.006585 252.100122,238.935244" id="Fill-197" fill="#4C4757"></path>
                    <path d="M237.081159,250.449756 C240.871768,249.806098 247.165671,247.016646 249.596829,246.730488 C250.998293,246.56561 252.395793,246.06939 253.331951,245.677805 C253.245549,246.747927 253.018049,247.56439 252.601098,247.731646 C251.170305,248.303963 246.664695,248.804939 238.725976,251.522256 C230.787256,254.239573 227.388232,251.163963 227.388232,251.163963 L227.211463,249.090305 C228.14128,250.735122 233.290549,251.093415 237.081159,250.449756" id="Fill-198" fill="#FFFFFE"></path>
                    <path d="M244.232744,242.407195 C244.094024,242.407195 243.958476,242.333476 243.886341,242.202683 C243.672317,241.817439 242.954939,240.789329 242.211402,240.646646 C241.932378,240.591951 241.670793,240.672012 241.408415,240.886829 C241.23878,241.025549 240.989878,241.000183 240.851159,240.830549 C240.712439,240.660915 240.737012,240.412012 240.906646,240.273293 C241.350549,239.910244 241.854695,239.767561 242.362012,239.868232 C243.623171,240.110793 244.541098,241.749268 244.579939,241.818232 C244.686159,242.010854 244.616402,242.251037 244.425366,242.357256 L244.232744,242.407195" id="Fill-199" fill="#E3E8EB"></path>
                    <path d="M243.017561,243.551037 C242.878049,243.551037 242.7425,243.477317 242.670366,243.346524 C242.456341,242.962073 241.738963,241.933171 240.994634,241.790488 C240.717195,241.735793 240.454817,241.816646 240.192439,242.030671 C240.022805,242.16939 239.77311,242.144817 239.635183,241.975183 C239.496463,241.805549 239.521037,241.555854 239.690671,241.417927 C240.13378,241.054878 240.637134,240.911402 241.146037,241.012866 C242.407195,241.255427 243.325915,242.89311 243.363963,242.962866 C243.46939,243.154695 243.400427,243.395671 243.208598,243.50189 L243.017561,243.551037" id="Fill-200" fill="#E3E8EB"></path>
                    <path d="M241.515427,244.337378 C241.375915,244.337378 241.240366,244.263659 241.168232,244.132866 C240.955,243.748415 240.236829,242.719512 239.493293,242.576829 C239.215061,242.522927 238.952683,242.60378 238.690305,242.817012 C238.520671,242.955732 238.270976,242.931159 238.133049,242.761524 C237.994329,242.59189 238.019695,242.342988 238.188537,242.204268 C238.632439,241.84122 239.137378,241.699329 239.643902,241.799207 C240.905061,242.041768 241.822988,243.679451 241.861829,243.749207 C241.968049,243.941037 241.898293,244.182012 241.707256,244.288232 L241.515427,244.337378" id="Fill-201" fill="#E3E8EB"></path>
                    <path d="M239.941951,245.053171 C239.803232,245.053171 239.667683,244.979451 239.594756,244.848659 C239.380732,244.463415 238.664146,243.435305 237.92061,243.292622 C237.640793,243.237134 237.379207,243.317988 237.117622,243.532805 C236.947195,243.670732 236.698293,243.645366 236.559573,243.476524 C236.420854,243.30689 236.44622,243.057988 236.615854,242.919268 C237.059756,242.55622 237.56311,242.413537 238.07122,242.514207 C239.332378,242.756768 240.250305,244.394451 240.288354,244.464207 C240.394573,244.656829 240.324817,244.897012 240.13378,245.003232 L239.941951,245.053171" id="Fill-202" fill="#E3E8EB"></path>
                    <path d="M261.934146,63.9821951 C261.402256,63.9821951 260.837073,63.9259146 260.243354,63.7943293 L260.371768,63.2140854 C264.179024,64.0582927 266.782195,61.4701829 266.808354,61.4440244 L267.233232,61.8601829 C267.134939,61.9608537 265.115976,63.9821951 261.934146,63.9821951" id="Fill-203" fill="#DF6757"></path>
                    <path d="M256.626341,53.5385976 C254.640671,53.5385976 253.025976,55.1540854 253.025976,57.1389634 C253.025976,59.1238415 254.640671,60.7393293 256.626341,60.7393293 C258.612012,60.7393293 260.226707,59.1238415 260.226707,57.1389634 C260.226707,55.1540854 258.612012,53.5385976 256.626341,53.5385976 Z M256.626341,61.5320122 C254.203902,61.5320122 252.233293,59.5614024 252.233293,57.1389634 C252.233293,54.7165244 254.203902,52.7459146 256.626341,52.7459146 C259.04878,52.7459146 261.01939,54.7165244 261.01939,57.1389634 C261.01939,59.5614024 259.04878,61.5320122 256.626341,61.5320122 L256.626341,61.5320122 Z" id="Fill-204" fill="#302C40"></path>
                    <path d="M266.893171,53.5385976 C264.9075,53.5385976 263.292805,55.1540854 263.292805,57.1389634 C263.292805,59.1238415 264.9075,60.7393293 266.893171,60.7393293 C268.878841,60.7393293 270.493537,59.1238415 270.493537,57.1389634 C270.493537,55.1540854 268.878841,53.5385976 266.893171,53.5385976 Z M266.893171,61.5320122 C264.471524,61.5320122 262.500122,59.5614024 262.500122,57.1389634 C262.500122,54.7165244 264.471524,52.7459146 266.893171,52.7459146 C269.31561,52.7459146 271.28622,54.7165244 271.28622,57.1389634 C271.28622,59.5614024 269.31561,61.5320122 266.893171,61.5320122 L266.893171,61.5320122 Z" id="Fill-205" fill="#302C40"></path>
                    <polyline id="Fill-206" fill="#302C40" points="252.454451 56.9003659 248.044756 53.4553659 248.532256 52.829939 252.942744 56.2757317 252.454451 56.9003659"></polyline>
                    <polyline id="Fill-207" fill="#302C40" points="270.995305 56.762439 275.405793 53.317439 274.9175 52.6928049 270.507805 56.1378049 270.995305 56.762439"></polyline>
                    <path d="M265.332378,38.6654878 C263.271402,38.1637195 261.186646,37.730122 259.071768,37.5779268 C257.987378,37.4994512 256.765854,37.5478049 256.007256,38.3262195 C255.247866,39.1046341 255.580793,40.7970122 256.667561,40.8057317 C253.315305,40.5988415 249.705427,40.4561585 246.881098,42.2737805 C246.560061,42.4806707 246.241402,42.7240244 246.075732,43.0688415 C245.738049,43.7703659 246.177195,44.6470732 246.836707,45.060061 C247.49622,45.4738415 248.306341,45.5428049 249.083171,45.599878 C247.197378,46.3394512 244.969146,47.5752439 245.065061,49.5981707 C245.140366,51.172439 247.040427,52.3503659 248.483902,51.7178049 C248.001951,52.197378 247.502561,52.7046951 247.309146,53.3562805 C247.116524,54.0070732 247.351951,54.8401829 247.987683,55.0779878 C248.517988,55.2769512 249.099817,55.0121951 249.596037,54.7403049 C252.341098,53.237378 254.860244,51.3246341 257.044878,49.0853049 C256.444817,49.7527439 256.050854,50.6040854 255.931159,51.4942683 C255.89311,51.7740854 255.887561,52.0776829 256.037378,52.3170732 C256.417073,52.9226829 257.351646,52.6381098 257.956463,52.257622 C260.275061,50.7990854 262.291646,48.8657317 263.84689,46.6121341 C263.883354,47.4412805 263.92061,48.2704268 263.957073,49.1003659 C263.968171,49.3413415 263.996707,49.6156098 264.193293,49.7559146 C264.36689,49.8787805 264.603902,49.8439024 264.811585,49.7963415 C267.705671,49.1289024 270.14,46.7017073 270.894634,43.8329878 C271.77689,40.479939 268.146402,39.3519512 265.332378,38.6654878" id="Fill-208" fill="#A65232"></path>
                    <path d="M273.49622,44.559878 C273.783963,45.0893902 273.818049,45.7275 274.100244,46.2593902 C274.543354,47.0917073 275.485854,47.4967683 276.24128,48.0611585 C276.995915,48.6255488 277.622927,49.6790244 277.114817,50.4725 C276.644756,51.2057317 275.580976,51.170061 274.718537,51.0495732 C275.270244,51.969878 275.83939,52.9662805 275.767256,54.0371951 C275.694329,55.1073171 274.651951,56.1695122 273.633354,55.8342073 C272.380122,54.3352439 271.692866,52.3757317 271.734878,50.422561 C271.641341,51.1835366 270.767012,51.6670732 270.01,51.5481707 C269.252988,51.4292683 268.637073,50.8625 268.209024,50.2267683 C265.368841,46.0041463 271.009573,39.9853049 273.49622,44.559878" id="Fill-209" fill="#A65232"></path>
                    <path d="M263.257927,57.8856707 L262.465244,57.8856707 C262.465244,57.477439 262.13311,57.1453049 261.725671,57.1453049 C261.316646,57.1453049 260.984512,57.477439 260.984512,57.8856707 L260.191829,57.8856707 C260.191829,57.039878 260.879878,56.352622 261.725671,56.352622 C262.570671,56.352622 263.257927,57.039878 263.257927,57.8856707" id="Fill-210" fill="#302C40"></path>
                </g>
            </g>
        </g>
    </g>
</svg>