<?xml version="1.0" encoding="UTF-8"?>
<svg width="48px" height="48px" viewBox="0 0 48 48" version="1.1" xmlns="http://www.w3.org/2000/svg" xmlns:xlink="http://www.w3.org/1999/xlink">
    <!-- Generator: sketchtool 53 (72520) - https://sketchapp.com -->
    <title>171501F8-A925-495A-9B96-91E34257286D</title>
    <desc>Created with sketchtool.</desc>
    <defs>
        <path d="M45.8680792,2.11247999 C44.4640793,0.713279998 42.5848793,-0.01152 40.6360793,0.000480000015 C10.1272798,0.593279998 0.539279991,6.27647998 0.00167999998,40.6516799 C-0.0295199995,42.6292799 0.726479988,44.4868799 2.13287996,45.8884799 C3.50567994,47.2540799 5.30807991,48.0004799 7.22327988,48.0004799 L7.36487988,48.0004799 C37.8736794,47.4076799 47.4616792,41.7244799 48.0016792,7.34687998 C48.0304792,5.37167999 47.2744792,3.51407999 45.8680792,2.11247999 M16.5640798,42.782881 C15.4000798,35.3668808 9.70967992,32.3332807 5.18327999,31.4812806 C6.60167997,12.4108801 12.3040799,6.70607997 31.4368796,5.21807993 C32.6032796,12.6316801 38.2936795,15.6652802 42.8176794,16.5196802 C41.4016794,35.5900808 35.6992795,41.2948809 16.5640798,42.782881 M7.27368024,43.2004801 C6.53928023,43.2124801 5.99688021,42.9580801 5.52168021,42.4900801 C5.0464802,42.0148801 4.79208019,41.3884801 4.80168019,40.7284801 C4.82328019,39.1996801 4.86648019,37.75008 4.91688019,36.34608 C7.34808024,36.94128 10.7680803,38.59488 11.7232803,43.0636801 C10.3000803,43.1236801 8.82648027,43.1692801 7.27368024,43.2004801 M40.7272802,4.80047987 L40.7752802,4.80047987 C41.4136802,4.80047987 42.0160802,5.05007987 42.4792802,5.51087988 C42.9544802,5.98607988 43.2136802,6.61247988 43.2016802,7.27247989 C43.1776802,8.8012799 43.1344802,10.2484799 43.0840802,11.6524799 C40.6528802,11.0572799 37.2328802,9.4060799 36.2776802,4.93487987 C37.7032802,4.87727987 39.1744802,4.83167987 40.7272802,4.80047987 M30.4624798,12.6585596 C29.5240798,11.7201596 28.0072798,11.7201596 27.0688798,12.6585596 C26.1304799,13.5969596 26.1304799,15.1137595 27.0688798,16.0521595 L27.7720798,16.7553595 L23.9656799,20.5617595 L23.2624799,19.8585595 C22.32408,18.9201595 20.80728,18.9201595 19.86888,19.8585595 C18.9304801,20.7969595 18.9304801,22.3137594 19.86888,23.2521594 L20.57208,23.9553594 L16.7656801,27.7617594 L16.0624801,27.0585594 C15.1240802,26.1201594 13.6072802,26.1201594 12.6688802,27.0585594 C11.7304803,27.9969594 11.7304803,29.5137593 12.6688802,30.4521593 L17.4688801,35.2521593 C17.9368801,35.7201593 18.5512801,35.9553593 19.1656801,35.9553593 C19.78008,35.9553593 20.39448,35.7201593 20.86248,35.2521593 C21.80088,34.3137593 21.80088,32.7969593 20.86248,31.8585593 L20.15928,31.1553593 L23.9656799,27.3489594 L24.6688799,28.0521594 C25.1368799,28.5201594 25.7512799,28.7553593 26.3656799,28.7553593 C26.9800798,28.7553593 27.5944798,28.5201594 28.0624798,28.0521594 C29.0008798,27.1137594 29.0008798,25.5969594 28.0624798,24.6585594 L27.3592798,23.9553594 L31.1656797,20.1489595 L31.8688797,20.8521595 C32.3368797,21.3201595 32.9512797,21.5553594 33.5656797,21.5553594 C34.1800796,21.5553594 34.7944796,21.3201595 35.2624796,20.8521595 C36.2008796,19.9137595 36.2008796,18.3969595 35.2624796,17.4585595 L30.4624798,12.6585596 Z" id="path-1"></path>
    </defs>
    <g id="Login-&amp;-Onboarding" stroke="none" stroke-width="1" fill="none" fill-rule="evenodd">
        <g id="06.-Onboarding---School-Setup---Welcome" transform="translate(-274.000000, -819.000000)">
            <g id="Group-2" transform="translate(250.000000, 784.000000)">
                <g id="IconSet/Sample-Feature/Default" transform="translate(24.000000, 35.000000)">
                    <mask id="mask-2" fill="white">
                        <use xlink:href="#path-1"></use>
                    </mask>
                    <use id="Icon" fill="#BFCDDA" xlink:href="#path-1"></use>
                </g>
            </g>
        </g>
    </g>
</svg>