<?xml version="1.0" encoding="UTF-8"?>
<svg width="30px" height="30px" viewBox="0 0 30 30" version="1.1" xmlns="http://www.w3.org/2000/svg" xmlns:xlink="http://www.w3.org/1999/xlink">
    <!-- Generator: sketchtool 62 (101010) - https://sketch.com -->
    <title>C5C2D884-B09D-4E34-A202-D15152DAF42D</title>
    <desc>Created with sketchtool.</desc>
    <defs>
        <circle id="path-1" cx="15" cy="15" r="15"></circle>
    </defs>
    <g id="Principal-Dashboard" stroke="none" stroke-width="1" fill="none" fill-rule="evenodd">
        <g id="01.-Principal-Dashboard" transform="translate(-408.000000, -520.000000)">
            <g id="Group-22" transform="translate(280.000000, 100.000000)">
                <g id="Group-9" transform="translate(24.000000, 404.000000)">
                    <g id="ic_boy" transform="translate(104.000000, 16.000000)">
                        <mask id="mask-2" fill="white">
                            <use xlink:href="#ice_boy"></use>
                        </mask>
                        <use id="Mask" fill="#F6F7FB" xlink:href="#ice_boy"></use>
                        <path d="M22.5655848,23.796875 L18.5749676,22.7989746 L18.2353687,21.440625 C19.3030912,20.3833496 20.0343398,18.93125 20.2509897,17.4416504 C20.842639,17.275 21.3009877,16.7676758 21.3801379,16.13125 L21.6405378,14.0479004 C21.6957623,13.6083008 21.5603134,13.1635254 21.2686635,12.8301758 C21.0978143,12.6343262 20.8821897,12.4864258 20.6436648,12.3958008 L20.7395142,10.4343262 L21.129113,10.0437012 C21.7155865,9.41972656 22.2020113,8.34995117 21.1853629,6.79785156 C20.4041144,5.60522461 19.0770663,5 17.2395698,5 C16.5145713,5 14.8458245,5 13.2916772,6.04375 C8.854137,6.13647461 8.24998779,8.19790039 8.24998779,10.2083496 C8.24998779,10.6760742 8.36351296,11.7291992 8.43851282,12.3645996 C8.17078873,12.4489746 7.92811342,12.6052246 7.73851418,12.8208496 C7.44163976,13.1573242 7.30414003,13.6041992 7.35936453,14.0489746 L7.61976441,16.1323242 C7.70516464,16.8114746 8.22078863,17.3458496 8.87288697,17.4729492 C9.08851155,18.9052246 9.78226019,20.3104492 10.7885082,21.3500488 L10.4260089,22.8010742 L6.43539173,23.7989746 C3.82289683,24.45 2,26.7854004 2,29.4791504 C2,29.7666504 2.23334915,30 2.52084859,30 L26.4791514,30 C26.7666508,30 27,29.7645996 27,29.4770996 C27,26.7854004 25.1770543,24.45 22.5655848,23.796875 Z" id="ice_boy" fill="#BFCDDA" fill-rule="nonzero" mask="url(#mask-2)"></path>
                    </g>
                </g>
            </g>
        </g>
    </g>
</svg>