<?xml version="1.0" encoding="UTF-8"?>
<svg width="30px" height="30px" viewBox="0 0 30 30" version="1.1" xmlns="http://www.w3.org/2000/svg" xmlns:xlink="http://www.w3.org/1999/xlink">
    <!-- Generator: sketchtool 53 (72520) - https://sketchapp.com -->
    <title>A76CE0B2-DF67-4B98-A492-5E6A31D3A484</title>
    <desc>Created with sketchtool.</desc>
    <g id="Login-&amp;-Onboarding" stroke="none" stroke-width="1" fill="none" fill-rule="evenodd">
        <g id="07.-SM---School-Academic-Details" transform="translate(-1234.000000, -15.000000)">
            <g id="header/onboarding">
                <g id="IconSet/Avatar" transform="translate(1231.000000, 12.000000)">
                    <path d="M17.9999996,27 C15.0641996,27 12.4847997,25.5744 10.8395997,23.4 C12.4847997,21.2256 15.0641996,19.8 17.9999996,19.8 C20.9357995,19.8 23.5151995,21.2256 25.1603994,23.4 C23.5151995,25.5744 20.9357995,27 17.9999996,27 M18,9 C19.9872,9 21.6,10.6146 21.6,12.6 C21.6,14.5854 19.9872,16.2 18,16.2 C16.0128,16.2 14.4,14.5854 14.4,12.6 C14.4,10.6146 16.0128,9 18,9 M18,3.6 C10.0602,3.6 3.6,10.0602 3.6,18 C3.6,25.9398 10.0602,32.4 18,32.4 C25.9398,32.4 32.4,25.9398 32.4,18 C32.4,10.0602 25.9398,3.6 18,3.6" id="Icon" fill="#8595A6"></path>
                    <circle id="Oval" stroke="#FFFFFF" fill="#7ED321" cx="28.8" cy="28.8" r="3.6"></circle>
                </g>
            </g>
        </g>
    </g>
</svg>